M48
;DRILL file {KiCad (5.0.0)} date 12/14/18 13:41:48
;FORMAT={-:-/ absolute / inch / decimal}
FMAT,2
INCH,TZ
T1C0.0157
T2C0.0394
%
G90
G05
M72
T1
X4.0469Y-3.1276
X4.1181Y-2.874
X4.126Y-3.4843
X4.128Y-3.8524
X4.1417Y-2.6437
X4.1909Y-3.7874
X4.2579Y-2.5531
X4.2871Y-2.3606
X4.3012Y-3.1909
X4.3327Y-3.8465
X4.3366Y-2.3917
X4.3878Y-2.124
X4.4094Y-2.374
X4.4242Y-2.109
X4.437Y-3.4902
X4.4429Y-4.002
X4.4803Y-2.8681
X4.4862Y-2.3642
X4.4941Y-2.5157
X4.5039Y-2.128
X4.5413Y-3.7874
X4.5906Y-2.435
X4.5965Y-3.7913
X4.6043Y-3.187
X4.6535Y-3.187
X4.8189Y-3.8583
T2
X3.9535Y-2.7343
X4.0535Y-2.7343
X4.1535Y-2.7343
X4.2535Y-2.7343
X4.3535Y-2.7343
X4.4535Y-2.7343
X4.5535Y-2.7343
X4.6535Y-2.7343
T0
M30
