G04 #@! TF.GenerationSoftware,KiCad,Pcbnew,(5.0.0)*
G04 #@! TF.CreationDate,2018-12-14T13:41:46-05:00*
G04 #@! TF.ProjectId,uv_pcb,75765F7063622E6B696361645F706362,rev?*
G04 #@! TF.SameCoordinates,Original*
G04 #@! TF.FileFunction,Soldermask,Top*
G04 #@! TF.FilePolarity,Negative*
%FSLAX46Y46*%
G04 Gerber Fmt 4.6, Leading zero omitted, Abs format (unit mm)*
G04 Created by KiCad (PCBNEW (5.0.0)) date 12/14/18 13:41:46*
%MOMM*%
%LPD*%
G01*
G04 APERTURE LIST*
%ADD10C,0.100000*%
%ADD11C,2.000000*%
%ADD12C,1.375000*%
%ADD13R,1.800000X3.300000*%
%ADD14R,0.800000X2.000000*%
%ADD15R,1.200000X1.300000*%
%ADD16R,2.000000X3.400000*%
%ADD17R,2.100000X2.100000*%
%ADD18O,2.100000X2.100000*%
%ADD19R,1.050000X1.460000*%
G04 APERTURE END LIST*
D10*
G04 #@! TO.C,D2*
G36*
X115474520Y-74302138D02*
X115517620Y-74308531D01*
X115559886Y-74319118D01*
X115600911Y-74333797D01*
X115640300Y-74352427D01*
X115677673Y-74374827D01*
X115712671Y-74400783D01*
X115744955Y-74430045D01*
X115774217Y-74462329D01*
X115800173Y-74497327D01*
X115822573Y-74534700D01*
X115841203Y-74574089D01*
X115855882Y-74615114D01*
X115866469Y-74657380D01*
X115872862Y-74700480D01*
X115875000Y-74744000D01*
X115875000Y-76656000D01*
X115872862Y-76699520D01*
X115866469Y-76742620D01*
X115855882Y-76784886D01*
X115841203Y-76825911D01*
X115822573Y-76865300D01*
X115800173Y-76902673D01*
X115774217Y-76937671D01*
X115744955Y-76969955D01*
X115712671Y-76999217D01*
X115677673Y-77025173D01*
X115640300Y-77047573D01*
X115600911Y-77066203D01*
X115559886Y-77080882D01*
X115517620Y-77091469D01*
X115474520Y-77097862D01*
X115431000Y-77100000D01*
X114319000Y-77100000D01*
X114275480Y-77097862D01*
X114232380Y-77091469D01*
X114190114Y-77080882D01*
X114149089Y-77066203D01*
X114109700Y-77047573D01*
X114072327Y-77025173D01*
X114037329Y-76999217D01*
X114005045Y-76969955D01*
X113975783Y-76937671D01*
X113949827Y-76902673D01*
X113927427Y-76865300D01*
X113908797Y-76825911D01*
X113894118Y-76784886D01*
X113883531Y-76742620D01*
X113877138Y-76699520D01*
X113875000Y-76656000D01*
X113875000Y-74744000D01*
X113877138Y-74700480D01*
X113883531Y-74657380D01*
X113894118Y-74615114D01*
X113908797Y-74574089D01*
X113927427Y-74534700D01*
X113949827Y-74497327D01*
X113975783Y-74462329D01*
X114005045Y-74430045D01*
X114037329Y-74400783D01*
X114072327Y-74374827D01*
X114109700Y-74352427D01*
X114149089Y-74333797D01*
X114190114Y-74319118D01*
X114232380Y-74308531D01*
X114275480Y-74302138D01*
X114319000Y-74300000D01*
X115431000Y-74300000D01*
X115474520Y-74302138D01*
X115474520Y-74302138D01*
G37*
D11*
X114875000Y-75700000D03*
D10*
G36*
X118324520Y-74302138D02*
X118367620Y-74308531D01*
X118409886Y-74319118D01*
X118450911Y-74333797D01*
X118490300Y-74352427D01*
X118527673Y-74374827D01*
X118562671Y-74400783D01*
X118594955Y-74430045D01*
X118624217Y-74462329D01*
X118650173Y-74497327D01*
X118672573Y-74534700D01*
X118691203Y-74574089D01*
X118705882Y-74615114D01*
X118716469Y-74657380D01*
X118722862Y-74700480D01*
X118725000Y-74744000D01*
X118725000Y-76656000D01*
X118722862Y-76699520D01*
X118716469Y-76742620D01*
X118705882Y-76784886D01*
X118691203Y-76825911D01*
X118672573Y-76865300D01*
X118650173Y-76902673D01*
X118624217Y-76937671D01*
X118594955Y-76969955D01*
X118562671Y-76999217D01*
X118527673Y-77025173D01*
X118490300Y-77047573D01*
X118450911Y-77066203D01*
X118409886Y-77080882D01*
X118367620Y-77091469D01*
X118324520Y-77097862D01*
X118281000Y-77100000D01*
X117169000Y-77100000D01*
X117125480Y-77097862D01*
X117082380Y-77091469D01*
X117040114Y-77080882D01*
X116999089Y-77066203D01*
X116959700Y-77047573D01*
X116922327Y-77025173D01*
X116887329Y-76999217D01*
X116855045Y-76969955D01*
X116825783Y-76937671D01*
X116799827Y-76902673D01*
X116777427Y-76865300D01*
X116758797Y-76825911D01*
X116744118Y-76784886D01*
X116733531Y-76742620D01*
X116727138Y-76699520D01*
X116725000Y-76656000D01*
X116725000Y-74744000D01*
X116727138Y-74700480D01*
X116733531Y-74657380D01*
X116744118Y-74615114D01*
X116758797Y-74574089D01*
X116777427Y-74534700D01*
X116799827Y-74497327D01*
X116825783Y-74462329D01*
X116855045Y-74430045D01*
X116887329Y-74400783D01*
X116922327Y-74374827D01*
X116959700Y-74352427D01*
X116999089Y-74333797D01*
X117040114Y-74319118D01*
X117082380Y-74308531D01*
X117125480Y-74302138D01*
X117169000Y-74300000D01*
X118281000Y-74300000D01*
X118324520Y-74302138D01*
X118324520Y-74302138D01*
G37*
D11*
X117725000Y-75700000D03*
G04 #@! TD*
D10*
G04 #@! TO.C,D1*
G36*
X113824520Y-82202138D02*
X113867620Y-82208531D01*
X113909886Y-82219118D01*
X113950911Y-82233797D01*
X113990300Y-82252427D01*
X114027673Y-82274827D01*
X114062671Y-82300783D01*
X114094955Y-82330045D01*
X114124217Y-82362329D01*
X114150173Y-82397327D01*
X114172573Y-82434700D01*
X114191203Y-82474089D01*
X114205882Y-82515114D01*
X114216469Y-82557380D01*
X114222862Y-82600480D01*
X114225000Y-82644000D01*
X114225000Y-84556000D01*
X114222862Y-84599520D01*
X114216469Y-84642620D01*
X114205882Y-84684886D01*
X114191203Y-84725911D01*
X114172573Y-84765300D01*
X114150173Y-84802673D01*
X114124217Y-84837671D01*
X114094955Y-84869955D01*
X114062671Y-84899217D01*
X114027673Y-84925173D01*
X113990300Y-84947573D01*
X113950911Y-84966203D01*
X113909886Y-84980882D01*
X113867620Y-84991469D01*
X113824520Y-84997862D01*
X113781000Y-85000000D01*
X112669000Y-85000000D01*
X112625480Y-84997862D01*
X112582380Y-84991469D01*
X112540114Y-84980882D01*
X112499089Y-84966203D01*
X112459700Y-84947573D01*
X112422327Y-84925173D01*
X112387329Y-84899217D01*
X112355045Y-84869955D01*
X112325783Y-84837671D01*
X112299827Y-84802673D01*
X112277427Y-84765300D01*
X112258797Y-84725911D01*
X112244118Y-84684886D01*
X112233531Y-84642620D01*
X112227138Y-84599520D01*
X112225000Y-84556000D01*
X112225000Y-82644000D01*
X112227138Y-82600480D01*
X112233531Y-82557380D01*
X112244118Y-82515114D01*
X112258797Y-82474089D01*
X112277427Y-82434700D01*
X112299827Y-82397327D01*
X112325783Y-82362329D01*
X112355045Y-82330045D01*
X112387329Y-82300783D01*
X112422327Y-82274827D01*
X112459700Y-82252427D01*
X112499089Y-82233797D01*
X112540114Y-82219118D01*
X112582380Y-82208531D01*
X112625480Y-82202138D01*
X112669000Y-82200000D01*
X113781000Y-82200000D01*
X113824520Y-82202138D01*
X113824520Y-82202138D01*
G37*
D11*
X113225000Y-83600000D03*
D10*
G36*
X110974520Y-82202138D02*
X111017620Y-82208531D01*
X111059886Y-82219118D01*
X111100911Y-82233797D01*
X111140300Y-82252427D01*
X111177673Y-82274827D01*
X111212671Y-82300783D01*
X111244955Y-82330045D01*
X111274217Y-82362329D01*
X111300173Y-82397327D01*
X111322573Y-82434700D01*
X111341203Y-82474089D01*
X111355882Y-82515114D01*
X111366469Y-82557380D01*
X111372862Y-82600480D01*
X111375000Y-82644000D01*
X111375000Y-84556000D01*
X111372862Y-84599520D01*
X111366469Y-84642620D01*
X111355882Y-84684886D01*
X111341203Y-84725911D01*
X111322573Y-84765300D01*
X111300173Y-84802673D01*
X111274217Y-84837671D01*
X111244955Y-84869955D01*
X111212671Y-84899217D01*
X111177673Y-84925173D01*
X111140300Y-84947573D01*
X111100911Y-84966203D01*
X111059886Y-84980882D01*
X111017620Y-84991469D01*
X110974520Y-84997862D01*
X110931000Y-85000000D01*
X109819000Y-85000000D01*
X109775480Y-84997862D01*
X109732380Y-84991469D01*
X109690114Y-84980882D01*
X109649089Y-84966203D01*
X109609700Y-84947573D01*
X109572327Y-84925173D01*
X109537329Y-84899217D01*
X109505045Y-84869955D01*
X109475783Y-84837671D01*
X109449827Y-84802673D01*
X109427427Y-84765300D01*
X109408797Y-84725911D01*
X109394118Y-84684886D01*
X109383531Y-84642620D01*
X109377138Y-84599520D01*
X109375000Y-84556000D01*
X109375000Y-82644000D01*
X109377138Y-82600480D01*
X109383531Y-82557380D01*
X109394118Y-82515114D01*
X109408797Y-82474089D01*
X109427427Y-82434700D01*
X109449827Y-82397327D01*
X109475783Y-82362329D01*
X109505045Y-82330045D01*
X109537329Y-82300783D01*
X109572327Y-82274827D01*
X109609700Y-82252427D01*
X109649089Y-82233797D01*
X109690114Y-82219118D01*
X109732380Y-82208531D01*
X109775480Y-82202138D01*
X109819000Y-82200000D01*
X110931000Y-82200000D01*
X110974520Y-82202138D01*
X110974520Y-82202138D01*
G37*
D11*
X110375000Y-83600000D03*
G04 #@! TD*
D10*
G04 #@! TO.C,D6*
G36*
X101974520Y-82002138D02*
X102017620Y-82008531D01*
X102059886Y-82019118D01*
X102100911Y-82033797D01*
X102140300Y-82052427D01*
X102177673Y-82074827D01*
X102212671Y-82100783D01*
X102244955Y-82130045D01*
X102274217Y-82162329D01*
X102300173Y-82197327D01*
X102322573Y-82234700D01*
X102341203Y-82274089D01*
X102355882Y-82315114D01*
X102366469Y-82357380D01*
X102372862Y-82400480D01*
X102375000Y-82444000D01*
X102375000Y-84356000D01*
X102372862Y-84399520D01*
X102366469Y-84442620D01*
X102355882Y-84484886D01*
X102341203Y-84525911D01*
X102322573Y-84565300D01*
X102300173Y-84602673D01*
X102274217Y-84637671D01*
X102244955Y-84669955D01*
X102212671Y-84699217D01*
X102177673Y-84725173D01*
X102140300Y-84747573D01*
X102100911Y-84766203D01*
X102059886Y-84780882D01*
X102017620Y-84791469D01*
X101974520Y-84797862D01*
X101931000Y-84800000D01*
X100819000Y-84800000D01*
X100775480Y-84797862D01*
X100732380Y-84791469D01*
X100690114Y-84780882D01*
X100649089Y-84766203D01*
X100609700Y-84747573D01*
X100572327Y-84725173D01*
X100537329Y-84699217D01*
X100505045Y-84669955D01*
X100475783Y-84637671D01*
X100449827Y-84602673D01*
X100427427Y-84565300D01*
X100408797Y-84525911D01*
X100394118Y-84484886D01*
X100383531Y-84442620D01*
X100377138Y-84399520D01*
X100375000Y-84356000D01*
X100375000Y-82444000D01*
X100377138Y-82400480D01*
X100383531Y-82357380D01*
X100394118Y-82315114D01*
X100408797Y-82274089D01*
X100427427Y-82234700D01*
X100449827Y-82197327D01*
X100475783Y-82162329D01*
X100505045Y-82130045D01*
X100537329Y-82100783D01*
X100572327Y-82074827D01*
X100609700Y-82052427D01*
X100649089Y-82033797D01*
X100690114Y-82019118D01*
X100732380Y-82008531D01*
X100775480Y-82002138D01*
X100819000Y-82000000D01*
X101931000Y-82000000D01*
X101974520Y-82002138D01*
X101974520Y-82002138D01*
G37*
D11*
X101375000Y-83400000D03*
D10*
G36*
X104824520Y-82002138D02*
X104867620Y-82008531D01*
X104909886Y-82019118D01*
X104950911Y-82033797D01*
X104990300Y-82052427D01*
X105027673Y-82074827D01*
X105062671Y-82100783D01*
X105094955Y-82130045D01*
X105124217Y-82162329D01*
X105150173Y-82197327D01*
X105172573Y-82234700D01*
X105191203Y-82274089D01*
X105205882Y-82315114D01*
X105216469Y-82357380D01*
X105222862Y-82400480D01*
X105225000Y-82444000D01*
X105225000Y-84356000D01*
X105222862Y-84399520D01*
X105216469Y-84442620D01*
X105205882Y-84484886D01*
X105191203Y-84525911D01*
X105172573Y-84565300D01*
X105150173Y-84602673D01*
X105124217Y-84637671D01*
X105094955Y-84669955D01*
X105062671Y-84699217D01*
X105027673Y-84725173D01*
X104990300Y-84747573D01*
X104950911Y-84766203D01*
X104909886Y-84780882D01*
X104867620Y-84791469D01*
X104824520Y-84797862D01*
X104781000Y-84800000D01*
X103669000Y-84800000D01*
X103625480Y-84797862D01*
X103582380Y-84791469D01*
X103540114Y-84780882D01*
X103499089Y-84766203D01*
X103459700Y-84747573D01*
X103422327Y-84725173D01*
X103387329Y-84699217D01*
X103355045Y-84669955D01*
X103325783Y-84637671D01*
X103299827Y-84602673D01*
X103277427Y-84565300D01*
X103258797Y-84525911D01*
X103244118Y-84484886D01*
X103233531Y-84442620D01*
X103227138Y-84399520D01*
X103225000Y-84356000D01*
X103225000Y-82444000D01*
X103227138Y-82400480D01*
X103233531Y-82357380D01*
X103244118Y-82315114D01*
X103258797Y-82274089D01*
X103277427Y-82234700D01*
X103299827Y-82197327D01*
X103325783Y-82162329D01*
X103355045Y-82130045D01*
X103387329Y-82100783D01*
X103422327Y-82074827D01*
X103459700Y-82052427D01*
X103499089Y-82033797D01*
X103540114Y-82019118D01*
X103582380Y-82008531D01*
X103625480Y-82002138D01*
X103669000Y-82000000D01*
X104781000Y-82000000D01*
X104824520Y-82002138D01*
X104824520Y-82002138D01*
G37*
D11*
X104225000Y-83400000D03*
G04 #@! TD*
D10*
G04 #@! TO.C,D5*
G36*
X109324520Y-89902138D02*
X109367620Y-89908531D01*
X109409886Y-89919118D01*
X109450911Y-89933797D01*
X109490300Y-89952427D01*
X109527673Y-89974827D01*
X109562671Y-90000783D01*
X109594955Y-90030045D01*
X109624217Y-90062329D01*
X109650173Y-90097327D01*
X109672573Y-90134700D01*
X109691203Y-90174089D01*
X109705882Y-90215114D01*
X109716469Y-90257380D01*
X109722862Y-90300480D01*
X109725000Y-90344000D01*
X109725000Y-92256000D01*
X109722862Y-92299520D01*
X109716469Y-92342620D01*
X109705882Y-92384886D01*
X109691203Y-92425911D01*
X109672573Y-92465300D01*
X109650173Y-92502673D01*
X109624217Y-92537671D01*
X109594955Y-92569955D01*
X109562671Y-92599217D01*
X109527673Y-92625173D01*
X109490300Y-92647573D01*
X109450911Y-92666203D01*
X109409886Y-92680882D01*
X109367620Y-92691469D01*
X109324520Y-92697862D01*
X109281000Y-92700000D01*
X108169000Y-92700000D01*
X108125480Y-92697862D01*
X108082380Y-92691469D01*
X108040114Y-92680882D01*
X107999089Y-92666203D01*
X107959700Y-92647573D01*
X107922327Y-92625173D01*
X107887329Y-92599217D01*
X107855045Y-92569955D01*
X107825783Y-92537671D01*
X107799827Y-92502673D01*
X107777427Y-92465300D01*
X107758797Y-92425911D01*
X107744118Y-92384886D01*
X107733531Y-92342620D01*
X107727138Y-92299520D01*
X107725000Y-92256000D01*
X107725000Y-90344000D01*
X107727138Y-90300480D01*
X107733531Y-90257380D01*
X107744118Y-90215114D01*
X107758797Y-90174089D01*
X107777427Y-90134700D01*
X107799827Y-90097327D01*
X107825783Y-90062329D01*
X107855045Y-90030045D01*
X107887329Y-90000783D01*
X107922327Y-89974827D01*
X107959700Y-89952427D01*
X107999089Y-89933797D01*
X108040114Y-89919118D01*
X108082380Y-89908531D01*
X108125480Y-89902138D01*
X108169000Y-89900000D01*
X109281000Y-89900000D01*
X109324520Y-89902138D01*
X109324520Y-89902138D01*
G37*
D11*
X108725000Y-91300000D03*
D10*
G36*
X106474520Y-89902138D02*
X106517620Y-89908531D01*
X106559886Y-89919118D01*
X106600911Y-89933797D01*
X106640300Y-89952427D01*
X106677673Y-89974827D01*
X106712671Y-90000783D01*
X106744955Y-90030045D01*
X106774217Y-90062329D01*
X106800173Y-90097327D01*
X106822573Y-90134700D01*
X106841203Y-90174089D01*
X106855882Y-90215114D01*
X106866469Y-90257380D01*
X106872862Y-90300480D01*
X106875000Y-90344000D01*
X106875000Y-92256000D01*
X106872862Y-92299520D01*
X106866469Y-92342620D01*
X106855882Y-92384886D01*
X106841203Y-92425911D01*
X106822573Y-92465300D01*
X106800173Y-92502673D01*
X106774217Y-92537671D01*
X106744955Y-92569955D01*
X106712671Y-92599217D01*
X106677673Y-92625173D01*
X106640300Y-92647573D01*
X106600911Y-92666203D01*
X106559886Y-92680882D01*
X106517620Y-92691469D01*
X106474520Y-92697862D01*
X106431000Y-92700000D01*
X105319000Y-92700000D01*
X105275480Y-92697862D01*
X105232380Y-92691469D01*
X105190114Y-92680882D01*
X105149089Y-92666203D01*
X105109700Y-92647573D01*
X105072327Y-92625173D01*
X105037329Y-92599217D01*
X105005045Y-92569955D01*
X104975783Y-92537671D01*
X104949827Y-92502673D01*
X104927427Y-92465300D01*
X104908797Y-92425911D01*
X104894118Y-92384886D01*
X104883531Y-92342620D01*
X104877138Y-92299520D01*
X104875000Y-92256000D01*
X104875000Y-90344000D01*
X104877138Y-90300480D01*
X104883531Y-90257380D01*
X104894118Y-90215114D01*
X104908797Y-90174089D01*
X104927427Y-90134700D01*
X104949827Y-90097327D01*
X104975783Y-90062329D01*
X105005045Y-90030045D01*
X105037329Y-90000783D01*
X105072327Y-89974827D01*
X105109700Y-89952427D01*
X105149089Y-89933797D01*
X105190114Y-89919118D01*
X105232380Y-89908531D01*
X105275480Y-89902138D01*
X105319000Y-89900000D01*
X106431000Y-89900000D01*
X106474520Y-89902138D01*
X106474520Y-89902138D01*
G37*
D11*
X105875000Y-91300000D03*
G04 #@! TD*
D10*
G04 #@! TO.C,D4*
G36*
X115474520Y-89902138D02*
X115517620Y-89908531D01*
X115559886Y-89919118D01*
X115600911Y-89933797D01*
X115640300Y-89952427D01*
X115677673Y-89974827D01*
X115712671Y-90000783D01*
X115744955Y-90030045D01*
X115774217Y-90062329D01*
X115800173Y-90097327D01*
X115822573Y-90134700D01*
X115841203Y-90174089D01*
X115855882Y-90215114D01*
X115866469Y-90257380D01*
X115872862Y-90300480D01*
X115875000Y-90344000D01*
X115875000Y-92256000D01*
X115872862Y-92299520D01*
X115866469Y-92342620D01*
X115855882Y-92384886D01*
X115841203Y-92425911D01*
X115822573Y-92465300D01*
X115800173Y-92502673D01*
X115774217Y-92537671D01*
X115744955Y-92569955D01*
X115712671Y-92599217D01*
X115677673Y-92625173D01*
X115640300Y-92647573D01*
X115600911Y-92666203D01*
X115559886Y-92680882D01*
X115517620Y-92691469D01*
X115474520Y-92697862D01*
X115431000Y-92700000D01*
X114319000Y-92700000D01*
X114275480Y-92697862D01*
X114232380Y-92691469D01*
X114190114Y-92680882D01*
X114149089Y-92666203D01*
X114109700Y-92647573D01*
X114072327Y-92625173D01*
X114037329Y-92599217D01*
X114005045Y-92569955D01*
X113975783Y-92537671D01*
X113949827Y-92502673D01*
X113927427Y-92465300D01*
X113908797Y-92425911D01*
X113894118Y-92384886D01*
X113883531Y-92342620D01*
X113877138Y-92299520D01*
X113875000Y-92256000D01*
X113875000Y-90344000D01*
X113877138Y-90300480D01*
X113883531Y-90257380D01*
X113894118Y-90215114D01*
X113908797Y-90174089D01*
X113927427Y-90134700D01*
X113949827Y-90097327D01*
X113975783Y-90062329D01*
X114005045Y-90030045D01*
X114037329Y-90000783D01*
X114072327Y-89974827D01*
X114109700Y-89952427D01*
X114149089Y-89933797D01*
X114190114Y-89919118D01*
X114232380Y-89908531D01*
X114275480Y-89902138D01*
X114319000Y-89900000D01*
X115431000Y-89900000D01*
X115474520Y-89902138D01*
X115474520Y-89902138D01*
G37*
D11*
X114875000Y-91300000D03*
D10*
G36*
X118324520Y-89902138D02*
X118367620Y-89908531D01*
X118409886Y-89919118D01*
X118450911Y-89933797D01*
X118490300Y-89952427D01*
X118527673Y-89974827D01*
X118562671Y-90000783D01*
X118594955Y-90030045D01*
X118624217Y-90062329D01*
X118650173Y-90097327D01*
X118672573Y-90134700D01*
X118691203Y-90174089D01*
X118705882Y-90215114D01*
X118716469Y-90257380D01*
X118722862Y-90300480D01*
X118725000Y-90344000D01*
X118725000Y-92256000D01*
X118722862Y-92299520D01*
X118716469Y-92342620D01*
X118705882Y-92384886D01*
X118691203Y-92425911D01*
X118672573Y-92465300D01*
X118650173Y-92502673D01*
X118624217Y-92537671D01*
X118594955Y-92569955D01*
X118562671Y-92599217D01*
X118527673Y-92625173D01*
X118490300Y-92647573D01*
X118450911Y-92666203D01*
X118409886Y-92680882D01*
X118367620Y-92691469D01*
X118324520Y-92697862D01*
X118281000Y-92700000D01*
X117169000Y-92700000D01*
X117125480Y-92697862D01*
X117082380Y-92691469D01*
X117040114Y-92680882D01*
X116999089Y-92666203D01*
X116959700Y-92647573D01*
X116922327Y-92625173D01*
X116887329Y-92599217D01*
X116855045Y-92569955D01*
X116825783Y-92537671D01*
X116799827Y-92502673D01*
X116777427Y-92465300D01*
X116758797Y-92425911D01*
X116744118Y-92384886D01*
X116733531Y-92342620D01*
X116727138Y-92299520D01*
X116725000Y-92256000D01*
X116725000Y-90344000D01*
X116727138Y-90300480D01*
X116733531Y-90257380D01*
X116744118Y-90215114D01*
X116758797Y-90174089D01*
X116777427Y-90134700D01*
X116799827Y-90097327D01*
X116825783Y-90062329D01*
X116855045Y-90030045D01*
X116887329Y-90000783D01*
X116922327Y-89974827D01*
X116959700Y-89952427D01*
X116999089Y-89933797D01*
X117040114Y-89919118D01*
X117082380Y-89908531D01*
X117125480Y-89902138D01*
X117169000Y-89900000D01*
X118281000Y-89900000D01*
X118324520Y-89902138D01*
X118324520Y-89902138D01*
G37*
D11*
X117725000Y-91300000D03*
G04 #@! TD*
D10*
G04 #@! TO.C,D3*
G36*
X122824520Y-82102138D02*
X122867620Y-82108531D01*
X122909886Y-82119118D01*
X122950911Y-82133797D01*
X122990300Y-82152427D01*
X123027673Y-82174827D01*
X123062671Y-82200783D01*
X123094955Y-82230045D01*
X123124217Y-82262329D01*
X123150173Y-82297327D01*
X123172573Y-82334700D01*
X123191203Y-82374089D01*
X123205882Y-82415114D01*
X123216469Y-82457380D01*
X123222862Y-82500480D01*
X123225000Y-82544000D01*
X123225000Y-84456000D01*
X123222862Y-84499520D01*
X123216469Y-84542620D01*
X123205882Y-84584886D01*
X123191203Y-84625911D01*
X123172573Y-84665300D01*
X123150173Y-84702673D01*
X123124217Y-84737671D01*
X123094955Y-84769955D01*
X123062671Y-84799217D01*
X123027673Y-84825173D01*
X122990300Y-84847573D01*
X122950911Y-84866203D01*
X122909886Y-84880882D01*
X122867620Y-84891469D01*
X122824520Y-84897862D01*
X122781000Y-84900000D01*
X121669000Y-84900000D01*
X121625480Y-84897862D01*
X121582380Y-84891469D01*
X121540114Y-84880882D01*
X121499089Y-84866203D01*
X121459700Y-84847573D01*
X121422327Y-84825173D01*
X121387329Y-84799217D01*
X121355045Y-84769955D01*
X121325783Y-84737671D01*
X121299827Y-84702673D01*
X121277427Y-84665300D01*
X121258797Y-84625911D01*
X121244118Y-84584886D01*
X121233531Y-84542620D01*
X121227138Y-84499520D01*
X121225000Y-84456000D01*
X121225000Y-82544000D01*
X121227138Y-82500480D01*
X121233531Y-82457380D01*
X121244118Y-82415114D01*
X121258797Y-82374089D01*
X121277427Y-82334700D01*
X121299827Y-82297327D01*
X121325783Y-82262329D01*
X121355045Y-82230045D01*
X121387329Y-82200783D01*
X121422327Y-82174827D01*
X121459700Y-82152427D01*
X121499089Y-82133797D01*
X121540114Y-82119118D01*
X121582380Y-82108531D01*
X121625480Y-82102138D01*
X121669000Y-82100000D01*
X122781000Y-82100000D01*
X122824520Y-82102138D01*
X122824520Y-82102138D01*
G37*
D11*
X122225000Y-83500000D03*
D10*
G36*
X119974520Y-82102138D02*
X120017620Y-82108531D01*
X120059886Y-82119118D01*
X120100911Y-82133797D01*
X120140300Y-82152427D01*
X120177673Y-82174827D01*
X120212671Y-82200783D01*
X120244955Y-82230045D01*
X120274217Y-82262329D01*
X120300173Y-82297327D01*
X120322573Y-82334700D01*
X120341203Y-82374089D01*
X120355882Y-82415114D01*
X120366469Y-82457380D01*
X120372862Y-82500480D01*
X120375000Y-82544000D01*
X120375000Y-84456000D01*
X120372862Y-84499520D01*
X120366469Y-84542620D01*
X120355882Y-84584886D01*
X120341203Y-84625911D01*
X120322573Y-84665300D01*
X120300173Y-84702673D01*
X120274217Y-84737671D01*
X120244955Y-84769955D01*
X120212671Y-84799217D01*
X120177673Y-84825173D01*
X120140300Y-84847573D01*
X120100911Y-84866203D01*
X120059886Y-84880882D01*
X120017620Y-84891469D01*
X119974520Y-84897862D01*
X119931000Y-84900000D01*
X118819000Y-84900000D01*
X118775480Y-84897862D01*
X118732380Y-84891469D01*
X118690114Y-84880882D01*
X118649089Y-84866203D01*
X118609700Y-84847573D01*
X118572327Y-84825173D01*
X118537329Y-84799217D01*
X118505045Y-84769955D01*
X118475783Y-84737671D01*
X118449827Y-84702673D01*
X118427427Y-84665300D01*
X118408797Y-84625911D01*
X118394118Y-84584886D01*
X118383531Y-84542620D01*
X118377138Y-84499520D01*
X118375000Y-84456000D01*
X118375000Y-82544000D01*
X118377138Y-82500480D01*
X118383531Y-82457380D01*
X118394118Y-82415114D01*
X118408797Y-82374089D01*
X118427427Y-82334700D01*
X118449827Y-82297327D01*
X118475783Y-82262329D01*
X118505045Y-82230045D01*
X118537329Y-82200783D01*
X118572327Y-82174827D01*
X118609700Y-82152427D01*
X118649089Y-82133797D01*
X118690114Y-82119118D01*
X118732380Y-82108531D01*
X118775480Y-82102138D01*
X118819000Y-82100000D01*
X119931000Y-82100000D01*
X119974520Y-82102138D01*
X119974520Y-82102138D01*
G37*
D11*
X119375000Y-83500000D03*
G04 #@! TD*
D10*
G04 #@! TO.C,D7*
G36*
X106474520Y-74302138D02*
X106517620Y-74308531D01*
X106559886Y-74319118D01*
X106600911Y-74333797D01*
X106640300Y-74352427D01*
X106677673Y-74374827D01*
X106712671Y-74400783D01*
X106744955Y-74430045D01*
X106774217Y-74462329D01*
X106800173Y-74497327D01*
X106822573Y-74534700D01*
X106841203Y-74574089D01*
X106855882Y-74615114D01*
X106866469Y-74657380D01*
X106872862Y-74700480D01*
X106875000Y-74744000D01*
X106875000Y-76656000D01*
X106872862Y-76699520D01*
X106866469Y-76742620D01*
X106855882Y-76784886D01*
X106841203Y-76825911D01*
X106822573Y-76865300D01*
X106800173Y-76902673D01*
X106774217Y-76937671D01*
X106744955Y-76969955D01*
X106712671Y-76999217D01*
X106677673Y-77025173D01*
X106640300Y-77047573D01*
X106600911Y-77066203D01*
X106559886Y-77080882D01*
X106517620Y-77091469D01*
X106474520Y-77097862D01*
X106431000Y-77100000D01*
X105319000Y-77100000D01*
X105275480Y-77097862D01*
X105232380Y-77091469D01*
X105190114Y-77080882D01*
X105149089Y-77066203D01*
X105109700Y-77047573D01*
X105072327Y-77025173D01*
X105037329Y-76999217D01*
X105005045Y-76969955D01*
X104975783Y-76937671D01*
X104949827Y-76902673D01*
X104927427Y-76865300D01*
X104908797Y-76825911D01*
X104894118Y-76784886D01*
X104883531Y-76742620D01*
X104877138Y-76699520D01*
X104875000Y-76656000D01*
X104875000Y-74744000D01*
X104877138Y-74700480D01*
X104883531Y-74657380D01*
X104894118Y-74615114D01*
X104908797Y-74574089D01*
X104927427Y-74534700D01*
X104949827Y-74497327D01*
X104975783Y-74462329D01*
X105005045Y-74430045D01*
X105037329Y-74400783D01*
X105072327Y-74374827D01*
X105109700Y-74352427D01*
X105149089Y-74333797D01*
X105190114Y-74319118D01*
X105232380Y-74308531D01*
X105275480Y-74302138D01*
X105319000Y-74300000D01*
X106431000Y-74300000D01*
X106474520Y-74302138D01*
X106474520Y-74302138D01*
G37*
D11*
X105875000Y-75700000D03*
D10*
G36*
X109324520Y-74302138D02*
X109367620Y-74308531D01*
X109409886Y-74319118D01*
X109450911Y-74333797D01*
X109490300Y-74352427D01*
X109527673Y-74374827D01*
X109562671Y-74400783D01*
X109594955Y-74430045D01*
X109624217Y-74462329D01*
X109650173Y-74497327D01*
X109672573Y-74534700D01*
X109691203Y-74574089D01*
X109705882Y-74615114D01*
X109716469Y-74657380D01*
X109722862Y-74700480D01*
X109725000Y-74744000D01*
X109725000Y-76656000D01*
X109722862Y-76699520D01*
X109716469Y-76742620D01*
X109705882Y-76784886D01*
X109691203Y-76825911D01*
X109672573Y-76865300D01*
X109650173Y-76902673D01*
X109624217Y-76937671D01*
X109594955Y-76969955D01*
X109562671Y-76999217D01*
X109527673Y-77025173D01*
X109490300Y-77047573D01*
X109450911Y-77066203D01*
X109409886Y-77080882D01*
X109367620Y-77091469D01*
X109324520Y-77097862D01*
X109281000Y-77100000D01*
X108169000Y-77100000D01*
X108125480Y-77097862D01*
X108082380Y-77091469D01*
X108040114Y-77080882D01*
X107999089Y-77066203D01*
X107959700Y-77047573D01*
X107922327Y-77025173D01*
X107887329Y-76999217D01*
X107855045Y-76969955D01*
X107825783Y-76937671D01*
X107799827Y-76902673D01*
X107777427Y-76865300D01*
X107758797Y-76825911D01*
X107744118Y-76784886D01*
X107733531Y-76742620D01*
X107727138Y-76699520D01*
X107725000Y-76656000D01*
X107725000Y-74744000D01*
X107727138Y-74700480D01*
X107733531Y-74657380D01*
X107744118Y-74615114D01*
X107758797Y-74574089D01*
X107777427Y-74534700D01*
X107799827Y-74497327D01*
X107825783Y-74462329D01*
X107855045Y-74430045D01*
X107887329Y-74400783D01*
X107922327Y-74374827D01*
X107959700Y-74352427D01*
X107999089Y-74333797D01*
X108040114Y-74319118D01*
X108082380Y-74308531D01*
X108125480Y-74302138D01*
X108169000Y-74300000D01*
X109281000Y-74300000D01*
X109324520Y-74302138D01*
X109324520Y-74302138D01*
G37*
D11*
X108725000Y-75700000D03*
G04 #@! TD*
D10*
G04 #@! TO.C,C4*
G36*
X113439943Y-60901655D02*
X113473312Y-60906605D01*
X113506035Y-60914802D01*
X113537797Y-60926166D01*
X113568293Y-60940590D01*
X113597227Y-60957932D01*
X113624323Y-60978028D01*
X113649318Y-61000682D01*
X113671972Y-61025677D01*
X113692068Y-61052773D01*
X113709410Y-61081707D01*
X113723834Y-61112203D01*
X113735198Y-61143965D01*
X113743395Y-61176688D01*
X113748345Y-61210057D01*
X113750000Y-61243750D01*
X113750000Y-62356250D01*
X113748345Y-62389943D01*
X113743395Y-62423312D01*
X113735198Y-62456035D01*
X113723834Y-62487797D01*
X113709410Y-62518293D01*
X113692068Y-62547227D01*
X113671972Y-62574323D01*
X113649318Y-62599318D01*
X113624323Y-62621972D01*
X113597227Y-62642068D01*
X113568293Y-62659410D01*
X113537797Y-62673834D01*
X113506035Y-62685198D01*
X113473312Y-62693395D01*
X113439943Y-62698345D01*
X113406250Y-62700000D01*
X112718750Y-62700000D01*
X112685057Y-62698345D01*
X112651688Y-62693395D01*
X112618965Y-62685198D01*
X112587203Y-62673834D01*
X112556707Y-62659410D01*
X112527773Y-62642068D01*
X112500677Y-62621972D01*
X112475682Y-62599318D01*
X112453028Y-62574323D01*
X112432932Y-62547227D01*
X112415590Y-62518293D01*
X112401166Y-62487797D01*
X112389802Y-62456035D01*
X112381605Y-62423312D01*
X112376655Y-62389943D01*
X112375000Y-62356250D01*
X112375000Y-61243750D01*
X112376655Y-61210057D01*
X112381605Y-61176688D01*
X112389802Y-61143965D01*
X112401166Y-61112203D01*
X112415590Y-61081707D01*
X112432932Y-61052773D01*
X112453028Y-61025677D01*
X112475682Y-61000682D01*
X112500677Y-60978028D01*
X112527773Y-60957932D01*
X112556707Y-60940590D01*
X112587203Y-60926166D01*
X112618965Y-60914802D01*
X112651688Y-60906605D01*
X112685057Y-60901655D01*
X112718750Y-60900000D01*
X113406250Y-60900000D01*
X113439943Y-60901655D01*
X113439943Y-60901655D01*
G37*
D12*
X113062500Y-61800000D03*
D10*
G36*
X115314943Y-60901655D02*
X115348312Y-60906605D01*
X115381035Y-60914802D01*
X115412797Y-60926166D01*
X115443293Y-60940590D01*
X115472227Y-60957932D01*
X115499323Y-60978028D01*
X115524318Y-61000682D01*
X115546972Y-61025677D01*
X115567068Y-61052773D01*
X115584410Y-61081707D01*
X115598834Y-61112203D01*
X115610198Y-61143965D01*
X115618395Y-61176688D01*
X115623345Y-61210057D01*
X115625000Y-61243750D01*
X115625000Y-62356250D01*
X115623345Y-62389943D01*
X115618395Y-62423312D01*
X115610198Y-62456035D01*
X115598834Y-62487797D01*
X115584410Y-62518293D01*
X115567068Y-62547227D01*
X115546972Y-62574323D01*
X115524318Y-62599318D01*
X115499323Y-62621972D01*
X115472227Y-62642068D01*
X115443293Y-62659410D01*
X115412797Y-62673834D01*
X115381035Y-62685198D01*
X115348312Y-62693395D01*
X115314943Y-62698345D01*
X115281250Y-62700000D01*
X114593750Y-62700000D01*
X114560057Y-62698345D01*
X114526688Y-62693395D01*
X114493965Y-62685198D01*
X114462203Y-62673834D01*
X114431707Y-62659410D01*
X114402773Y-62642068D01*
X114375677Y-62621972D01*
X114350682Y-62599318D01*
X114328028Y-62574323D01*
X114307932Y-62547227D01*
X114290590Y-62518293D01*
X114276166Y-62487797D01*
X114264802Y-62456035D01*
X114256605Y-62423312D01*
X114251655Y-62389943D01*
X114250000Y-62356250D01*
X114250000Y-61243750D01*
X114251655Y-61210057D01*
X114256605Y-61176688D01*
X114264802Y-61143965D01*
X114276166Y-61112203D01*
X114290590Y-61081707D01*
X114307932Y-61052773D01*
X114328028Y-61025677D01*
X114350682Y-61000682D01*
X114375677Y-60978028D01*
X114402773Y-60957932D01*
X114431707Y-60940590D01*
X114462203Y-60926166D01*
X114493965Y-60914802D01*
X114526688Y-60906605D01*
X114560057Y-60901655D01*
X114593750Y-60900000D01*
X115281250Y-60900000D01*
X115314943Y-60901655D01*
X115314943Y-60901655D01*
G37*
D12*
X114937500Y-61800000D03*
G04 #@! TD*
D13*
G04 #@! TO.C,J1*
X107250000Y-57100000D03*
X116150000Y-57100000D03*
D14*
X108950000Y-58300000D03*
X109450000Y-55900000D03*
X109950000Y-58300000D03*
X110450000Y-55900000D03*
X110950000Y-58300000D03*
X111450000Y-55900000D03*
X111950000Y-58300000D03*
X112450000Y-55900000D03*
X112950000Y-58300000D03*
X113450000Y-55900000D03*
X113950000Y-58300000D03*
X114450000Y-55900000D03*
G04 #@! TD*
D15*
G04 #@! TO.C,Q1*
X115700000Y-101700000D03*
X114750000Y-99700000D03*
X116650000Y-99700000D03*
G04 #@! TD*
G04 #@! TO.C,Q2*
X108450000Y-99600000D03*
X106550000Y-99600000D03*
X107500000Y-101600000D03*
G04 #@! TD*
D10*
G04 #@! TO.C,R1*
G36*
X113114943Y-85301655D02*
X113148312Y-85306605D01*
X113181035Y-85314802D01*
X113212797Y-85326166D01*
X113243293Y-85340590D01*
X113272227Y-85357932D01*
X113299323Y-85378028D01*
X113324318Y-85400682D01*
X113346972Y-85425677D01*
X113367068Y-85452773D01*
X113384410Y-85481707D01*
X113398834Y-85512203D01*
X113410198Y-85543965D01*
X113418395Y-85576688D01*
X113423345Y-85610057D01*
X113425000Y-85643750D01*
X113425000Y-86756250D01*
X113423345Y-86789943D01*
X113418395Y-86823312D01*
X113410198Y-86856035D01*
X113398834Y-86887797D01*
X113384410Y-86918293D01*
X113367068Y-86947227D01*
X113346972Y-86974323D01*
X113324318Y-86999318D01*
X113299323Y-87021972D01*
X113272227Y-87042068D01*
X113243293Y-87059410D01*
X113212797Y-87073834D01*
X113181035Y-87085198D01*
X113148312Y-87093395D01*
X113114943Y-87098345D01*
X113081250Y-87100000D01*
X112393750Y-87100000D01*
X112360057Y-87098345D01*
X112326688Y-87093395D01*
X112293965Y-87085198D01*
X112262203Y-87073834D01*
X112231707Y-87059410D01*
X112202773Y-87042068D01*
X112175677Y-87021972D01*
X112150682Y-86999318D01*
X112128028Y-86974323D01*
X112107932Y-86947227D01*
X112090590Y-86918293D01*
X112076166Y-86887797D01*
X112064802Y-86856035D01*
X112056605Y-86823312D01*
X112051655Y-86789943D01*
X112050000Y-86756250D01*
X112050000Y-85643750D01*
X112051655Y-85610057D01*
X112056605Y-85576688D01*
X112064802Y-85543965D01*
X112076166Y-85512203D01*
X112090590Y-85481707D01*
X112107932Y-85452773D01*
X112128028Y-85425677D01*
X112150682Y-85400682D01*
X112175677Y-85378028D01*
X112202773Y-85357932D01*
X112231707Y-85340590D01*
X112262203Y-85326166D01*
X112293965Y-85314802D01*
X112326688Y-85306605D01*
X112360057Y-85301655D01*
X112393750Y-85300000D01*
X113081250Y-85300000D01*
X113114943Y-85301655D01*
X113114943Y-85301655D01*
G37*
D12*
X112737500Y-86200000D03*
D10*
G36*
X111239943Y-85301655D02*
X111273312Y-85306605D01*
X111306035Y-85314802D01*
X111337797Y-85326166D01*
X111368293Y-85340590D01*
X111397227Y-85357932D01*
X111424323Y-85378028D01*
X111449318Y-85400682D01*
X111471972Y-85425677D01*
X111492068Y-85452773D01*
X111509410Y-85481707D01*
X111523834Y-85512203D01*
X111535198Y-85543965D01*
X111543395Y-85576688D01*
X111548345Y-85610057D01*
X111550000Y-85643750D01*
X111550000Y-86756250D01*
X111548345Y-86789943D01*
X111543395Y-86823312D01*
X111535198Y-86856035D01*
X111523834Y-86887797D01*
X111509410Y-86918293D01*
X111492068Y-86947227D01*
X111471972Y-86974323D01*
X111449318Y-86999318D01*
X111424323Y-87021972D01*
X111397227Y-87042068D01*
X111368293Y-87059410D01*
X111337797Y-87073834D01*
X111306035Y-87085198D01*
X111273312Y-87093395D01*
X111239943Y-87098345D01*
X111206250Y-87100000D01*
X110518750Y-87100000D01*
X110485057Y-87098345D01*
X110451688Y-87093395D01*
X110418965Y-87085198D01*
X110387203Y-87073834D01*
X110356707Y-87059410D01*
X110327773Y-87042068D01*
X110300677Y-87021972D01*
X110275682Y-86999318D01*
X110253028Y-86974323D01*
X110232932Y-86947227D01*
X110215590Y-86918293D01*
X110201166Y-86887797D01*
X110189802Y-86856035D01*
X110181605Y-86823312D01*
X110176655Y-86789943D01*
X110175000Y-86756250D01*
X110175000Y-85643750D01*
X110176655Y-85610057D01*
X110181605Y-85576688D01*
X110189802Y-85543965D01*
X110201166Y-85512203D01*
X110215590Y-85481707D01*
X110232932Y-85452773D01*
X110253028Y-85425677D01*
X110275682Y-85400682D01*
X110300677Y-85378028D01*
X110327773Y-85357932D01*
X110356707Y-85340590D01*
X110387203Y-85326166D01*
X110418965Y-85314802D01*
X110451688Y-85306605D01*
X110485057Y-85301655D01*
X110518750Y-85300000D01*
X111206250Y-85300000D01*
X111239943Y-85301655D01*
X111239943Y-85301655D01*
G37*
D12*
X110862500Y-86200000D03*
G04 #@! TD*
D10*
G04 #@! TO.C,R2*
G36*
X117614943Y-77651655D02*
X117648312Y-77656605D01*
X117681035Y-77664802D01*
X117712797Y-77676166D01*
X117743293Y-77690590D01*
X117772227Y-77707932D01*
X117799323Y-77728028D01*
X117824318Y-77750682D01*
X117846972Y-77775677D01*
X117867068Y-77802773D01*
X117884410Y-77831707D01*
X117898834Y-77862203D01*
X117910198Y-77893965D01*
X117918395Y-77926688D01*
X117923345Y-77960057D01*
X117925000Y-77993750D01*
X117925000Y-79106250D01*
X117923345Y-79139943D01*
X117918395Y-79173312D01*
X117910198Y-79206035D01*
X117898834Y-79237797D01*
X117884410Y-79268293D01*
X117867068Y-79297227D01*
X117846972Y-79324323D01*
X117824318Y-79349318D01*
X117799323Y-79371972D01*
X117772227Y-79392068D01*
X117743293Y-79409410D01*
X117712797Y-79423834D01*
X117681035Y-79435198D01*
X117648312Y-79443395D01*
X117614943Y-79448345D01*
X117581250Y-79450000D01*
X116893750Y-79450000D01*
X116860057Y-79448345D01*
X116826688Y-79443395D01*
X116793965Y-79435198D01*
X116762203Y-79423834D01*
X116731707Y-79409410D01*
X116702773Y-79392068D01*
X116675677Y-79371972D01*
X116650682Y-79349318D01*
X116628028Y-79324323D01*
X116607932Y-79297227D01*
X116590590Y-79268293D01*
X116576166Y-79237797D01*
X116564802Y-79206035D01*
X116556605Y-79173312D01*
X116551655Y-79139943D01*
X116550000Y-79106250D01*
X116550000Y-77993750D01*
X116551655Y-77960057D01*
X116556605Y-77926688D01*
X116564802Y-77893965D01*
X116576166Y-77862203D01*
X116590590Y-77831707D01*
X116607932Y-77802773D01*
X116628028Y-77775677D01*
X116650682Y-77750682D01*
X116675677Y-77728028D01*
X116702773Y-77707932D01*
X116731707Y-77690590D01*
X116762203Y-77676166D01*
X116793965Y-77664802D01*
X116826688Y-77656605D01*
X116860057Y-77651655D01*
X116893750Y-77650000D01*
X117581250Y-77650000D01*
X117614943Y-77651655D01*
X117614943Y-77651655D01*
G37*
D12*
X117237500Y-78550000D03*
D10*
G36*
X115739943Y-77651655D02*
X115773312Y-77656605D01*
X115806035Y-77664802D01*
X115837797Y-77676166D01*
X115868293Y-77690590D01*
X115897227Y-77707932D01*
X115924323Y-77728028D01*
X115949318Y-77750682D01*
X115971972Y-77775677D01*
X115992068Y-77802773D01*
X116009410Y-77831707D01*
X116023834Y-77862203D01*
X116035198Y-77893965D01*
X116043395Y-77926688D01*
X116048345Y-77960057D01*
X116050000Y-77993750D01*
X116050000Y-79106250D01*
X116048345Y-79139943D01*
X116043395Y-79173312D01*
X116035198Y-79206035D01*
X116023834Y-79237797D01*
X116009410Y-79268293D01*
X115992068Y-79297227D01*
X115971972Y-79324323D01*
X115949318Y-79349318D01*
X115924323Y-79371972D01*
X115897227Y-79392068D01*
X115868293Y-79409410D01*
X115837797Y-79423834D01*
X115806035Y-79435198D01*
X115773312Y-79443395D01*
X115739943Y-79448345D01*
X115706250Y-79450000D01*
X115018750Y-79450000D01*
X114985057Y-79448345D01*
X114951688Y-79443395D01*
X114918965Y-79435198D01*
X114887203Y-79423834D01*
X114856707Y-79409410D01*
X114827773Y-79392068D01*
X114800677Y-79371972D01*
X114775682Y-79349318D01*
X114753028Y-79324323D01*
X114732932Y-79297227D01*
X114715590Y-79268293D01*
X114701166Y-79237797D01*
X114689802Y-79206035D01*
X114681605Y-79173312D01*
X114676655Y-79139943D01*
X114675000Y-79106250D01*
X114675000Y-77993750D01*
X114676655Y-77960057D01*
X114681605Y-77926688D01*
X114689802Y-77893965D01*
X114701166Y-77862203D01*
X114715590Y-77831707D01*
X114732932Y-77802773D01*
X114753028Y-77775677D01*
X114775682Y-77750682D01*
X114800677Y-77728028D01*
X114827773Y-77707932D01*
X114856707Y-77690590D01*
X114887203Y-77676166D01*
X114918965Y-77664802D01*
X114951688Y-77656605D01*
X114985057Y-77651655D01*
X115018750Y-77650000D01*
X115706250Y-77650000D01*
X115739943Y-77651655D01*
X115739943Y-77651655D01*
G37*
D12*
X115362500Y-78550000D03*
G04 #@! TD*
D10*
G04 #@! TO.C,R3*
G36*
X120239943Y-85351655D02*
X120273312Y-85356605D01*
X120306035Y-85364802D01*
X120337797Y-85376166D01*
X120368293Y-85390590D01*
X120397227Y-85407932D01*
X120424323Y-85428028D01*
X120449318Y-85450682D01*
X120471972Y-85475677D01*
X120492068Y-85502773D01*
X120509410Y-85531707D01*
X120523834Y-85562203D01*
X120535198Y-85593965D01*
X120543395Y-85626688D01*
X120548345Y-85660057D01*
X120550000Y-85693750D01*
X120550000Y-86806250D01*
X120548345Y-86839943D01*
X120543395Y-86873312D01*
X120535198Y-86906035D01*
X120523834Y-86937797D01*
X120509410Y-86968293D01*
X120492068Y-86997227D01*
X120471972Y-87024323D01*
X120449318Y-87049318D01*
X120424323Y-87071972D01*
X120397227Y-87092068D01*
X120368293Y-87109410D01*
X120337797Y-87123834D01*
X120306035Y-87135198D01*
X120273312Y-87143395D01*
X120239943Y-87148345D01*
X120206250Y-87150000D01*
X119518750Y-87150000D01*
X119485057Y-87148345D01*
X119451688Y-87143395D01*
X119418965Y-87135198D01*
X119387203Y-87123834D01*
X119356707Y-87109410D01*
X119327773Y-87092068D01*
X119300677Y-87071972D01*
X119275682Y-87049318D01*
X119253028Y-87024323D01*
X119232932Y-86997227D01*
X119215590Y-86968293D01*
X119201166Y-86937797D01*
X119189802Y-86906035D01*
X119181605Y-86873312D01*
X119176655Y-86839943D01*
X119175000Y-86806250D01*
X119175000Y-85693750D01*
X119176655Y-85660057D01*
X119181605Y-85626688D01*
X119189802Y-85593965D01*
X119201166Y-85562203D01*
X119215590Y-85531707D01*
X119232932Y-85502773D01*
X119253028Y-85475677D01*
X119275682Y-85450682D01*
X119300677Y-85428028D01*
X119327773Y-85407932D01*
X119356707Y-85390590D01*
X119387203Y-85376166D01*
X119418965Y-85364802D01*
X119451688Y-85356605D01*
X119485057Y-85351655D01*
X119518750Y-85350000D01*
X120206250Y-85350000D01*
X120239943Y-85351655D01*
X120239943Y-85351655D01*
G37*
D12*
X119862500Y-86250000D03*
D10*
G36*
X122114943Y-85351655D02*
X122148312Y-85356605D01*
X122181035Y-85364802D01*
X122212797Y-85376166D01*
X122243293Y-85390590D01*
X122272227Y-85407932D01*
X122299323Y-85428028D01*
X122324318Y-85450682D01*
X122346972Y-85475677D01*
X122367068Y-85502773D01*
X122384410Y-85531707D01*
X122398834Y-85562203D01*
X122410198Y-85593965D01*
X122418395Y-85626688D01*
X122423345Y-85660057D01*
X122425000Y-85693750D01*
X122425000Y-86806250D01*
X122423345Y-86839943D01*
X122418395Y-86873312D01*
X122410198Y-86906035D01*
X122398834Y-86937797D01*
X122384410Y-86968293D01*
X122367068Y-86997227D01*
X122346972Y-87024323D01*
X122324318Y-87049318D01*
X122299323Y-87071972D01*
X122272227Y-87092068D01*
X122243293Y-87109410D01*
X122212797Y-87123834D01*
X122181035Y-87135198D01*
X122148312Y-87143395D01*
X122114943Y-87148345D01*
X122081250Y-87150000D01*
X121393750Y-87150000D01*
X121360057Y-87148345D01*
X121326688Y-87143395D01*
X121293965Y-87135198D01*
X121262203Y-87123834D01*
X121231707Y-87109410D01*
X121202773Y-87092068D01*
X121175677Y-87071972D01*
X121150682Y-87049318D01*
X121128028Y-87024323D01*
X121107932Y-86997227D01*
X121090590Y-86968293D01*
X121076166Y-86937797D01*
X121064802Y-86906035D01*
X121056605Y-86873312D01*
X121051655Y-86839943D01*
X121050000Y-86806250D01*
X121050000Y-85693750D01*
X121051655Y-85660057D01*
X121056605Y-85626688D01*
X121064802Y-85593965D01*
X121076166Y-85562203D01*
X121090590Y-85531707D01*
X121107932Y-85502773D01*
X121128028Y-85475677D01*
X121150682Y-85450682D01*
X121175677Y-85428028D01*
X121202773Y-85407932D01*
X121231707Y-85390590D01*
X121262203Y-85376166D01*
X121293965Y-85364802D01*
X121326688Y-85356605D01*
X121360057Y-85351655D01*
X121393750Y-85350000D01*
X122081250Y-85350000D01*
X122114943Y-85351655D01*
X122114943Y-85351655D01*
G37*
D12*
X121737500Y-86250000D03*
G04 #@! TD*
D10*
G04 #@! TO.C,R4*
G36*
X115639943Y-93051655D02*
X115673312Y-93056605D01*
X115706035Y-93064802D01*
X115737797Y-93076166D01*
X115768293Y-93090590D01*
X115797227Y-93107932D01*
X115824323Y-93128028D01*
X115849318Y-93150682D01*
X115871972Y-93175677D01*
X115892068Y-93202773D01*
X115909410Y-93231707D01*
X115923834Y-93262203D01*
X115935198Y-93293965D01*
X115943395Y-93326688D01*
X115948345Y-93360057D01*
X115950000Y-93393750D01*
X115950000Y-94506250D01*
X115948345Y-94539943D01*
X115943395Y-94573312D01*
X115935198Y-94606035D01*
X115923834Y-94637797D01*
X115909410Y-94668293D01*
X115892068Y-94697227D01*
X115871972Y-94724323D01*
X115849318Y-94749318D01*
X115824323Y-94771972D01*
X115797227Y-94792068D01*
X115768293Y-94809410D01*
X115737797Y-94823834D01*
X115706035Y-94835198D01*
X115673312Y-94843395D01*
X115639943Y-94848345D01*
X115606250Y-94850000D01*
X114918750Y-94850000D01*
X114885057Y-94848345D01*
X114851688Y-94843395D01*
X114818965Y-94835198D01*
X114787203Y-94823834D01*
X114756707Y-94809410D01*
X114727773Y-94792068D01*
X114700677Y-94771972D01*
X114675682Y-94749318D01*
X114653028Y-94724323D01*
X114632932Y-94697227D01*
X114615590Y-94668293D01*
X114601166Y-94637797D01*
X114589802Y-94606035D01*
X114581605Y-94573312D01*
X114576655Y-94539943D01*
X114575000Y-94506250D01*
X114575000Y-93393750D01*
X114576655Y-93360057D01*
X114581605Y-93326688D01*
X114589802Y-93293965D01*
X114601166Y-93262203D01*
X114615590Y-93231707D01*
X114632932Y-93202773D01*
X114653028Y-93175677D01*
X114675682Y-93150682D01*
X114700677Y-93128028D01*
X114727773Y-93107932D01*
X114756707Y-93090590D01*
X114787203Y-93076166D01*
X114818965Y-93064802D01*
X114851688Y-93056605D01*
X114885057Y-93051655D01*
X114918750Y-93050000D01*
X115606250Y-93050000D01*
X115639943Y-93051655D01*
X115639943Y-93051655D01*
G37*
D12*
X115262500Y-93950000D03*
D10*
G36*
X117514943Y-93051655D02*
X117548312Y-93056605D01*
X117581035Y-93064802D01*
X117612797Y-93076166D01*
X117643293Y-93090590D01*
X117672227Y-93107932D01*
X117699323Y-93128028D01*
X117724318Y-93150682D01*
X117746972Y-93175677D01*
X117767068Y-93202773D01*
X117784410Y-93231707D01*
X117798834Y-93262203D01*
X117810198Y-93293965D01*
X117818395Y-93326688D01*
X117823345Y-93360057D01*
X117825000Y-93393750D01*
X117825000Y-94506250D01*
X117823345Y-94539943D01*
X117818395Y-94573312D01*
X117810198Y-94606035D01*
X117798834Y-94637797D01*
X117784410Y-94668293D01*
X117767068Y-94697227D01*
X117746972Y-94724323D01*
X117724318Y-94749318D01*
X117699323Y-94771972D01*
X117672227Y-94792068D01*
X117643293Y-94809410D01*
X117612797Y-94823834D01*
X117581035Y-94835198D01*
X117548312Y-94843395D01*
X117514943Y-94848345D01*
X117481250Y-94850000D01*
X116793750Y-94850000D01*
X116760057Y-94848345D01*
X116726688Y-94843395D01*
X116693965Y-94835198D01*
X116662203Y-94823834D01*
X116631707Y-94809410D01*
X116602773Y-94792068D01*
X116575677Y-94771972D01*
X116550682Y-94749318D01*
X116528028Y-94724323D01*
X116507932Y-94697227D01*
X116490590Y-94668293D01*
X116476166Y-94637797D01*
X116464802Y-94606035D01*
X116456605Y-94573312D01*
X116451655Y-94539943D01*
X116450000Y-94506250D01*
X116450000Y-93393750D01*
X116451655Y-93360057D01*
X116456605Y-93326688D01*
X116464802Y-93293965D01*
X116476166Y-93262203D01*
X116490590Y-93231707D01*
X116507932Y-93202773D01*
X116528028Y-93175677D01*
X116550682Y-93150682D01*
X116575677Y-93128028D01*
X116602773Y-93107932D01*
X116631707Y-93090590D01*
X116662203Y-93076166D01*
X116693965Y-93064802D01*
X116726688Y-93056605D01*
X116760057Y-93051655D01*
X116793750Y-93050000D01*
X117481250Y-93050000D01*
X117514943Y-93051655D01*
X117514943Y-93051655D01*
G37*
D12*
X117137500Y-93950000D03*
G04 #@! TD*
D10*
G04 #@! TO.C,R5*
G36*
X108514943Y-93101655D02*
X108548312Y-93106605D01*
X108581035Y-93114802D01*
X108612797Y-93126166D01*
X108643293Y-93140590D01*
X108672227Y-93157932D01*
X108699323Y-93178028D01*
X108724318Y-93200682D01*
X108746972Y-93225677D01*
X108767068Y-93252773D01*
X108784410Y-93281707D01*
X108798834Y-93312203D01*
X108810198Y-93343965D01*
X108818395Y-93376688D01*
X108823345Y-93410057D01*
X108825000Y-93443750D01*
X108825000Y-94556250D01*
X108823345Y-94589943D01*
X108818395Y-94623312D01*
X108810198Y-94656035D01*
X108798834Y-94687797D01*
X108784410Y-94718293D01*
X108767068Y-94747227D01*
X108746972Y-94774323D01*
X108724318Y-94799318D01*
X108699323Y-94821972D01*
X108672227Y-94842068D01*
X108643293Y-94859410D01*
X108612797Y-94873834D01*
X108581035Y-94885198D01*
X108548312Y-94893395D01*
X108514943Y-94898345D01*
X108481250Y-94900000D01*
X107793750Y-94900000D01*
X107760057Y-94898345D01*
X107726688Y-94893395D01*
X107693965Y-94885198D01*
X107662203Y-94873834D01*
X107631707Y-94859410D01*
X107602773Y-94842068D01*
X107575677Y-94821972D01*
X107550682Y-94799318D01*
X107528028Y-94774323D01*
X107507932Y-94747227D01*
X107490590Y-94718293D01*
X107476166Y-94687797D01*
X107464802Y-94656035D01*
X107456605Y-94623312D01*
X107451655Y-94589943D01*
X107450000Y-94556250D01*
X107450000Y-93443750D01*
X107451655Y-93410057D01*
X107456605Y-93376688D01*
X107464802Y-93343965D01*
X107476166Y-93312203D01*
X107490590Y-93281707D01*
X107507932Y-93252773D01*
X107528028Y-93225677D01*
X107550682Y-93200682D01*
X107575677Y-93178028D01*
X107602773Y-93157932D01*
X107631707Y-93140590D01*
X107662203Y-93126166D01*
X107693965Y-93114802D01*
X107726688Y-93106605D01*
X107760057Y-93101655D01*
X107793750Y-93100000D01*
X108481250Y-93100000D01*
X108514943Y-93101655D01*
X108514943Y-93101655D01*
G37*
D12*
X108137500Y-94000000D03*
D10*
G36*
X106639943Y-93101655D02*
X106673312Y-93106605D01*
X106706035Y-93114802D01*
X106737797Y-93126166D01*
X106768293Y-93140590D01*
X106797227Y-93157932D01*
X106824323Y-93178028D01*
X106849318Y-93200682D01*
X106871972Y-93225677D01*
X106892068Y-93252773D01*
X106909410Y-93281707D01*
X106923834Y-93312203D01*
X106935198Y-93343965D01*
X106943395Y-93376688D01*
X106948345Y-93410057D01*
X106950000Y-93443750D01*
X106950000Y-94556250D01*
X106948345Y-94589943D01*
X106943395Y-94623312D01*
X106935198Y-94656035D01*
X106923834Y-94687797D01*
X106909410Y-94718293D01*
X106892068Y-94747227D01*
X106871972Y-94774323D01*
X106849318Y-94799318D01*
X106824323Y-94821972D01*
X106797227Y-94842068D01*
X106768293Y-94859410D01*
X106737797Y-94873834D01*
X106706035Y-94885198D01*
X106673312Y-94893395D01*
X106639943Y-94898345D01*
X106606250Y-94900000D01*
X105918750Y-94900000D01*
X105885057Y-94898345D01*
X105851688Y-94893395D01*
X105818965Y-94885198D01*
X105787203Y-94873834D01*
X105756707Y-94859410D01*
X105727773Y-94842068D01*
X105700677Y-94821972D01*
X105675682Y-94799318D01*
X105653028Y-94774323D01*
X105632932Y-94747227D01*
X105615590Y-94718293D01*
X105601166Y-94687797D01*
X105589802Y-94656035D01*
X105581605Y-94623312D01*
X105576655Y-94589943D01*
X105575000Y-94556250D01*
X105575000Y-93443750D01*
X105576655Y-93410057D01*
X105581605Y-93376688D01*
X105589802Y-93343965D01*
X105601166Y-93312203D01*
X105615590Y-93281707D01*
X105632932Y-93252773D01*
X105653028Y-93225677D01*
X105675682Y-93200682D01*
X105700677Y-93178028D01*
X105727773Y-93157932D01*
X105756707Y-93140590D01*
X105787203Y-93126166D01*
X105818965Y-93114802D01*
X105851688Y-93106605D01*
X105885057Y-93101655D01*
X105918750Y-93100000D01*
X106606250Y-93100000D01*
X106639943Y-93101655D01*
X106639943Y-93101655D01*
G37*
D12*
X106262500Y-94000000D03*
G04 #@! TD*
D10*
G04 #@! TO.C,R6*
G36*
X102139943Y-85101655D02*
X102173312Y-85106605D01*
X102206035Y-85114802D01*
X102237797Y-85126166D01*
X102268293Y-85140590D01*
X102297227Y-85157932D01*
X102324323Y-85178028D01*
X102349318Y-85200682D01*
X102371972Y-85225677D01*
X102392068Y-85252773D01*
X102409410Y-85281707D01*
X102423834Y-85312203D01*
X102435198Y-85343965D01*
X102443395Y-85376688D01*
X102448345Y-85410057D01*
X102450000Y-85443750D01*
X102450000Y-86556250D01*
X102448345Y-86589943D01*
X102443395Y-86623312D01*
X102435198Y-86656035D01*
X102423834Y-86687797D01*
X102409410Y-86718293D01*
X102392068Y-86747227D01*
X102371972Y-86774323D01*
X102349318Y-86799318D01*
X102324323Y-86821972D01*
X102297227Y-86842068D01*
X102268293Y-86859410D01*
X102237797Y-86873834D01*
X102206035Y-86885198D01*
X102173312Y-86893395D01*
X102139943Y-86898345D01*
X102106250Y-86900000D01*
X101418750Y-86900000D01*
X101385057Y-86898345D01*
X101351688Y-86893395D01*
X101318965Y-86885198D01*
X101287203Y-86873834D01*
X101256707Y-86859410D01*
X101227773Y-86842068D01*
X101200677Y-86821972D01*
X101175682Y-86799318D01*
X101153028Y-86774323D01*
X101132932Y-86747227D01*
X101115590Y-86718293D01*
X101101166Y-86687797D01*
X101089802Y-86656035D01*
X101081605Y-86623312D01*
X101076655Y-86589943D01*
X101075000Y-86556250D01*
X101075000Y-85443750D01*
X101076655Y-85410057D01*
X101081605Y-85376688D01*
X101089802Y-85343965D01*
X101101166Y-85312203D01*
X101115590Y-85281707D01*
X101132932Y-85252773D01*
X101153028Y-85225677D01*
X101175682Y-85200682D01*
X101200677Y-85178028D01*
X101227773Y-85157932D01*
X101256707Y-85140590D01*
X101287203Y-85126166D01*
X101318965Y-85114802D01*
X101351688Y-85106605D01*
X101385057Y-85101655D01*
X101418750Y-85100000D01*
X102106250Y-85100000D01*
X102139943Y-85101655D01*
X102139943Y-85101655D01*
G37*
D12*
X101762500Y-86000000D03*
D10*
G36*
X104014943Y-85101655D02*
X104048312Y-85106605D01*
X104081035Y-85114802D01*
X104112797Y-85126166D01*
X104143293Y-85140590D01*
X104172227Y-85157932D01*
X104199323Y-85178028D01*
X104224318Y-85200682D01*
X104246972Y-85225677D01*
X104267068Y-85252773D01*
X104284410Y-85281707D01*
X104298834Y-85312203D01*
X104310198Y-85343965D01*
X104318395Y-85376688D01*
X104323345Y-85410057D01*
X104325000Y-85443750D01*
X104325000Y-86556250D01*
X104323345Y-86589943D01*
X104318395Y-86623312D01*
X104310198Y-86656035D01*
X104298834Y-86687797D01*
X104284410Y-86718293D01*
X104267068Y-86747227D01*
X104246972Y-86774323D01*
X104224318Y-86799318D01*
X104199323Y-86821972D01*
X104172227Y-86842068D01*
X104143293Y-86859410D01*
X104112797Y-86873834D01*
X104081035Y-86885198D01*
X104048312Y-86893395D01*
X104014943Y-86898345D01*
X103981250Y-86900000D01*
X103293750Y-86900000D01*
X103260057Y-86898345D01*
X103226688Y-86893395D01*
X103193965Y-86885198D01*
X103162203Y-86873834D01*
X103131707Y-86859410D01*
X103102773Y-86842068D01*
X103075677Y-86821972D01*
X103050682Y-86799318D01*
X103028028Y-86774323D01*
X103007932Y-86747227D01*
X102990590Y-86718293D01*
X102976166Y-86687797D01*
X102964802Y-86656035D01*
X102956605Y-86623312D01*
X102951655Y-86589943D01*
X102950000Y-86556250D01*
X102950000Y-85443750D01*
X102951655Y-85410057D01*
X102956605Y-85376688D01*
X102964802Y-85343965D01*
X102976166Y-85312203D01*
X102990590Y-85281707D01*
X103007932Y-85252773D01*
X103028028Y-85225677D01*
X103050682Y-85200682D01*
X103075677Y-85178028D01*
X103102773Y-85157932D01*
X103131707Y-85140590D01*
X103162203Y-85126166D01*
X103193965Y-85114802D01*
X103226688Y-85106605D01*
X103260057Y-85101655D01*
X103293750Y-85100000D01*
X103981250Y-85100000D01*
X104014943Y-85101655D01*
X104014943Y-85101655D01*
G37*
D12*
X103637500Y-86000000D03*
G04 #@! TD*
D10*
G04 #@! TO.C,R7*
G36*
X108414943Y-77401655D02*
X108448312Y-77406605D01*
X108481035Y-77414802D01*
X108512797Y-77426166D01*
X108543293Y-77440590D01*
X108572227Y-77457932D01*
X108599323Y-77478028D01*
X108624318Y-77500682D01*
X108646972Y-77525677D01*
X108667068Y-77552773D01*
X108684410Y-77581707D01*
X108698834Y-77612203D01*
X108710198Y-77643965D01*
X108718395Y-77676688D01*
X108723345Y-77710057D01*
X108725000Y-77743750D01*
X108725000Y-78856250D01*
X108723345Y-78889943D01*
X108718395Y-78923312D01*
X108710198Y-78956035D01*
X108698834Y-78987797D01*
X108684410Y-79018293D01*
X108667068Y-79047227D01*
X108646972Y-79074323D01*
X108624318Y-79099318D01*
X108599323Y-79121972D01*
X108572227Y-79142068D01*
X108543293Y-79159410D01*
X108512797Y-79173834D01*
X108481035Y-79185198D01*
X108448312Y-79193395D01*
X108414943Y-79198345D01*
X108381250Y-79200000D01*
X107693750Y-79200000D01*
X107660057Y-79198345D01*
X107626688Y-79193395D01*
X107593965Y-79185198D01*
X107562203Y-79173834D01*
X107531707Y-79159410D01*
X107502773Y-79142068D01*
X107475677Y-79121972D01*
X107450682Y-79099318D01*
X107428028Y-79074323D01*
X107407932Y-79047227D01*
X107390590Y-79018293D01*
X107376166Y-78987797D01*
X107364802Y-78956035D01*
X107356605Y-78923312D01*
X107351655Y-78889943D01*
X107350000Y-78856250D01*
X107350000Y-77743750D01*
X107351655Y-77710057D01*
X107356605Y-77676688D01*
X107364802Y-77643965D01*
X107376166Y-77612203D01*
X107390590Y-77581707D01*
X107407932Y-77552773D01*
X107428028Y-77525677D01*
X107450682Y-77500682D01*
X107475677Y-77478028D01*
X107502773Y-77457932D01*
X107531707Y-77440590D01*
X107562203Y-77426166D01*
X107593965Y-77414802D01*
X107626688Y-77406605D01*
X107660057Y-77401655D01*
X107693750Y-77400000D01*
X108381250Y-77400000D01*
X108414943Y-77401655D01*
X108414943Y-77401655D01*
G37*
D12*
X108037500Y-78300000D03*
D10*
G36*
X106539943Y-77401655D02*
X106573312Y-77406605D01*
X106606035Y-77414802D01*
X106637797Y-77426166D01*
X106668293Y-77440590D01*
X106697227Y-77457932D01*
X106724323Y-77478028D01*
X106749318Y-77500682D01*
X106771972Y-77525677D01*
X106792068Y-77552773D01*
X106809410Y-77581707D01*
X106823834Y-77612203D01*
X106835198Y-77643965D01*
X106843395Y-77676688D01*
X106848345Y-77710057D01*
X106850000Y-77743750D01*
X106850000Y-78856250D01*
X106848345Y-78889943D01*
X106843395Y-78923312D01*
X106835198Y-78956035D01*
X106823834Y-78987797D01*
X106809410Y-79018293D01*
X106792068Y-79047227D01*
X106771972Y-79074323D01*
X106749318Y-79099318D01*
X106724323Y-79121972D01*
X106697227Y-79142068D01*
X106668293Y-79159410D01*
X106637797Y-79173834D01*
X106606035Y-79185198D01*
X106573312Y-79193395D01*
X106539943Y-79198345D01*
X106506250Y-79200000D01*
X105818750Y-79200000D01*
X105785057Y-79198345D01*
X105751688Y-79193395D01*
X105718965Y-79185198D01*
X105687203Y-79173834D01*
X105656707Y-79159410D01*
X105627773Y-79142068D01*
X105600677Y-79121972D01*
X105575682Y-79099318D01*
X105553028Y-79074323D01*
X105532932Y-79047227D01*
X105515590Y-79018293D01*
X105501166Y-78987797D01*
X105489802Y-78956035D01*
X105481605Y-78923312D01*
X105476655Y-78889943D01*
X105475000Y-78856250D01*
X105475000Y-77743750D01*
X105476655Y-77710057D01*
X105481605Y-77676688D01*
X105489802Y-77643965D01*
X105501166Y-77612203D01*
X105515590Y-77581707D01*
X105532932Y-77552773D01*
X105553028Y-77525677D01*
X105575682Y-77500682D01*
X105600677Y-77478028D01*
X105627773Y-77457932D01*
X105656707Y-77440590D01*
X105687203Y-77426166D01*
X105718965Y-77414802D01*
X105751688Y-77406605D01*
X105785057Y-77401655D01*
X105818750Y-77400000D01*
X106506250Y-77400000D01*
X106539943Y-77401655D01*
X106539943Y-77401655D01*
G37*
D12*
X106162500Y-78300000D03*
G04 #@! TD*
D16*
G04 #@! TO.C,C1*
X122400000Y-90800000D03*
X122400000Y-95200000D03*
G04 #@! TD*
D10*
G04 #@! TO.C,C5*
G36*
X108514943Y-72101655D02*
X108548312Y-72106605D01*
X108581035Y-72114802D01*
X108612797Y-72126166D01*
X108643293Y-72140590D01*
X108672227Y-72157932D01*
X108699323Y-72178028D01*
X108724318Y-72200682D01*
X108746972Y-72225677D01*
X108767068Y-72252773D01*
X108784410Y-72281707D01*
X108798834Y-72312203D01*
X108810198Y-72343965D01*
X108818395Y-72376688D01*
X108823345Y-72410057D01*
X108825000Y-72443750D01*
X108825000Y-73556250D01*
X108823345Y-73589943D01*
X108818395Y-73623312D01*
X108810198Y-73656035D01*
X108798834Y-73687797D01*
X108784410Y-73718293D01*
X108767068Y-73747227D01*
X108746972Y-73774323D01*
X108724318Y-73799318D01*
X108699323Y-73821972D01*
X108672227Y-73842068D01*
X108643293Y-73859410D01*
X108612797Y-73873834D01*
X108581035Y-73885198D01*
X108548312Y-73893395D01*
X108514943Y-73898345D01*
X108481250Y-73900000D01*
X107793750Y-73900000D01*
X107760057Y-73898345D01*
X107726688Y-73893395D01*
X107693965Y-73885198D01*
X107662203Y-73873834D01*
X107631707Y-73859410D01*
X107602773Y-73842068D01*
X107575677Y-73821972D01*
X107550682Y-73799318D01*
X107528028Y-73774323D01*
X107507932Y-73747227D01*
X107490590Y-73718293D01*
X107476166Y-73687797D01*
X107464802Y-73656035D01*
X107456605Y-73623312D01*
X107451655Y-73589943D01*
X107450000Y-73556250D01*
X107450000Y-72443750D01*
X107451655Y-72410057D01*
X107456605Y-72376688D01*
X107464802Y-72343965D01*
X107476166Y-72312203D01*
X107490590Y-72281707D01*
X107507932Y-72252773D01*
X107528028Y-72225677D01*
X107550682Y-72200682D01*
X107575677Y-72178028D01*
X107602773Y-72157932D01*
X107631707Y-72140590D01*
X107662203Y-72126166D01*
X107693965Y-72114802D01*
X107726688Y-72106605D01*
X107760057Y-72101655D01*
X107793750Y-72100000D01*
X108481250Y-72100000D01*
X108514943Y-72101655D01*
X108514943Y-72101655D01*
G37*
D12*
X108137500Y-73000000D03*
D10*
G36*
X106639943Y-72101655D02*
X106673312Y-72106605D01*
X106706035Y-72114802D01*
X106737797Y-72126166D01*
X106768293Y-72140590D01*
X106797227Y-72157932D01*
X106824323Y-72178028D01*
X106849318Y-72200682D01*
X106871972Y-72225677D01*
X106892068Y-72252773D01*
X106909410Y-72281707D01*
X106923834Y-72312203D01*
X106935198Y-72343965D01*
X106943395Y-72376688D01*
X106948345Y-72410057D01*
X106950000Y-72443750D01*
X106950000Y-73556250D01*
X106948345Y-73589943D01*
X106943395Y-73623312D01*
X106935198Y-73656035D01*
X106923834Y-73687797D01*
X106909410Y-73718293D01*
X106892068Y-73747227D01*
X106871972Y-73774323D01*
X106849318Y-73799318D01*
X106824323Y-73821972D01*
X106797227Y-73842068D01*
X106768293Y-73859410D01*
X106737797Y-73873834D01*
X106706035Y-73885198D01*
X106673312Y-73893395D01*
X106639943Y-73898345D01*
X106606250Y-73900000D01*
X105918750Y-73900000D01*
X105885057Y-73898345D01*
X105851688Y-73893395D01*
X105818965Y-73885198D01*
X105787203Y-73873834D01*
X105756707Y-73859410D01*
X105727773Y-73842068D01*
X105700677Y-73821972D01*
X105675682Y-73799318D01*
X105653028Y-73774323D01*
X105632932Y-73747227D01*
X105615590Y-73718293D01*
X105601166Y-73687797D01*
X105589802Y-73656035D01*
X105581605Y-73623312D01*
X105576655Y-73589943D01*
X105575000Y-73556250D01*
X105575000Y-72443750D01*
X105576655Y-72410057D01*
X105581605Y-72376688D01*
X105589802Y-72343965D01*
X105601166Y-72312203D01*
X105615590Y-72281707D01*
X105632932Y-72252773D01*
X105653028Y-72225677D01*
X105675682Y-72200682D01*
X105700677Y-72178028D01*
X105727773Y-72157932D01*
X105756707Y-72140590D01*
X105787203Y-72126166D01*
X105818965Y-72114802D01*
X105851688Y-72106605D01*
X105885057Y-72101655D01*
X105918750Y-72100000D01*
X106606250Y-72100000D01*
X106639943Y-72101655D01*
X106639943Y-72101655D01*
G37*
D12*
X106262500Y-73000000D03*
G04 #@! TD*
D10*
G04 #@! TO.C,C6*
G36*
X115689943Y-87701655D02*
X115723312Y-87706605D01*
X115756035Y-87714802D01*
X115787797Y-87726166D01*
X115818293Y-87740590D01*
X115847227Y-87757932D01*
X115874323Y-87778028D01*
X115899318Y-87800682D01*
X115921972Y-87825677D01*
X115942068Y-87852773D01*
X115959410Y-87881707D01*
X115973834Y-87912203D01*
X115985198Y-87943965D01*
X115993395Y-87976688D01*
X115998345Y-88010057D01*
X116000000Y-88043750D01*
X116000000Y-89156250D01*
X115998345Y-89189943D01*
X115993395Y-89223312D01*
X115985198Y-89256035D01*
X115973834Y-89287797D01*
X115959410Y-89318293D01*
X115942068Y-89347227D01*
X115921972Y-89374323D01*
X115899318Y-89399318D01*
X115874323Y-89421972D01*
X115847227Y-89442068D01*
X115818293Y-89459410D01*
X115787797Y-89473834D01*
X115756035Y-89485198D01*
X115723312Y-89493395D01*
X115689943Y-89498345D01*
X115656250Y-89500000D01*
X114968750Y-89500000D01*
X114935057Y-89498345D01*
X114901688Y-89493395D01*
X114868965Y-89485198D01*
X114837203Y-89473834D01*
X114806707Y-89459410D01*
X114777773Y-89442068D01*
X114750677Y-89421972D01*
X114725682Y-89399318D01*
X114703028Y-89374323D01*
X114682932Y-89347227D01*
X114665590Y-89318293D01*
X114651166Y-89287797D01*
X114639802Y-89256035D01*
X114631605Y-89223312D01*
X114626655Y-89189943D01*
X114625000Y-89156250D01*
X114625000Y-88043750D01*
X114626655Y-88010057D01*
X114631605Y-87976688D01*
X114639802Y-87943965D01*
X114651166Y-87912203D01*
X114665590Y-87881707D01*
X114682932Y-87852773D01*
X114703028Y-87825677D01*
X114725682Y-87800682D01*
X114750677Y-87778028D01*
X114777773Y-87757932D01*
X114806707Y-87740590D01*
X114837203Y-87726166D01*
X114868965Y-87714802D01*
X114901688Y-87706605D01*
X114935057Y-87701655D01*
X114968750Y-87700000D01*
X115656250Y-87700000D01*
X115689943Y-87701655D01*
X115689943Y-87701655D01*
G37*
D12*
X115312500Y-88600000D03*
D10*
G36*
X117564943Y-87701655D02*
X117598312Y-87706605D01*
X117631035Y-87714802D01*
X117662797Y-87726166D01*
X117693293Y-87740590D01*
X117722227Y-87757932D01*
X117749323Y-87778028D01*
X117774318Y-87800682D01*
X117796972Y-87825677D01*
X117817068Y-87852773D01*
X117834410Y-87881707D01*
X117848834Y-87912203D01*
X117860198Y-87943965D01*
X117868395Y-87976688D01*
X117873345Y-88010057D01*
X117875000Y-88043750D01*
X117875000Y-89156250D01*
X117873345Y-89189943D01*
X117868395Y-89223312D01*
X117860198Y-89256035D01*
X117848834Y-89287797D01*
X117834410Y-89318293D01*
X117817068Y-89347227D01*
X117796972Y-89374323D01*
X117774318Y-89399318D01*
X117749323Y-89421972D01*
X117722227Y-89442068D01*
X117693293Y-89459410D01*
X117662797Y-89473834D01*
X117631035Y-89485198D01*
X117598312Y-89493395D01*
X117564943Y-89498345D01*
X117531250Y-89500000D01*
X116843750Y-89500000D01*
X116810057Y-89498345D01*
X116776688Y-89493395D01*
X116743965Y-89485198D01*
X116712203Y-89473834D01*
X116681707Y-89459410D01*
X116652773Y-89442068D01*
X116625677Y-89421972D01*
X116600682Y-89399318D01*
X116578028Y-89374323D01*
X116557932Y-89347227D01*
X116540590Y-89318293D01*
X116526166Y-89287797D01*
X116514802Y-89256035D01*
X116506605Y-89223312D01*
X116501655Y-89189943D01*
X116500000Y-89156250D01*
X116500000Y-88043750D01*
X116501655Y-88010057D01*
X116506605Y-87976688D01*
X116514802Y-87943965D01*
X116526166Y-87912203D01*
X116540590Y-87881707D01*
X116557932Y-87852773D01*
X116578028Y-87825677D01*
X116600682Y-87800682D01*
X116625677Y-87778028D01*
X116652773Y-87757932D01*
X116681707Y-87740590D01*
X116712203Y-87726166D01*
X116743965Y-87714802D01*
X116776688Y-87706605D01*
X116810057Y-87701655D01*
X116843750Y-87700000D01*
X117531250Y-87700000D01*
X117564943Y-87701655D01*
X117564943Y-87701655D01*
G37*
D12*
X117187500Y-88600000D03*
G04 #@! TD*
D10*
G04 #@! TO.C,C7*
G36*
X117664943Y-72051655D02*
X117698312Y-72056605D01*
X117731035Y-72064802D01*
X117762797Y-72076166D01*
X117793293Y-72090590D01*
X117822227Y-72107932D01*
X117849323Y-72128028D01*
X117874318Y-72150682D01*
X117896972Y-72175677D01*
X117917068Y-72202773D01*
X117934410Y-72231707D01*
X117948834Y-72262203D01*
X117960198Y-72293965D01*
X117968395Y-72326688D01*
X117973345Y-72360057D01*
X117975000Y-72393750D01*
X117975000Y-73506250D01*
X117973345Y-73539943D01*
X117968395Y-73573312D01*
X117960198Y-73606035D01*
X117948834Y-73637797D01*
X117934410Y-73668293D01*
X117917068Y-73697227D01*
X117896972Y-73724323D01*
X117874318Y-73749318D01*
X117849323Y-73771972D01*
X117822227Y-73792068D01*
X117793293Y-73809410D01*
X117762797Y-73823834D01*
X117731035Y-73835198D01*
X117698312Y-73843395D01*
X117664943Y-73848345D01*
X117631250Y-73850000D01*
X116943750Y-73850000D01*
X116910057Y-73848345D01*
X116876688Y-73843395D01*
X116843965Y-73835198D01*
X116812203Y-73823834D01*
X116781707Y-73809410D01*
X116752773Y-73792068D01*
X116725677Y-73771972D01*
X116700682Y-73749318D01*
X116678028Y-73724323D01*
X116657932Y-73697227D01*
X116640590Y-73668293D01*
X116626166Y-73637797D01*
X116614802Y-73606035D01*
X116606605Y-73573312D01*
X116601655Y-73539943D01*
X116600000Y-73506250D01*
X116600000Y-72393750D01*
X116601655Y-72360057D01*
X116606605Y-72326688D01*
X116614802Y-72293965D01*
X116626166Y-72262203D01*
X116640590Y-72231707D01*
X116657932Y-72202773D01*
X116678028Y-72175677D01*
X116700682Y-72150682D01*
X116725677Y-72128028D01*
X116752773Y-72107932D01*
X116781707Y-72090590D01*
X116812203Y-72076166D01*
X116843965Y-72064802D01*
X116876688Y-72056605D01*
X116910057Y-72051655D01*
X116943750Y-72050000D01*
X117631250Y-72050000D01*
X117664943Y-72051655D01*
X117664943Y-72051655D01*
G37*
D12*
X117287500Y-72950000D03*
D10*
G36*
X115789943Y-72051655D02*
X115823312Y-72056605D01*
X115856035Y-72064802D01*
X115887797Y-72076166D01*
X115918293Y-72090590D01*
X115947227Y-72107932D01*
X115974323Y-72128028D01*
X115999318Y-72150682D01*
X116021972Y-72175677D01*
X116042068Y-72202773D01*
X116059410Y-72231707D01*
X116073834Y-72262203D01*
X116085198Y-72293965D01*
X116093395Y-72326688D01*
X116098345Y-72360057D01*
X116100000Y-72393750D01*
X116100000Y-73506250D01*
X116098345Y-73539943D01*
X116093395Y-73573312D01*
X116085198Y-73606035D01*
X116073834Y-73637797D01*
X116059410Y-73668293D01*
X116042068Y-73697227D01*
X116021972Y-73724323D01*
X115999318Y-73749318D01*
X115974323Y-73771972D01*
X115947227Y-73792068D01*
X115918293Y-73809410D01*
X115887797Y-73823834D01*
X115856035Y-73835198D01*
X115823312Y-73843395D01*
X115789943Y-73848345D01*
X115756250Y-73850000D01*
X115068750Y-73850000D01*
X115035057Y-73848345D01*
X115001688Y-73843395D01*
X114968965Y-73835198D01*
X114937203Y-73823834D01*
X114906707Y-73809410D01*
X114877773Y-73792068D01*
X114850677Y-73771972D01*
X114825682Y-73749318D01*
X114803028Y-73724323D01*
X114782932Y-73697227D01*
X114765590Y-73668293D01*
X114751166Y-73637797D01*
X114739802Y-73606035D01*
X114731605Y-73573312D01*
X114726655Y-73539943D01*
X114725000Y-73506250D01*
X114725000Y-72393750D01*
X114726655Y-72360057D01*
X114731605Y-72326688D01*
X114739802Y-72293965D01*
X114751166Y-72262203D01*
X114765590Y-72231707D01*
X114782932Y-72202773D01*
X114803028Y-72175677D01*
X114825682Y-72150682D01*
X114850677Y-72128028D01*
X114877773Y-72107932D01*
X114906707Y-72090590D01*
X114937203Y-72076166D01*
X114968965Y-72064802D01*
X115001688Y-72056605D01*
X115035057Y-72051655D01*
X115068750Y-72050000D01*
X115756250Y-72050000D01*
X115789943Y-72051655D01*
X115789943Y-72051655D01*
G37*
D12*
X115412500Y-72950000D03*
G04 #@! TD*
D10*
G04 #@! TO.C,C8*
G36*
X106689943Y-87601655D02*
X106723312Y-87606605D01*
X106756035Y-87614802D01*
X106787797Y-87626166D01*
X106818293Y-87640590D01*
X106847227Y-87657932D01*
X106874323Y-87678028D01*
X106899318Y-87700682D01*
X106921972Y-87725677D01*
X106942068Y-87752773D01*
X106959410Y-87781707D01*
X106973834Y-87812203D01*
X106985198Y-87843965D01*
X106993395Y-87876688D01*
X106998345Y-87910057D01*
X107000000Y-87943750D01*
X107000000Y-89056250D01*
X106998345Y-89089943D01*
X106993395Y-89123312D01*
X106985198Y-89156035D01*
X106973834Y-89187797D01*
X106959410Y-89218293D01*
X106942068Y-89247227D01*
X106921972Y-89274323D01*
X106899318Y-89299318D01*
X106874323Y-89321972D01*
X106847227Y-89342068D01*
X106818293Y-89359410D01*
X106787797Y-89373834D01*
X106756035Y-89385198D01*
X106723312Y-89393395D01*
X106689943Y-89398345D01*
X106656250Y-89400000D01*
X105968750Y-89400000D01*
X105935057Y-89398345D01*
X105901688Y-89393395D01*
X105868965Y-89385198D01*
X105837203Y-89373834D01*
X105806707Y-89359410D01*
X105777773Y-89342068D01*
X105750677Y-89321972D01*
X105725682Y-89299318D01*
X105703028Y-89274323D01*
X105682932Y-89247227D01*
X105665590Y-89218293D01*
X105651166Y-89187797D01*
X105639802Y-89156035D01*
X105631605Y-89123312D01*
X105626655Y-89089943D01*
X105625000Y-89056250D01*
X105625000Y-87943750D01*
X105626655Y-87910057D01*
X105631605Y-87876688D01*
X105639802Y-87843965D01*
X105651166Y-87812203D01*
X105665590Y-87781707D01*
X105682932Y-87752773D01*
X105703028Y-87725677D01*
X105725682Y-87700682D01*
X105750677Y-87678028D01*
X105777773Y-87657932D01*
X105806707Y-87640590D01*
X105837203Y-87626166D01*
X105868965Y-87614802D01*
X105901688Y-87606605D01*
X105935057Y-87601655D01*
X105968750Y-87600000D01*
X106656250Y-87600000D01*
X106689943Y-87601655D01*
X106689943Y-87601655D01*
G37*
D12*
X106312500Y-88500000D03*
D10*
G36*
X108564943Y-87601655D02*
X108598312Y-87606605D01*
X108631035Y-87614802D01*
X108662797Y-87626166D01*
X108693293Y-87640590D01*
X108722227Y-87657932D01*
X108749323Y-87678028D01*
X108774318Y-87700682D01*
X108796972Y-87725677D01*
X108817068Y-87752773D01*
X108834410Y-87781707D01*
X108848834Y-87812203D01*
X108860198Y-87843965D01*
X108868395Y-87876688D01*
X108873345Y-87910057D01*
X108875000Y-87943750D01*
X108875000Y-89056250D01*
X108873345Y-89089943D01*
X108868395Y-89123312D01*
X108860198Y-89156035D01*
X108848834Y-89187797D01*
X108834410Y-89218293D01*
X108817068Y-89247227D01*
X108796972Y-89274323D01*
X108774318Y-89299318D01*
X108749323Y-89321972D01*
X108722227Y-89342068D01*
X108693293Y-89359410D01*
X108662797Y-89373834D01*
X108631035Y-89385198D01*
X108598312Y-89393395D01*
X108564943Y-89398345D01*
X108531250Y-89400000D01*
X107843750Y-89400000D01*
X107810057Y-89398345D01*
X107776688Y-89393395D01*
X107743965Y-89385198D01*
X107712203Y-89373834D01*
X107681707Y-89359410D01*
X107652773Y-89342068D01*
X107625677Y-89321972D01*
X107600682Y-89299318D01*
X107578028Y-89274323D01*
X107557932Y-89247227D01*
X107540590Y-89218293D01*
X107526166Y-89187797D01*
X107514802Y-89156035D01*
X107506605Y-89123312D01*
X107501655Y-89089943D01*
X107500000Y-89056250D01*
X107500000Y-87943750D01*
X107501655Y-87910057D01*
X107506605Y-87876688D01*
X107514802Y-87843965D01*
X107526166Y-87812203D01*
X107540590Y-87781707D01*
X107557932Y-87752773D01*
X107578028Y-87725677D01*
X107600682Y-87700682D01*
X107625677Y-87678028D01*
X107652773Y-87657932D01*
X107681707Y-87640590D01*
X107712203Y-87626166D01*
X107743965Y-87614802D01*
X107776688Y-87606605D01*
X107810057Y-87601655D01*
X107843750Y-87600000D01*
X108531250Y-87600000D01*
X108564943Y-87601655D01*
X108564943Y-87601655D01*
G37*
D12*
X108187500Y-88500000D03*
G04 #@! TD*
D10*
G04 #@! TO.C,C9*
G36*
X122014943Y-80051655D02*
X122048312Y-80056605D01*
X122081035Y-80064802D01*
X122112797Y-80076166D01*
X122143293Y-80090590D01*
X122172227Y-80107932D01*
X122199323Y-80128028D01*
X122224318Y-80150682D01*
X122246972Y-80175677D01*
X122267068Y-80202773D01*
X122284410Y-80231707D01*
X122298834Y-80262203D01*
X122310198Y-80293965D01*
X122318395Y-80326688D01*
X122323345Y-80360057D01*
X122325000Y-80393750D01*
X122325000Y-81506250D01*
X122323345Y-81539943D01*
X122318395Y-81573312D01*
X122310198Y-81606035D01*
X122298834Y-81637797D01*
X122284410Y-81668293D01*
X122267068Y-81697227D01*
X122246972Y-81724323D01*
X122224318Y-81749318D01*
X122199323Y-81771972D01*
X122172227Y-81792068D01*
X122143293Y-81809410D01*
X122112797Y-81823834D01*
X122081035Y-81835198D01*
X122048312Y-81843395D01*
X122014943Y-81848345D01*
X121981250Y-81850000D01*
X121293750Y-81850000D01*
X121260057Y-81848345D01*
X121226688Y-81843395D01*
X121193965Y-81835198D01*
X121162203Y-81823834D01*
X121131707Y-81809410D01*
X121102773Y-81792068D01*
X121075677Y-81771972D01*
X121050682Y-81749318D01*
X121028028Y-81724323D01*
X121007932Y-81697227D01*
X120990590Y-81668293D01*
X120976166Y-81637797D01*
X120964802Y-81606035D01*
X120956605Y-81573312D01*
X120951655Y-81539943D01*
X120950000Y-81506250D01*
X120950000Y-80393750D01*
X120951655Y-80360057D01*
X120956605Y-80326688D01*
X120964802Y-80293965D01*
X120976166Y-80262203D01*
X120990590Y-80231707D01*
X121007932Y-80202773D01*
X121028028Y-80175677D01*
X121050682Y-80150682D01*
X121075677Y-80128028D01*
X121102773Y-80107932D01*
X121131707Y-80090590D01*
X121162203Y-80076166D01*
X121193965Y-80064802D01*
X121226688Y-80056605D01*
X121260057Y-80051655D01*
X121293750Y-80050000D01*
X121981250Y-80050000D01*
X122014943Y-80051655D01*
X122014943Y-80051655D01*
G37*
D12*
X121637500Y-80950000D03*
D10*
G36*
X120139943Y-80051655D02*
X120173312Y-80056605D01*
X120206035Y-80064802D01*
X120237797Y-80076166D01*
X120268293Y-80090590D01*
X120297227Y-80107932D01*
X120324323Y-80128028D01*
X120349318Y-80150682D01*
X120371972Y-80175677D01*
X120392068Y-80202773D01*
X120409410Y-80231707D01*
X120423834Y-80262203D01*
X120435198Y-80293965D01*
X120443395Y-80326688D01*
X120448345Y-80360057D01*
X120450000Y-80393750D01*
X120450000Y-81506250D01*
X120448345Y-81539943D01*
X120443395Y-81573312D01*
X120435198Y-81606035D01*
X120423834Y-81637797D01*
X120409410Y-81668293D01*
X120392068Y-81697227D01*
X120371972Y-81724323D01*
X120349318Y-81749318D01*
X120324323Y-81771972D01*
X120297227Y-81792068D01*
X120268293Y-81809410D01*
X120237797Y-81823834D01*
X120206035Y-81835198D01*
X120173312Y-81843395D01*
X120139943Y-81848345D01*
X120106250Y-81850000D01*
X119418750Y-81850000D01*
X119385057Y-81848345D01*
X119351688Y-81843395D01*
X119318965Y-81835198D01*
X119287203Y-81823834D01*
X119256707Y-81809410D01*
X119227773Y-81792068D01*
X119200677Y-81771972D01*
X119175682Y-81749318D01*
X119153028Y-81724323D01*
X119132932Y-81697227D01*
X119115590Y-81668293D01*
X119101166Y-81637797D01*
X119089802Y-81606035D01*
X119081605Y-81573312D01*
X119076655Y-81539943D01*
X119075000Y-81506250D01*
X119075000Y-80393750D01*
X119076655Y-80360057D01*
X119081605Y-80326688D01*
X119089802Y-80293965D01*
X119101166Y-80262203D01*
X119115590Y-80231707D01*
X119132932Y-80202773D01*
X119153028Y-80175677D01*
X119175682Y-80150682D01*
X119200677Y-80128028D01*
X119227773Y-80107932D01*
X119256707Y-80090590D01*
X119287203Y-80076166D01*
X119318965Y-80064802D01*
X119351688Y-80056605D01*
X119385057Y-80051655D01*
X119418750Y-80050000D01*
X120106250Y-80050000D01*
X120139943Y-80051655D01*
X120139943Y-80051655D01*
G37*
D12*
X119762500Y-80950000D03*
G04 #@! TD*
D10*
G04 #@! TO.C,C10*
G36*
X102189943Y-80001655D02*
X102223312Y-80006605D01*
X102256035Y-80014802D01*
X102287797Y-80026166D01*
X102318293Y-80040590D01*
X102347227Y-80057932D01*
X102374323Y-80078028D01*
X102399318Y-80100682D01*
X102421972Y-80125677D01*
X102442068Y-80152773D01*
X102459410Y-80181707D01*
X102473834Y-80212203D01*
X102485198Y-80243965D01*
X102493395Y-80276688D01*
X102498345Y-80310057D01*
X102500000Y-80343750D01*
X102500000Y-81456250D01*
X102498345Y-81489943D01*
X102493395Y-81523312D01*
X102485198Y-81556035D01*
X102473834Y-81587797D01*
X102459410Y-81618293D01*
X102442068Y-81647227D01*
X102421972Y-81674323D01*
X102399318Y-81699318D01*
X102374323Y-81721972D01*
X102347227Y-81742068D01*
X102318293Y-81759410D01*
X102287797Y-81773834D01*
X102256035Y-81785198D01*
X102223312Y-81793395D01*
X102189943Y-81798345D01*
X102156250Y-81800000D01*
X101468750Y-81800000D01*
X101435057Y-81798345D01*
X101401688Y-81793395D01*
X101368965Y-81785198D01*
X101337203Y-81773834D01*
X101306707Y-81759410D01*
X101277773Y-81742068D01*
X101250677Y-81721972D01*
X101225682Y-81699318D01*
X101203028Y-81674323D01*
X101182932Y-81647227D01*
X101165590Y-81618293D01*
X101151166Y-81587797D01*
X101139802Y-81556035D01*
X101131605Y-81523312D01*
X101126655Y-81489943D01*
X101125000Y-81456250D01*
X101125000Y-80343750D01*
X101126655Y-80310057D01*
X101131605Y-80276688D01*
X101139802Y-80243965D01*
X101151166Y-80212203D01*
X101165590Y-80181707D01*
X101182932Y-80152773D01*
X101203028Y-80125677D01*
X101225682Y-80100682D01*
X101250677Y-80078028D01*
X101277773Y-80057932D01*
X101306707Y-80040590D01*
X101337203Y-80026166D01*
X101368965Y-80014802D01*
X101401688Y-80006605D01*
X101435057Y-80001655D01*
X101468750Y-80000000D01*
X102156250Y-80000000D01*
X102189943Y-80001655D01*
X102189943Y-80001655D01*
G37*
D12*
X101812500Y-80900000D03*
D10*
G36*
X104064943Y-80001655D02*
X104098312Y-80006605D01*
X104131035Y-80014802D01*
X104162797Y-80026166D01*
X104193293Y-80040590D01*
X104222227Y-80057932D01*
X104249323Y-80078028D01*
X104274318Y-80100682D01*
X104296972Y-80125677D01*
X104317068Y-80152773D01*
X104334410Y-80181707D01*
X104348834Y-80212203D01*
X104360198Y-80243965D01*
X104368395Y-80276688D01*
X104373345Y-80310057D01*
X104375000Y-80343750D01*
X104375000Y-81456250D01*
X104373345Y-81489943D01*
X104368395Y-81523312D01*
X104360198Y-81556035D01*
X104348834Y-81587797D01*
X104334410Y-81618293D01*
X104317068Y-81647227D01*
X104296972Y-81674323D01*
X104274318Y-81699318D01*
X104249323Y-81721972D01*
X104222227Y-81742068D01*
X104193293Y-81759410D01*
X104162797Y-81773834D01*
X104131035Y-81785198D01*
X104098312Y-81793395D01*
X104064943Y-81798345D01*
X104031250Y-81800000D01*
X103343750Y-81800000D01*
X103310057Y-81798345D01*
X103276688Y-81793395D01*
X103243965Y-81785198D01*
X103212203Y-81773834D01*
X103181707Y-81759410D01*
X103152773Y-81742068D01*
X103125677Y-81721972D01*
X103100682Y-81699318D01*
X103078028Y-81674323D01*
X103057932Y-81647227D01*
X103040590Y-81618293D01*
X103026166Y-81587797D01*
X103014802Y-81556035D01*
X103006605Y-81523312D01*
X103001655Y-81489943D01*
X103000000Y-81456250D01*
X103000000Y-80343750D01*
X103001655Y-80310057D01*
X103006605Y-80276688D01*
X103014802Y-80243965D01*
X103026166Y-80212203D01*
X103040590Y-80181707D01*
X103057932Y-80152773D01*
X103078028Y-80125677D01*
X103100682Y-80100682D01*
X103125677Y-80078028D01*
X103152773Y-80057932D01*
X103181707Y-80040590D01*
X103212203Y-80026166D01*
X103243965Y-80014802D01*
X103276688Y-80006605D01*
X103310057Y-80001655D01*
X103343750Y-80000000D01*
X104031250Y-80000000D01*
X104064943Y-80001655D01*
X104064943Y-80001655D01*
G37*
D12*
X103687500Y-80900000D03*
G04 #@! TD*
D10*
G04 #@! TO.C,C11*
G36*
X113114943Y-80051655D02*
X113148312Y-80056605D01*
X113181035Y-80064802D01*
X113212797Y-80076166D01*
X113243293Y-80090590D01*
X113272227Y-80107932D01*
X113299323Y-80128028D01*
X113324318Y-80150682D01*
X113346972Y-80175677D01*
X113367068Y-80202773D01*
X113384410Y-80231707D01*
X113398834Y-80262203D01*
X113410198Y-80293965D01*
X113418395Y-80326688D01*
X113423345Y-80360057D01*
X113425000Y-80393750D01*
X113425000Y-81506250D01*
X113423345Y-81539943D01*
X113418395Y-81573312D01*
X113410198Y-81606035D01*
X113398834Y-81637797D01*
X113384410Y-81668293D01*
X113367068Y-81697227D01*
X113346972Y-81724323D01*
X113324318Y-81749318D01*
X113299323Y-81771972D01*
X113272227Y-81792068D01*
X113243293Y-81809410D01*
X113212797Y-81823834D01*
X113181035Y-81835198D01*
X113148312Y-81843395D01*
X113114943Y-81848345D01*
X113081250Y-81850000D01*
X112393750Y-81850000D01*
X112360057Y-81848345D01*
X112326688Y-81843395D01*
X112293965Y-81835198D01*
X112262203Y-81823834D01*
X112231707Y-81809410D01*
X112202773Y-81792068D01*
X112175677Y-81771972D01*
X112150682Y-81749318D01*
X112128028Y-81724323D01*
X112107932Y-81697227D01*
X112090590Y-81668293D01*
X112076166Y-81637797D01*
X112064802Y-81606035D01*
X112056605Y-81573312D01*
X112051655Y-81539943D01*
X112050000Y-81506250D01*
X112050000Y-80393750D01*
X112051655Y-80360057D01*
X112056605Y-80326688D01*
X112064802Y-80293965D01*
X112076166Y-80262203D01*
X112090590Y-80231707D01*
X112107932Y-80202773D01*
X112128028Y-80175677D01*
X112150682Y-80150682D01*
X112175677Y-80128028D01*
X112202773Y-80107932D01*
X112231707Y-80090590D01*
X112262203Y-80076166D01*
X112293965Y-80064802D01*
X112326688Y-80056605D01*
X112360057Y-80051655D01*
X112393750Y-80050000D01*
X113081250Y-80050000D01*
X113114943Y-80051655D01*
X113114943Y-80051655D01*
G37*
D12*
X112737500Y-80950000D03*
D10*
G36*
X111239943Y-80051655D02*
X111273312Y-80056605D01*
X111306035Y-80064802D01*
X111337797Y-80076166D01*
X111368293Y-80090590D01*
X111397227Y-80107932D01*
X111424323Y-80128028D01*
X111449318Y-80150682D01*
X111471972Y-80175677D01*
X111492068Y-80202773D01*
X111509410Y-80231707D01*
X111523834Y-80262203D01*
X111535198Y-80293965D01*
X111543395Y-80326688D01*
X111548345Y-80360057D01*
X111550000Y-80393750D01*
X111550000Y-81506250D01*
X111548345Y-81539943D01*
X111543395Y-81573312D01*
X111535198Y-81606035D01*
X111523834Y-81637797D01*
X111509410Y-81668293D01*
X111492068Y-81697227D01*
X111471972Y-81724323D01*
X111449318Y-81749318D01*
X111424323Y-81771972D01*
X111397227Y-81792068D01*
X111368293Y-81809410D01*
X111337797Y-81823834D01*
X111306035Y-81835198D01*
X111273312Y-81843395D01*
X111239943Y-81848345D01*
X111206250Y-81850000D01*
X110518750Y-81850000D01*
X110485057Y-81848345D01*
X110451688Y-81843395D01*
X110418965Y-81835198D01*
X110387203Y-81823834D01*
X110356707Y-81809410D01*
X110327773Y-81792068D01*
X110300677Y-81771972D01*
X110275682Y-81749318D01*
X110253028Y-81724323D01*
X110232932Y-81697227D01*
X110215590Y-81668293D01*
X110201166Y-81637797D01*
X110189802Y-81606035D01*
X110181605Y-81573312D01*
X110176655Y-81539943D01*
X110175000Y-81506250D01*
X110175000Y-80393750D01*
X110176655Y-80360057D01*
X110181605Y-80326688D01*
X110189802Y-80293965D01*
X110201166Y-80262203D01*
X110215590Y-80231707D01*
X110232932Y-80202773D01*
X110253028Y-80175677D01*
X110275682Y-80150682D01*
X110300677Y-80128028D01*
X110327773Y-80107932D01*
X110356707Y-80090590D01*
X110387203Y-80076166D01*
X110418965Y-80064802D01*
X110451688Y-80056605D01*
X110485057Y-80051655D01*
X110518750Y-80050000D01*
X111206250Y-80050000D01*
X111239943Y-80051655D01*
X111239943Y-80051655D01*
G37*
D12*
X110862500Y-80950000D03*
G04 #@! TD*
D17*
G04 #@! TO.C,J2*
X118200000Y-69450000D03*
D18*
X115660000Y-69450000D03*
X113120000Y-69450000D03*
X110580000Y-69450000D03*
X108040000Y-69450000D03*
X105500000Y-69450000D03*
X102960000Y-69450000D03*
X100420000Y-69450000D03*
G04 #@! TD*
D10*
G04 #@! TO.C,R8*
G36*
X115189943Y-97051655D02*
X115223312Y-97056605D01*
X115256035Y-97064802D01*
X115287797Y-97076166D01*
X115318293Y-97090590D01*
X115347227Y-97107932D01*
X115374323Y-97128028D01*
X115399318Y-97150682D01*
X115421972Y-97175677D01*
X115442068Y-97202773D01*
X115459410Y-97231707D01*
X115473834Y-97262203D01*
X115485198Y-97293965D01*
X115493395Y-97326688D01*
X115498345Y-97360057D01*
X115500000Y-97393750D01*
X115500000Y-98506250D01*
X115498345Y-98539943D01*
X115493395Y-98573312D01*
X115485198Y-98606035D01*
X115473834Y-98637797D01*
X115459410Y-98668293D01*
X115442068Y-98697227D01*
X115421972Y-98724323D01*
X115399318Y-98749318D01*
X115374323Y-98771972D01*
X115347227Y-98792068D01*
X115318293Y-98809410D01*
X115287797Y-98823834D01*
X115256035Y-98835198D01*
X115223312Y-98843395D01*
X115189943Y-98848345D01*
X115156250Y-98850000D01*
X114468750Y-98850000D01*
X114435057Y-98848345D01*
X114401688Y-98843395D01*
X114368965Y-98835198D01*
X114337203Y-98823834D01*
X114306707Y-98809410D01*
X114277773Y-98792068D01*
X114250677Y-98771972D01*
X114225682Y-98749318D01*
X114203028Y-98724323D01*
X114182932Y-98697227D01*
X114165590Y-98668293D01*
X114151166Y-98637797D01*
X114139802Y-98606035D01*
X114131605Y-98573312D01*
X114126655Y-98539943D01*
X114125000Y-98506250D01*
X114125000Y-97393750D01*
X114126655Y-97360057D01*
X114131605Y-97326688D01*
X114139802Y-97293965D01*
X114151166Y-97262203D01*
X114165590Y-97231707D01*
X114182932Y-97202773D01*
X114203028Y-97175677D01*
X114225682Y-97150682D01*
X114250677Y-97128028D01*
X114277773Y-97107932D01*
X114306707Y-97090590D01*
X114337203Y-97076166D01*
X114368965Y-97064802D01*
X114401688Y-97056605D01*
X114435057Y-97051655D01*
X114468750Y-97050000D01*
X115156250Y-97050000D01*
X115189943Y-97051655D01*
X115189943Y-97051655D01*
G37*
D12*
X114812500Y-97950000D03*
D10*
G36*
X117064943Y-97051655D02*
X117098312Y-97056605D01*
X117131035Y-97064802D01*
X117162797Y-97076166D01*
X117193293Y-97090590D01*
X117222227Y-97107932D01*
X117249323Y-97128028D01*
X117274318Y-97150682D01*
X117296972Y-97175677D01*
X117317068Y-97202773D01*
X117334410Y-97231707D01*
X117348834Y-97262203D01*
X117360198Y-97293965D01*
X117368395Y-97326688D01*
X117373345Y-97360057D01*
X117375000Y-97393750D01*
X117375000Y-98506250D01*
X117373345Y-98539943D01*
X117368395Y-98573312D01*
X117360198Y-98606035D01*
X117348834Y-98637797D01*
X117334410Y-98668293D01*
X117317068Y-98697227D01*
X117296972Y-98724323D01*
X117274318Y-98749318D01*
X117249323Y-98771972D01*
X117222227Y-98792068D01*
X117193293Y-98809410D01*
X117162797Y-98823834D01*
X117131035Y-98835198D01*
X117098312Y-98843395D01*
X117064943Y-98848345D01*
X117031250Y-98850000D01*
X116343750Y-98850000D01*
X116310057Y-98848345D01*
X116276688Y-98843395D01*
X116243965Y-98835198D01*
X116212203Y-98823834D01*
X116181707Y-98809410D01*
X116152773Y-98792068D01*
X116125677Y-98771972D01*
X116100682Y-98749318D01*
X116078028Y-98724323D01*
X116057932Y-98697227D01*
X116040590Y-98668293D01*
X116026166Y-98637797D01*
X116014802Y-98606035D01*
X116006605Y-98573312D01*
X116001655Y-98539943D01*
X116000000Y-98506250D01*
X116000000Y-97393750D01*
X116001655Y-97360057D01*
X116006605Y-97326688D01*
X116014802Y-97293965D01*
X116026166Y-97262203D01*
X116040590Y-97231707D01*
X116057932Y-97202773D01*
X116078028Y-97175677D01*
X116100682Y-97150682D01*
X116125677Y-97128028D01*
X116152773Y-97107932D01*
X116181707Y-97090590D01*
X116212203Y-97076166D01*
X116243965Y-97064802D01*
X116276688Y-97056605D01*
X116310057Y-97051655D01*
X116343750Y-97050000D01*
X117031250Y-97050000D01*
X117064943Y-97051655D01*
X117064943Y-97051655D01*
G37*
D12*
X116687500Y-97950000D03*
G04 #@! TD*
D10*
G04 #@! TO.C,R9*
G36*
X108764943Y-96901655D02*
X108798312Y-96906605D01*
X108831035Y-96914802D01*
X108862797Y-96926166D01*
X108893293Y-96940590D01*
X108922227Y-96957932D01*
X108949323Y-96978028D01*
X108974318Y-97000682D01*
X108996972Y-97025677D01*
X109017068Y-97052773D01*
X109034410Y-97081707D01*
X109048834Y-97112203D01*
X109060198Y-97143965D01*
X109068395Y-97176688D01*
X109073345Y-97210057D01*
X109075000Y-97243750D01*
X109075000Y-98356250D01*
X109073345Y-98389943D01*
X109068395Y-98423312D01*
X109060198Y-98456035D01*
X109048834Y-98487797D01*
X109034410Y-98518293D01*
X109017068Y-98547227D01*
X108996972Y-98574323D01*
X108974318Y-98599318D01*
X108949323Y-98621972D01*
X108922227Y-98642068D01*
X108893293Y-98659410D01*
X108862797Y-98673834D01*
X108831035Y-98685198D01*
X108798312Y-98693395D01*
X108764943Y-98698345D01*
X108731250Y-98700000D01*
X108043750Y-98700000D01*
X108010057Y-98698345D01*
X107976688Y-98693395D01*
X107943965Y-98685198D01*
X107912203Y-98673834D01*
X107881707Y-98659410D01*
X107852773Y-98642068D01*
X107825677Y-98621972D01*
X107800682Y-98599318D01*
X107778028Y-98574323D01*
X107757932Y-98547227D01*
X107740590Y-98518293D01*
X107726166Y-98487797D01*
X107714802Y-98456035D01*
X107706605Y-98423312D01*
X107701655Y-98389943D01*
X107700000Y-98356250D01*
X107700000Y-97243750D01*
X107701655Y-97210057D01*
X107706605Y-97176688D01*
X107714802Y-97143965D01*
X107726166Y-97112203D01*
X107740590Y-97081707D01*
X107757932Y-97052773D01*
X107778028Y-97025677D01*
X107800682Y-97000682D01*
X107825677Y-96978028D01*
X107852773Y-96957932D01*
X107881707Y-96940590D01*
X107912203Y-96926166D01*
X107943965Y-96914802D01*
X107976688Y-96906605D01*
X108010057Y-96901655D01*
X108043750Y-96900000D01*
X108731250Y-96900000D01*
X108764943Y-96901655D01*
X108764943Y-96901655D01*
G37*
D12*
X108387500Y-97800000D03*
D10*
G36*
X106889943Y-96901655D02*
X106923312Y-96906605D01*
X106956035Y-96914802D01*
X106987797Y-96926166D01*
X107018293Y-96940590D01*
X107047227Y-96957932D01*
X107074323Y-96978028D01*
X107099318Y-97000682D01*
X107121972Y-97025677D01*
X107142068Y-97052773D01*
X107159410Y-97081707D01*
X107173834Y-97112203D01*
X107185198Y-97143965D01*
X107193395Y-97176688D01*
X107198345Y-97210057D01*
X107200000Y-97243750D01*
X107200000Y-98356250D01*
X107198345Y-98389943D01*
X107193395Y-98423312D01*
X107185198Y-98456035D01*
X107173834Y-98487797D01*
X107159410Y-98518293D01*
X107142068Y-98547227D01*
X107121972Y-98574323D01*
X107099318Y-98599318D01*
X107074323Y-98621972D01*
X107047227Y-98642068D01*
X107018293Y-98659410D01*
X106987797Y-98673834D01*
X106956035Y-98685198D01*
X106923312Y-98693395D01*
X106889943Y-98698345D01*
X106856250Y-98700000D01*
X106168750Y-98700000D01*
X106135057Y-98698345D01*
X106101688Y-98693395D01*
X106068965Y-98685198D01*
X106037203Y-98673834D01*
X106006707Y-98659410D01*
X105977773Y-98642068D01*
X105950677Y-98621972D01*
X105925682Y-98599318D01*
X105903028Y-98574323D01*
X105882932Y-98547227D01*
X105865590Y-98518293D01*
X105851166Y-98487797D01*
X105839802Y-98456035D01*
X105831605Y-98423312D01*
X105826655Y-98389943D01*
X105825000Y-98356250D01*
X105825000Y-97243750D01*
X105826655Y-97210057D01*
X105831605Y-97176688D01*
X105839802Y-97143965D01*
X105851166Y-97112203D01*
X105865590Y-97081707D01*
X105882932Y-97052773D01*
X105903028Y-97025677D01*
X105925682Y-97000682D01*
X105950677Y-96978028D01*
X105977773Y-96957932D01*
X106006707Y-96940590D01*
X106037203Y-96926166D01*
X106068965Y-96914802D01*
X106101688Y-96906605D01*
X106135057Y-96901655D01*
X106168750Y-96900000D01*
X106856250Y-96900000D01*
X106889943Y-96901655D01*
X106889943Y-96901655D01*
G37*
D12*
X106512500Y-97800000D03*
G04 #@! TD*
D19*
G04 #@! TO.C,U1*
X107200000Y-65900000D03*
X108150000Y-65900000D03*
X109100000Y-65900000D03*
X109100000Y-63700000D03*
X107200000Y-63700000D03*
G04 #@! TD*
D10*
G04 #@! TO.C,C2*
G36*
X111589943Y-65101655D02*
X111623312Y-65106605D01*
X111656035Y-65114802D01*
X111687797Y-65126166D01*
X111718293Y-65140590D01*
X111747227Y-65157932D01*
X111774323Y-65178028D01*
X111799318Y-65200682D01*
X111821972Y-65225677D01*
X111842068Y-65252773D01*
X111859410Y-65281707D01*
X111873834Y-65312203D01*
X111885198Y-65343965D01*
X111893395Y-65376688D01*
X111898345Y-65410057D01*
X111900000Y-65443750D01*
X111900000Y-66131250D01*
X111898345Y-66164943D01*
X111893395Y-66198312D01*
X111885198Y-66231035D01*
X111873834Y-66262797D01*
X111859410Y-66293293D01*
X111842068Y-66322227D01*
X111821972Y-66349323D01*
X111799318Y-66374318D01*
X111774323Y-66396972D01*
X111747227Y-66417068D01*
X111718293Y-66434410D01*
X111687797Y-66448834D01*
X111656035Y-66460198D01*
X111623312Y-66468395D01*
X111589943Y-66473345D01*
X111556250Y-66475000D01*
X110443750Y-66475000D01*
X110410057Y-66473345D01*
X110376688Y-66468395D01*
X110343965Y-66460198D01*
X110312203Y-66448834D01*
X110281707Y-66434410D01*
X110252773Y-66417068D01*
X110225677Y-66396972D01*
X110200682Y-66374318D01*
X110178028Y-66349323D01*
X110157932Y-66322227D01*
X110140590Y-66293293D01*
X110126166Y-66262797D01*
X110114802Y-66231035D01*
X110106605Y-66198312D01*
X110101655Y-66164943D01*
X110100000Y-66131250D01*
X110100000Y-65443750D01*
X110101655Y-65410057D01*
X110106605Y-65376688D01*
X110114802Y-65343965D01*
X110126166Y-65312203D01*
X110140590Y-65281707D01*
X110157932Y-65252773D01*
X110178028Y-65225677D01*
X110200682Y-65200682D01*
X110225677Y-65178028D01*
X110252773Y-65157932D01*
X110281707Y-65140590D01*
X110312203Y-65126166D01*
X110343965Y-65114802D01*
X110376688Y-65106605D01*
X110410057Y-65101655D01*
X110443750Y-65100000D01*
X111556250Y-65100000D01*
X111589943Y-65101655D01*
X111589943Y-65101655D01*
G37*
D12*
X111000000Y-65787500D03*
D10*
G36*
X111589943Y-63226655D02*
X111623312Y-63231605D01*
X111656035Y-63239802D01*
X111687797Y-63251166D01*
X111718293Y-63265590D01*
X111747227Y-63282932D01*
X111774323Y-63303028D01*
X111799318Y-63325682D01*
X111821972Y-63350677D01*
X111842068Y-63377773D01*
X111859410Y-63406707D01*
X111873834Y-63437203D01*
X111885198Y-63468965D01*
X111893395Y-63501688D01*
X111898345Y-63535057D01*
X111900000Y-63568750D01*
X111900000Y-64256250D01*
X111898345Y-64289943D01*
X111893395Y-64323312D01*
X111885198Y-64356035D01*
X111873834Y-64387797D01*
X111859410Y-64418293D01*
X111842068Y-64447227D01*
X111821972Y-64474323D01*
X111799318Y-64499318D01*
X111774323Y-64521972D01*
X111747227Y-64542068D01*
X111718293Y-64559410D01*
X111687797Y-64573834D01*
X111656035Y-64585198D01*
X111623312Y-64593395D01*
X111589943Y-64598345D01*
X111556250Y-64600000D01*
X110443750Y-64600000D01*
X110410057Y-64598345D01*
X110376688Y-64593395D01*
X110343965Y-64585198D01*
X110312203Y-64573834D01*
X110281707Y-64559410D01*
X110252773Y-64542068D01*
X110225677Y-64521972D01*
X110200682Y-64499318D01*
X110178028Y-64474323D01*
X110157932Y-64447227D01*
X110140590Y-64418293D01*
X110126166Y-64387797D01*
X110114802Y-64356035D01*
X110106605Y-64323312D01*
X110101655Y-64289943D01*
X110100000Y-64256250D01*
X110100000Y-63568750D01*
X110101655Y-63535057D01*
X110106605Y-63501688D01*
X110114802Y-63468965D01*
X110126166Y-63437203D01*
X110140590Y-63406707D01*
X110157932Y-63377773D01*
X110178028Y-63350677D01*
X110200682Y-63325682D01*
X110225677Y-63303028D01*
X110252773Y-63282932D01*
X110281707Y-63265590D01*
X110312203Y-63251166D01*
X110343965Y-63239802D01*
X110376688Y-63231605D01*
X110410057Y-63226655D01*
X110443750Y-63225000D01*
X111556250Y-63225000D01*
X111589943Y-63226655D01*
X111589943Y-63226655D01*
G37*
D12*
X111000000Y-63912500D03*
G04 #@! TD*
D10*
G04 #@! TO.C,C3*
G36*
X105839943Y-65051655D02*
X105873312Y-65056605D01*
X105906035Y-65064802D01*
X105937797Y-65076166D01*
X105968293Y-65090590D01*
X105997227Y-65107932D01*
X106024323Y-65128028D01*
X106049318Y-65150682D01*
X106071972Y-65175677D01*
X106092068Y-65202773D01*
X106109410Y-65231707D01*
X106123834Y-65262203D01*
X106135198Y-65293965D01*
X106143395Y-65326688D01*
X106148345Y-65360057D01*
X106150000Y-65393750D01*
X106150000Y-66081250D01*
X106148345Y-66114943D01*
X106143395Y-66148312D01*
X106135198Y-66181035D01*
X106123834Y-66212797D01*
X106109410Y-66243293D01*
X106092068Y-66272227D01*
X106071972Y-66299323D01*
X106049318Y-66324318D01*
X106024323Y-66346972D01*
X105997227Y-66367068D01*
X105968293Y-66384410D01*
X105937797Y-66398834D01*
X105906035Y-66410198D01*
X105873312Y-66418395D01*
X105839943Y-66423345D01*
X105806250Y-66425000D01*
X104693750Y-66425000D01*
X104660057Y-66423345D01*
X104626688Y-66418395D01*
X104593965Y-66410198D01*
X104562203Y-66398834D01*
X104531707Y-66384410D01*
X104502773Y-66367068D01*
X104475677Y-66346972D01*
X104450682Y-66324318D01*
X104428028Y-66299323D01*
X104407932Y-66272227D01*
X104390590Y-66243293D01*
X104376166Y-66212797D01*
X104364802Y-66181035D01*
X104356605Y-66148312D01*
X104351655Y-66114943D01*
X104350000Y-66081250D01*
X104350000Y-65393750D01*
X104351655Y-65360057D01*
X104356605Y-65326688D01*
X104364802Y-65293965D01*
X104376166Y-65262203D01*
X104390590Y-65231707D01*
X104407932Y-65202773D01*
X104428028Y-65175677D01*
X104450682Y-65150682D01*
X104475677Y-65128028D01*
X104502773Y-65107932D01*
X104531707Y-65090590D01*
X104562203Y-65076166D01*
X104593965Y-65064802D01*
X104626688Y-65056605D01*
X104660057Y-65051655D01*
X104693750Y-65050000D01*
X105806250Y-65050000D01*
X105839943Y-65051655D01*
X105839943Y-65051655D01*
G37*
D12*
X105250000Y-65737500D03*
D10*
G36*
X105839943Y-63176655D02*
X105873312Y-63181605D01*
X105906035Y-63189802D01*
X105937797Y-63201166D01*
X105968293Y-63215590D01*
X105997227Y-63232932D01*
X106024323Y-63253028D01*
X106049318Y-63275682D01*
X106071972Y-63300677D01*
X106092068Y-63327773D01*
X106109410Y-63356707D01*
X106123834Y-63387203D01*
X106135198Y-63418965D01*
X106143395Y-63451688D01*
X106148345Y-63485057D01*
X106150000Y-63518750D01*
X106150000Y-64206250D01*
X106148345Y-64239943D01*
X106143395Y-64273312D01*
X106135198Y-64306035D01*
X106123834Y-64337797D01*
X106109410Y-64368293D01*
X106092068Y-64397227D01*
X106071972Y-64424323D01*
X106049318Y-64449318D01*
X106024323Y-64471972D01*
X105997227Y-64492068D01*
X105968293Y-64509410D01*
X105937797Y-64523834D01*
X105906035Y-64535198D01*
X105873312Y-64543395D01*
X105839943Y-64548345D01*
X105806250Y-64550000D01*
X104693750Y-64550000D01*
X104660057Y-64548345D01*
X104626688Y-64543395D01*
X104593965Y-64535198D01*
X104562203Y-64523834D01*
X104531707Y-64509410D01*
X104502773Y-64492068D01*
X104475677Y-64471972D01*
X104450682Y-64449318D01*
X104428028Y-64424323D01*
X104407932Y-64397227D01*
X104390590Y-64368293D01*
X104376166Y-64337797D01*
X104364802Y-64306035D01*
X104356605Y-64273312D01*
X104351655Y-64239943D01*
X104350000Y-64206250D01*
X104350000Y-63518750D01*
X104351655Y-63485057D01*
X104356605Y-63451688D01*
X104364802Y-63418965D01*
X104376166Y-63387203D01*
X104390590Y-63356707D01*
X104407932Y-63327773D01*
X104428028Y-63300677D01*
X104450682Y-63275682D01*
X104475677Y-63253028D01*
X104502773Y-63232932D01*
X104531707Y-63215590D01*
X104562203Y-63201166D01*
X104593965Y-63189802D01*
X104626688Y-63181605D01*
X104660057Y-63176655D01*
X104693750Y-63175000D01*
X105806250Y-63175000D01*
X105839943Y-63176655D01*
X105839943Y-63176655D01*
G37*
D12*
X105250000Y-63862500D03*
G04 #@! TD*
M02*
