G04 #@! TF.GenerationSoftware,KiCad,Pcbnew,(5.0.0)*
G04 #@! TF.CreationDate,2018-12-24T10:33:18-05:00*
G04 #@! TF.ProjectId,uv_pcb,75765F7063622E6B696361645F706362,rev?*
G04 #@! TF.SameCoordinates,Original*
G04 #@! TF.FileFunction,Legend,Bot*
G04 #@! TF.FilePolarity,Positive*
%FSLAX46Y46*%
G04 Gerber Fmt 4.6, Leading zero omitted, Abs format (unit mm)*
G04 Created by KiCad (PCBNEW (5.0.0)) date 12/24/18 10:33:18*
%MOMM*%
%LPD*%
G01*
G04 APERTURE LIST*
%ADD10C,0.250000*%
%ADD11C,0.300000*%
%ADD12C,0.120000*%
%ADD13C,0.150000*%
G04 APERTURE END LIST*
D10*
X117752380Y-71859523D02*
X117752380Y-71383333D01*
X118228571Y-71335714D01*
X118180952Y-71383333D01*
X118133333Y-71478571D01*
X118133333Y-71716666D01*
X118180952Y-71811904D01*
X118228571Y-71859523D01*
X118323809Y-71907142D01*
X118561904Y-71907142D01*
X118657142Y-71859523D01*
X118704761Y-71811904D01*
X118752380Y-71716666D01*
X118752380Y-71478571D01*
X118704761Y-71383333D01*
X118657142Y-71335714D01*
X117752380Y-72192857D02*
X118752380Y-72526190D01*
X117752380Y-72859523D01*
X115052380Y-71004761D02*
X115861904Y-71004761D01*
X115957142Y-71052380D01*
X116004761Y-71100000D01*
X116052380Y-71195238D01*
X116052380Y-71385714D01*
X116004761Y-71480952D01*
X115957142Y-71528571D01*
X115861904Y-71576190D01*
X115052380Y-71576190D01*
X115052380Y-71909523D02*
X116052380Y-72242857D01*
X115052380Y-72576190D01*
X113602380Y-71602380D02*
X113126190Y-71269047D01*
X113602380Y-71030952D02*
X112602380Y-71030952D01*
X112602380Y-71411904D01*
X112650000Y-71507142D01*
X112697619Y-71554761D01*
X112792857Y-71602380D01*
X112935714Y-71602380D01*
X113030952Y-71554761D01*
X113078571Y-71507142D01*
X113126190Y-71411904D01*
X113126190Y-71030952D01*
X113554761Y-71983333D02*
X113602380Y-72126190D01*
X113602380Y-72364285D01*
X113554761Y-72459523D01*
X113507142Y-72507142D01*
X113411904Y-72554761D01*
X113316666Y-72554761D01*
X113221428Y-72507142D01*
X113173809Y-72459523D01*
X113126190Y-72364285D01*
X113078571Y-72173809D01*
X113030952Y-72078571D01*
X112983333Y-72030952D01*
X112888095Y-71983333D01*
X112792857Y-71983333D01*
X112697619Y-72030952D01*
X112650000Y-72078571D01*
X112602380Y-72173809D01*
X112602380Y-72411904D01*
X112650000Y-72554761D01*
X112602380Y-72840476D02*
X112602380Y-73411904D01*
X113602380Y-73126190D02*
X112602380Y-73126190D01*
X110957142Y-71633333D02*
X111004761Y-71585714D01*
X111052380Y-71442857D01*
X111052380Y-71347619D01*
X111004761Y-71204761D01*
X110909523Y-71109523D01*
X110814285Y-71061904D01*
X110623809Y-71014285D01*
X110480952Y-71014285D01*
X110290476Y-71061904D01*
X110195238Y-71109523D01*
X110100000Y-71204761D01*
X110052380Y-71347619D01*
X110052380Y-71442857D01*
X110100000Y-71585714D01*
X110147619Y-71633333D01*
X111004761Y-72014285D02*
X111052380Y-72157142D01*
X111052380Y-72395238D01*
X111004761Y-72490476D01*
X110957142Y-72538095D01*
X110861904Y-72585714D01*
X110766666Y-72585714D01*
X110671428Y-72538095D01*
X110623809Y-72490476D01*
X110576190Y-72395238D01*
X110528571Y-72204761D01*
X110480952Y-72109523D01*
X110433333Y-72061904D01*
X110338095Y-72014285D01*
X110242857Y-72014285D01*
X110147619Y-72061904D01*
X110100000Y-72109523D01*
X110052380Y-72204761D01*
X110052380Y-72442857D01*
X110100000Y-72585714D01*
X108552380Y-71088095D02*
X107552380Y-71088095D01*
X107552380Y-71326190D01*
X107600000Y-71469047D01*
X107695238Y-71564285D01*
X107790476Y-71611904D01*
X107980952Y-71659523D01*
X108123809Y-71659523D01*
X108314285Y-71611904D01*
X108409523Y-71564285D01*
X108504761Y-71469047D01*
X108552380Y-71326190D01*
X108552380Y-71088095D01*
X108457142Y-72659523D02*
X108504761Y-72611904D01*
X108552380Y-72469047D01*
X108552380Y-72373809D01*
X108504761Y-72230952D01*
X108409523Y-72135714D01*
X108314285Y-72088095D01*
X108123809Y-72040476D01*
X107980952Y-72040476D01*
X107790476Y-72088095D01*
X107695238Y-72135714D01*
X107600000Y-72230952D01*
X107552380Y-72373809D01*
X107552380Y-72469047D01*
X107600000Y-72611904D01*
X107647619Y-72659523D01*
X105957142Y-71654761D02*
X106004761Y-71607142D01*
X106052380Y-71464285D01*
X106052380Y-71369047D01*
X106004761Y-71226190D01*
X105909523Y-71130952D01*
X105814285Y-71083333D01*
X105623809Y-71035714D01*
X105480952Y-71035714D01*
X105290476Y-71083333D01*
X105195238Y-71130952D01*
X105100000Y-71226190D01*
X105052380Y-71369047D01*
X105052380Y-71464285D01*
X105100000Y-71607142D01*
X105147619Y-71654761D01*
X106052380Y-72559523D02*
X106052380Y-72083333D01*
X105052380Y-72083333D01*
X106052380Y-72892857D02*
X105052380Y-72892857D01*
X106052380Y-73464285D02*
X105480952Y-73035714D01*
X105052380Y-73464285D02*
X105623809Y-72892857D01*
D11*
X103657142Y-71114285D02*
X103728571Y-71328571D01*
X103728571Y-71685714D01*
X103657142Y-71828571D01*
X103585714Y-71900000D01*
X103442857Y-71971428D01*
X103300000Y-71971428D01*
X103157142Y-71900000D01*
X103085714Y-71828571D01*
X103014285Y-71685714D01*
X102942857Y-71400000D01*
X102871428Y-71257142D01*
X102800000Y-71185714D01*
X102657142Y-71114285D01*
X102514285Y-71114285D01*
X102371428Y-71185714D01*
X102300000Y-71257142D01*
X102228571Y-71400000D01*
X102228571Y-71757142D01*
X102300000Y-71971428D01*
X103728571Y-72614285D02*
X102228571Y-72614285D01*
X99650000Y-72742857D02*
X99578571Y-72600000D01*
X99578571Y-72385714D01*
X99650000Y-72171428D01*
X99792857Y-72028571D01*
X99935714Y-71957142D01*
X100221428Y-71885714D01*
X100435714Y-71885714D01*
X100721428Y-71957142D01*
X100864285Y-72028571D01*
X101007142Y-72171428D01*
X101078571Y-72385714D01*
X101078571Y-72528571D01*
X101007142Y-72742857D01*
X100935714Y-72814285D01*
X100435714Y-72814285D01*
X100435714Y-72528571D01*
D12*
G04 #@! TO.C,J2*
X119530000Y-68010000D02*
X99090000Y-68010000D01*
X99090000Y-68010000D02*
X99090000Y-65350000D01*
X99090000Y-65350000D02*
X119530000Y-65350000D01*
X119530000Y-65350000D02*
X119530000Y-68010000D01*
X118580000Y-65350000D02*
X118580000Y-59350000D01*
X118580000Y-59350000D02*
X117820000Y-59350000D01*
X117820000Y-59350000D02*
X117820000Y-65350000D01*
X118520000Y-65350000D02*
X118520000Y-59350000D01*
X118400000Y-65350000D02*
X118400000Y-59350000D01*
X118280000Y-65350000D02*
X118280000Y-59350000D01*
X118160000Y-65350000D02*
X118160000Y-59350000D01*
X118040000Y-65350000D02*
X118040000Y-59350000D01*
X117920000Y-65350000D02*
X117920000Y-59350000D01*
X118580000Y-68340000D02*
X118580000Y-68010000D01*
X117820000Y-68340000D02*
X117820000Y-68010000D01*
X116930000Y-68010000D02*
X116930000Y-65350000D01*
X116040000Y-65350000D02*
X116040000Y-59350000D01*
X116040000Y-59350000D02*
X115280000Y-59350000D01*
X115280000Y-59350000D02*
X115280000Y-65350000D01*
X116040000Y-68407071D02*
X116040000Y-68010000D01*
X115280000Y-68407071D02*
X115280000Y-68010000D01*
X114390000Y-68010000D02*
X114390000Y-65350000D01*
X113500000Y-65350000D02*
X113500000Y-59350000D01*
X113500000Y-59350000D02*
X112740000Y-59350000D01*
X112740000Y-59350000D02*
X112740000Y-65350000D01*
X113500000Y-68407071D02*
X113500000Y-68010000D01*
X112740000Y-68407071D02*
X112740000Y-68010000D01*
X111850000Y-68010000D02*
X111850000Y-65350000D01*
X110960000Y-65350000D02*
X110960000Y-59350000D01*
X110960000Y-59350000D02*
X110200000Y-59350000D01*
X110200000Y-59350000D02*
X110200000Y-65350000D01*
X110960000Y-68407071D02*
X110960000Y-68010000D01*
X110200000Y-68407071D02*
X110200000Y-68010000D01*
X109310000Y-68010000D02*
X109310000Y-65350000D01*
X108420000Y-65350000D02*
X108420000Y-59350000D01*
X108420000Y-59350000D02*
X107660000Y-59350000D01*
X107660000Y-59350000D02*
X107660000Y-65350000D01*
X108420000Y-68407071D02*
X108420000Y-68010000D01*
X107660000Y-68407071D02*
X107660000Y-68010000D01*
X106770000Y-68010000D02*
X106770000Y-65350000D01*
X105880000Y-65350000D02*
X105880000Y-59350000D01*
X105880000Y-59350000D02*
X105120000Y-59350000D01*
X105120000Y-59350000D02*
X105120000Y-65350000D01*
X105880000Y-68407071D02*
X105880000Y-68010000D01*
X105120000Y-68407071D02*
X105120000Y-68010000D01*
X104230000Y-68010000D02*
X104230000Y-65350000D01*
X103340000Y-65350000D02*
X103340000Y-59350000D01*
X103340000Y-59350000D02*
X102580000Y-59350000D01*
X102580000Y-59350000D02*
X102580000Y-65350000D01*
X103340000Y-68407071D02*
X103340000Y-68010000D01*
X102580000Y-68407071D02*
X102580000Y-68010000D01*
X101690000Y-68010000D02*
X101690000Y-65350000D01*
X100800000Y-65350000D02*
X100800000Y-59350000D01*
X100800000Y-59350000D02*
X100040000Y-59350000D01*
X100040000Y-59350000D02*
X100040000Y-65350000D01*
X100800000Y-68407071D02*
X100800000Y-68010000D01*
X100040000Y-68407071D02*
X100040000Y-68010000D01*
X118200000Y-70720000D02*
X119470000Y-70720000D01*
X119470000Y-70720000D02*
X119470000Y-69450000D01*
D13*
X119922380Y-64731666D02*
X120636666Y-64731666D01*
X120779523Y-64684047D01*
X120874761Y-64588809D01*
X120922380Y-64445952D01*
X120922380Y-64350714D01*
X120017619Y-65160238D02*
X119970000Y-65207857D01*
X119922380Y-65303095D01*
X119922380Y-65541190D01*
X119970000Y-65636428D01*
X120017619Y-65684047D01*
X120112857Y-65731666D01*
X120208095Y-65731666D01*
X120350952Y-65684047D01*
X120922380Y-65112619D01*
X120922380Y-65731666D01*
G04 #@! TD*
M02*
