G04 #@! TF.GenerationSoftware,KiCad,Pcbnew,(5.0.0)*
G04 #@! TF.CreationDate,2018-12-14T13:41:46-05:00*
G04 #@! TF.ProjectId,uv_pcb,75765F7063622E6B696361645F706362,rev?*
G04 #@! TF.SameCoordinates,Original*
G04 #@! TF.FileFunction,Copper,L1,Top,Signal*
G04 #@! TF.FilePolarity,Positive*
%FSLAX46Y46*%
G04 Gerber Fmt 4.6, Leading zero omitted, Abs format (unit mm)*
G04 Created by KiCad (PCBNEW (5.0.0)) date 12/14/18 13:41:46*
%MOMM*%
%LPD*%
G01*
G04 APERTURE LIST*
G04 #@! TA.AperFunction,Conductor*
%ADD10C,0.100000*%
G04 #@! TD*
G04 #@! TA.AperFunction,SMDPad,CuDef*
%ADD11C,1.600000*%
G04 #@! TD*
G04 #@! TA.AperFunction,SMDPad,CuDef*
%ADD12C,0.975000*%
G04 #@! TD*
G04 #@! TA.AperFunction,SMDPad,CuDef*
%ADD13R,1.400000X2.900000*%
G04 #@! TD*
G04 #@! TA.AperFunction,SMDPad,CuDef*
%ADD14R,0.400000X1.600000*%
G04 #@! TD*
G04 #@! TA.AperFunction,SMDPad,CuDef*
%ADD15R,0.800000X0.900000*%
G04 #@! TD*
G04 #@! TA.AperFunction,SMDPad,CuDef*
%ADD16R,1.600000X3.000000*%
G04 #@! TD*
G04 #@! TA.AperFunction,ComponentPad*
%ADD17R,1.700000X1.700000*%
G04 #@! TD*
G04 #@! TA.AperFunction,ComponentPad*
%ADD18O,1.700000X1.700000*%
G04 #@! TD*
G04 #@! TA.AperFunction,SMDPad,CuDef*
%ADD19R,0.650000X1.060000*%
G04 #@! TD*
G04 #@! TA.AperFunction,ViaPad*
%ADD20C,0.800000*%
G04 #@! TD*
G04 #@! TA.AperFunction,ViaPad*
%ADD21C,0.600000*%
G04 #@! TD*
G04 #@! TA.AperFunction,Conductor*
%ADD22C,0.200000*%
G04 #@! TD*
G04 #@! TA.AperFunction,Conductor*
%ADD23C,0.600000*%
G04 #@! TD*
G04 #@! TA.AperFunction,Conductor*
%ADD24C,0.400000*%
G04 #@! TD*
G04 #@! TA.AperFunction,Conductor*
%ADD25C,0.254000*%
G04 #@! TD*
G04 APERTURE END LIST*
D10*
G04 #@! TO.N,Net-(D2-Pad1)*
G04 #@! TO.C,D2*
G36*
X115354616Y-74501710D02*
X115389096Y-74506825D01*
X115422909Y-74515295D01*
X115455729Y-74527038D01*
X115487240Y-74541942D01*
X115517139Y-74559862D01*
X115545136Y-74580627D01*
X115570964Y-74604036D01*
X115594373Y-74629864D01*
X115615138Y-74657861D01*
X115633058Y-74687760D01*
X115647962Y-74719271D01*
X115659705Y-74752091D01*
X115668175Y-74785904D01*
X115673290Y-74820384D01*
X115675000Y-74855200D01*
X115675000Y-76544800D01*
X115673290Y-76579616D01*
X115668175Y-76614096D01*
X115659705Y-76647909D01*
X115647962Y-76680729D01*
X115633058Y-76712240D01*
X115615138Y-76742139D01*
X115594373Y-76770136D01*
X115570964Y-76795964D01*
X115545136Y-76819373D01*
X115517139Y-76840138D01*
X115487240Y-76858058D01*
X115455729Y-76872962D01*
X115422909Y-76884705D01*
X115389096Y-76893175D01*
X115354616Y-76898290D01*
X115319800Y-76900000D01*
X114430200Y-76900000D01*
X114395384Y-76898290D01*
X114360904Y-76893175D01*
X114327091Y-76884705D01*
X114294271Y-76872962D01*
X114262760Y-76858058D01*
X114232861Y-76840138D01*
X114204864Y-76819373D01*
X114179036Y-76795964D01*
X114155627Y-76770136D01*
X114134862Y-76742139D01*
X114116942Y-76712240D01*
X114102038Y-76680729D01*
X114090295Y-76647909D01*
X114081825Y-76614096D01*
X114076710Y-76579616D01*
X114075000Y-76544800D01*
X114075000Y-74855200D01*
X114076710Y-74820384D01*
X114081825Y-74785904D01*
X114090295Y-74752091D01*
X114102038Y-74719271D01*
X114116942Y-74687760D01*
X114134862Y-74657861D01*
X114155627Y-74629864D01*
X114179036Y-74604036D01*
X114204864Y-74580627D01*
X114232861Y-74559862D01*
X114262760Y-74541942D01*
X114294271Y-74527038D01*
X114327091Y-74515295D01*
X114360904Y-74506825D01*
X114395384Y-74501710D01*
X114430200Y-74500000D01*
X115319800Y-74500000D01*
X115354616Y-74501710D01*
X115354616Y-74501710D01*
G37*
D11*
G04 #@! TD*
G04 #@! TO.P,D2,1*
G04 #@! TO.N,Net-(D2-Pad1)*
X114875000Y-75700000D03*
D10*
G04 #@! TO.N,+5V*
G04 #@! TO.C,D2*
G36*
X118204616Y-74501710D02*
X118239096Y-74506825D01*
X118272909Y-74515295D01*
X118305729Y-74527038D01*
X118337240Y-74541942D01*
X118367139Y-74559862D01*
X118395136Y-74580627D01*
X118420964Y-74604036D01*
X118444373Y-74629864D01*
X118465138Y-74657861D01*
X118483058Y-74687760D01*
X118497962Y-74719271D01*
X118509705Y-74752091D01*
X118518175Y-74785904D01*
X118523290Y-74820384D01*
X118525000Y-74855200D01*
X118525000Y-76544800D01*
X118523290Y-76579616D01*
X118518175Y-76614096D01*
X118509705Y-76647909D01*
X118497962Y-76680729D01*
X118483058Y-76712240D01*
X118465138Y-76742139D01*
X118444373Y-76770136D01*
X118420964Y-76795964D01*
X118395136Y-76819373D01*
X118367139Y-76840138D01*
X118337240Y-76858058D01*
X118305729Y-76872962D01*
X118272909Y-76884705D01*
X118239096Y-76893175D01*
X118204616Y-76898290D01*
X118169800Y-76900000D01*
X117280200Y-76900000D01*
X117245384Y-76898290D01*
X117210904Y-76893175D01*
X117177091Y-76884705D01*
X117144271Y-76872962D01*
X117112760Y-76858058D01*
X117082861Y-76840138D01*
X117054864Y-76819373D01*
X117029036Y-76795964D01*
X117005627Y-76770136D01*
X116984862Y-76742139D01*
X116966942Y-76712240D01*
X116952038Y-76680729D01*
X116940295Y-76647909D01*
X116931825Y-76614096D01*
X116926710Y-76579616D01*
X116925000Y-76544800D01*
X116925000Y-74855200D01*
X116926710Y-74820384D01*
X116931825Y-74785904D01*
X116940295Y-74752091D01*
X116952038Y-74719271D01*
X116966942Y-74687760D01*
X116984862Y-74657861D01*
X117005627Y-74629864D01*
X117029036Y-74604036D01*
X117054864Y-74580627D01*
X117082861Y-74559862D01*
X117112760Y-74541942D01*
X117144271Y-74527038D01*
X117177091Y-74515295D01*
X117210904Y-74506825D01*
X117245384Y-74501710D01*
X117280200Y-74500000D01*
X118169800Y-74500000D01*
X118204616Y-74501710D01*
X118204616Y-74501710D01*
G37*
D11*
G04 #@! TD*
G04 #@! TO.P,D2,2*
G04 #@! TO.N,+5V*
X117725000Y-75700000D03*
D10*
G04 #@! TO.N,+5V*
G04 #@! TO.C,D1*
G36*
X113704616Y-82401710D02*
X113739096Y-82406825D01*
X113772909Y-82415295D01*
X113805729Y-82427038D01*
X113837240Y-82441942D01*
X113867139Y-82459862D01*
X113895136Y-82480627D01*
X113920964Y-82504036D01*
X113944373Y-82529864D01*
X113965138Y-82557861D01*
X113983058Y-82587760D01*
X113997962Y-82619271D01*
X114009705Y-82652091D01*
X114018175Y-82685904D01*
X114023290Y-82720384D01*
X114025000Y-82755200D01*
X114025000Y-84444800D01*
X114023290Y-84479616D01*
X114018175Y-84514096D01*
X114009705Y-84547909D01*
X113997962Y-84580729D01*
X113983058Y-84612240D01*
X113965138Y-84642139D01*
X113944373Y-84670136D01*
X113920964Y-84695964D01*
X113895136Y-84719373D01*
X113867139Y-84740138D01*
X113837240Y-84758058D01*
X113805729Y-84772962D01*
X113772909Y-84784705D01*
X113739096Y-84793175D01*
X113704616Y-84798290D01*
X113669800Y-84800000D01*
X112780200Y-84800000D01*
X112745384Y-84798290D01*
X112710904Y-84793175D01*
X112677091Y-84784705D01*
X112644271Y-84772962D01*
X112612760Y-84758058D01*
X112582861Y-84740138D01*
X112554864Y-84719373D01*
X112529036Y-84695964D01*
X112505627Y-84670136D01*
X112484862Y-84642139D01*
X112466942Y-84612240D01*
X112452038Y-84580729D01*
X112440295Y-84547909D01*
X112431825Y-84514096D01*
X112426710Y-84479616D01*
X112425000Y-84444800D01*
X112425000Y-82755200D01*
X112426710Y-82720384D01*
X112431825Y-82685904D01*
X112440295Y-82652091D01*
X112452038Y-82619271D01*
X112466942Y-82587760D01*
X112484862Y-82557861D01*
X112505627Y-82529864D01*
X112529036Y-82504036D01*
X112554864Y-82480627D01*
X112582861Y-82459862D01*
X112612760Y-82441942D01*
X112644271Y-82427038D01*
X112677091Y-82415295D01*
X112710904Y-82406825D01*
X112745384Y-82401710D01*
X112780200Y-82400000D01*
X113669800Y-82400000D01*
X113704616Y-82401710D01*
X113704616Y-82401710D01*
G37*
D11*
G04 #@! TD*
G04 #@! TO.P,D1,2*
G04 #@! TO.N,+5V*
X113225000Y-83600000D03*
D10*
G04 #@! TO.N,Net-(D1-Pad1)*
G04 #@! TO.C,D1*
G36*
X110854616Y-82401710D02*
X110889096Y-82406825D01*
X110922909Y-82415295D01*
X110955729Y-82427038D01*
X110987240Y-82441942D01*
X111017139Y-82459862D01*
X111045136Y-82480627D01*
X111070964Y-82504036D01*
X111094373Y-82529864D01*
X111115138Y-82557861D01*
X111133058Y-82587760D01*
X111147962Y-82619271D01*
X111159705Y-82652091D01*
X111168175Y-82685904D01*
X111173290Y-82720384D01*
X111175000Y-82755200D01*
X111175000Y-84444800D01*
X111173290Y-84479616D01*
X111168175Y-84514096D01*
X111159705Y-84547909D01*
X111147962Y-84580729D01*
X111133058Y-84612240D01*
X111115138Y-84642139D01*
X111094373Y-84670136D01*
X111070964Y-84695964D01*
X111045136Y-84719373D01*
X111017139Y-84740138D01*
X110987240Y-84758058D01*
X110955729Y-84772962D01*
X110922909Y-84784705D01*
X110889096Y-84793175D01*
X110854616Y-84798290D01*
X110819800Y-84800000D01*
X109930200Y-84800000D01*
X109895384Y-84798290D01*
X109860904Y-84793175D01*
X109827091Y-84784705D01*
X109794271Y-84772962D01*
X109762760Y-84758058D01*
X109732861Y-84740138D01*
X109704864Y-84719373D01*
X109679036Y-84695964D01*
X109655627Y-84670136D01*
X109634862Y-84642139D01*
X109616942Y-84612240D01*
X109602038Y-84580729D01*
X109590295Y-84547909D01*
X109581825Y-84514096D01*
X109576710Y-84479616D01*
X109575000Y-84444800D01*
X109575000Y-82755200D01*
X109576710Y-82720384D01*
X109581825Y-82685904D01*
X109590295Y-82652091D01*
X109602038Y-82619271D01*
X109616942Y-82587760D01*
X109634862Y-82557861D01*
X109655627Y-82529864D01*
X109679036Y-82504036D01*
X109704864Y-82480627D01*
X109732861Y-82459862D01*
X109762760Y-82441942D01*
X109794271Y-82427038D01*
X109827091Y-82415295D01*
X109860904Y-82406825D01*
X109895384Y-82401710D01*
X109930200Y-82400000D01*
X110819800Y-82400000D01*
X110854616Y-82401710D01*
X110854616Y-82401710D01*
G37*
D11*
G04 #@! TD*
G04 #@! TO.P,D1,1*
G04 #@! TO.N,Net-(D1-Pad1)*
X110375000Y-83600000D03*
D10*
G04 #@! TO.N,Net-(D6-Pad1)*
G04 #@! TO.C,D6*
G36*
X101854616Y-82201710D02*
X101889096Y-82206825D01*
X101922909Y-82215295D01*
X101955729Y-82227038D01*
X101987240Y-82241942D01*
X102017139Y-82259862D01*
X102045136Y-82280627D01*
X102070964Y-82304036D01*
X102094373Y-82329864D01*
X102115138Y-82357861D01*
X102133058Y-82387760D01*
X102147962Y-82419271D01*
X102159705Y-82452091D01*
X102168175Y-82485904D01*
X102173290Y-82520384D01*
X102175000Y-82555200D01*
X102175000Y-84244800D01*
X102173290Y-84279616D01*
X102168175Y-84314096D01*
X102159705Y-84347909D01*
X102147962Y-84380729D01*
X102133058Y-84412240D01*
X102115138Y-84442139D01*
X102094373Y-84470136D01*
X102070964Y-84495964D01*
X102045136Y-84519373D01*
X102017139Y-84540138D01*
X101987240Y-84558058D01*
X101955729Y-84572962D01*
X101922909Y-84584705D01*
X101889096Y-84593175D01*
X101854616Y-84598290D01*
X101819800Y-84600000D01*
X100930200Y-84600000D01*
X100895384Y-84598290D01*
X100860904Y-84593175D01*
X100827091Y-84584705D01*
X100794271Y-84572962D01*
X100762760Y-84558058D01*
X100732861Y-84540138D01*
X100704864Y-84519373D01*
X100679036Y-84495964D01*
X100655627Y-84470136D01*
X100634862Y-84442139D01*
X100616942Y-84412240D01*
X100602038Y-84380729D01*
X100590295Y-84347909D01*
X100581825Y-84314096D01*
X100576710Y-84279616D01*
X100575000Y-84244800D01*
X100575000Y-82555200D01*
X100576710Y-82520384D01*
X100581825Y-82485904D01*
X100590295Y-82452091D01*
X100602038Y-82419271D01*
X100616942Y-82387760D01*
X100634862Y-82357861D01*
X100655627Y-82329864D01*
X100679036Y-82304036D01*
X100704864Y-82280627D01*
X100732861Y-82259862D01*
X100762760Y-82241942D01*
X100794271Y-82227038D01*
X100827091Y-82215295D01*
X100860904Y-82206825D01*
X100895384Y-82201710D01*
X100930200Y-82200000D01*
X101819800Y-82200000D01*
X101854616Y-82201710D01*
X101854616Y-82201710D01*
G37*
D11*
G04 #@! TD*
G04 #@! TO.P,D6,1*
G04 #@! TO.N,Net-(D6-Pad1)*
X101375000Y-83400000D03*
D10*
G04 #@! TO.N,+5V*
G04 #@! TO.C,D6*
G36*
X104704616Y-82201710D02*
X104739096Y-82206825D01*
X104772909Y-82215295D01*
X104805729Y-82227038D01*
X104837240Y-82241942D01*
X104867139Y-82259862D01*
X104895136Y-82280627D01*
X104920964Y-82304036D01*
X104944373Y-82329864D01*
X104965138Y-82357861D01*
X104983058Y-82387760D01*
X104997962Y-82419271D01*
X105009705Y-82452091D01*
X105018175Y-82485904D01*
X105023290Y-82520384D01*
X105025000Y-82555200D01*
X105025000Y-84244800D01*
X105023290Y-84279616D01*
X105018175Y-84314096D01*
X105009705Y-84347909D01*
X104997962Y-84380729D01*
X104983058Y-84412240D01*
X104965138Y-84442139D01*
X104944373Y-84470136D01*
X104920964Y-84495964D01*
X104895136Y-84519373D01*
X104867139Y-84540138D01*
X104837240Y-84558058D01*
X104805729Y-84572962D01*
X104772909Y-84584705D01*
X104739096Y-84593175D01*
X104704616Y-84598290D01*
X104669800Y-84600000D01*
X103780200Y-84600000D01*
X103745384Y-84598290D01*
X103710904Y-84593175D01*
X103677091Y-84584705D01*
X103644271Y-84572962D01*
X103612760Y-84558058D01*
X103582861Y-84540138D01*
X103554864Y-84519373D01*
X103529036Y-84495964D01*
X103505627Y-84470136D01*
X103484862Y-84442139D01*
X103466942Y-84412240D01*
X103452038Y-84380729D01*
X103440295Y-84347909D01*
X103431825Y-84314096D01*
X103426710Y-84279616D01*
X103425000Y-84244800D01*
X103425000Y-82555200D01*
X103426710Y-82520384D01*
X103431825Y-82485904D01*
X103440295Y-82452091D01*
X103452038Y-82419271D01*
X103466942Y-82387760D01*
X103484862Y-82357861D01*
X103505627Y-82329864D01*
X103529036Y-82304036D01*
X103554864Y-82280627D01*
X103582861Y-82259862D01*
X103612760Y-82241942D01*
X103644271Y-82227038D01*
X103677091Y-82215295D01*
X103710904Y-82206825D01*
X103745384Y-82201710D01*
X103780200Y-82200000D01*
X104669800Y-82200000D01*
X104704616Y-82201710D01*
X104704616Y-82201710D01*
G37*
D11*
G04 #@! TD*
G04 #@! TO.P,D6,2*
G04 #@! TO.N,+5V*
X104225000Y-83400000D03*
D10*
G04 #@! TO.N,+5V*
G04 #@! TO.C,D5*
G36*
X109204616Y-90101710D02*
X109239096Y-90106825D01*
X109272909Y-90115295D01*
X109305729Y-90127038D01*
X109337240Y-90141942D01*
X109367139Y-90159862D01*
X109395136Y-90180627D01*
X109420964Y-90204036D01*
X109444373Y-90229864D01*
X109465138Y-90257861D01*
X109483058Y-90287760D01*
X109497962Y-90319271D01*
X109509705Y-90352091D01*
X109518175Y-90385904D01*
X109523290Y-90420384D01*
X109525000Y-90455200D01*
X109525000Y-92144800D01*
X109523290Y-92179616D01*
X109518175Y-92214096D01*
X109509705Y-92247909D01*
X109497962Y-92280729D01*
X109483058Y-92312240D01*
X109465138Y-92342139D01*
X109444373Y-92370136D01*
X109420964Y-92395964D01*
X109395136Y-92419373D01*
X109367139Y-92440138D01*
X109337240Y-92458058D01*
X109305729Y-92472962D01*
X109272909Y-92484705D01*
X109239096Y-92493175D01*
X109204616Y-92498290D01*
X109169800Y-92500000D01*
X108280200Y-92500000D01*
X108245384Y-92498290D01*
X108210904Y-92493175D01*
X108177091Y-92484705D01*
X108144271Y-92472962D01*
X108112760Y-92458058D01*
X108082861Y-92440138D01*
X108054864Y-92419373D01*
X108029036Y-92395964D01*
X108005627Y-92370136D01*
X107984862Y-92342139D01*
X107966942Y-92312240D01*
X107952038Y-92280729D01*
X107940295Y-92247909D01*
X107931825Y-92214096D01*
X107926710Y-92179616D01*
X107925000Y-92144800D01*
X107925000Y-90455200D01*
X107926710Y-90420384D01*
X107931825Y-90385904D01*
X107940295Y-90352091D01*
X107952038Y-90319271D01*
X107966942Y-90287760D01*
X107984862Y-90257861D01*
X108005627Y-90229864D01*
X108029036Y-90204036D01*
X108054864Y-90180627D01*
X108082861Y-90159862D01*
X108112760Y-90141942D01*
X108144271Y-90127038D01*
X108177091Y-90115295D01*
X108210904Y-90106825D01*
X108245384Y-90101710D01*
X108280200Y-90100000D01*
X109169800Y-90100000D01*
X109204616Y-90101710D01*
X109204616Y-90101710D01*
G37*
D11*
G04 #@! TD*
G04 #@! TO.P,D5,2*
G04 #@! TO.N,+5V*
X108725000Y-91300000D03*
D10*
G04 #@! TO.N,Net-(D5-Pad1)*
G04 #@! TO.C,D5*
G36*
X106354616Y-90101710D02*
X106389096Y-90106825D01*
X106422909Y-90115295D01*
X106455729Y-90127038D01*
X106487240Y-90141942D01*
X106517139Y-90159862D01*
X106545136Y-90180627D01*
X106570964Y-90204036D01*
X106594373Y-90229864D01*
X106615138Y-90257861D01*
X106633058Y-90287760D01*
X106647962Y-90319271D01*
X106659705Y-90352091D01*
X106668175Y-90385904D01*
X106673290Y-90420384D01*
X106675000Y-90455200D01*
X106675000Y-92144800D01*
X106673290Y-92179616D01*
X106668175Y-92214096D01*
X106659705Y-92247909D01*
X106647962Y-92280729D01*
X106633058Y-92312240D01*
X106615138Y-92342139D01*
X106594373Y-92370136D01*
X106570964Y-92395964D01*
X106545136Y-92419373D01*
X106517139Y-92440138D01*
X106487240Y-92458058D01*
X106455729Y-92472962D01*
X106422909Y-92484705D01*
X106389096Y-92493175D01*
X106354616Y-92498290D01*
X106319800Y-92500000D01*
X105430200Y-92500000D01*
X105395384Y-92498290D01*
X105360904Y-92493175D01*
X105327091Y-92484705D01*
X105294271Y-92472962D01*
X105262760Y-92458058D01*
X105232861Y-92440138D01*
X105204864Y-92419373D01*
X105179036Y-92395964D01*
X105155627Y-92370136D01*
X105134862Y-92342139D01*
X105116942Y-92312240D01*
X105102038Y-92280729D01*
X105090295Y-92247909D01*
X105081825Y-92214096D01*
X105076710Y-92179616D01*
X105075000Y-92144800D01*
X105075000Y-90455200D01*
X105076710Y-90420384D01*
X105081825Y-90385904D01*
X105090295Y-90352091D01*
X105102038Y-90319271D01*
X105116942Y-90287760D01*
X105134862Y-90257861D01*
X105155627Y-90229864D01*
X105179036Y-90204036D01*
X105204864Y-90180627D01*
X105232861Y-90159862D01*
X105262760Y-90141942D01*
X105294271Y-90127038D01*
X105327091Y-90115295D01*
X105360904Y-90106825D01*
X105395384Y-90101710D01*
X105430200Y-90100000D01*
X106319800Y-90100000D01*
X106354616Y-90101710D01*
X106354616Y-90101710D01*
G37*
D11*
G04 #@! TD*
G04 #@! TO.P,D5,1*
G04 #@! TO.N,Net-(D5-Pad1)*
X105875000Y-91300000D03*
D10*
G04 #@! TO.N,Net-(D4-Pad1)*
G04 #@! TO.C,D4*
G36*
X115354616Y-90101710D02*
X115389096Y-90106825D01*
X115422909Y-90115295D01*
X115455729Y-90127038D01*
X115487240Y-90141942D01*
X115517139Y-90159862D01*
X115545136Y-90180627D01*
X115570964Y-90204036D01*
X115594373Y-90229864D01*
X115615138Y-90257861D01*
X115633058Y-90287760D01*
X115647962Y-90319271D01*
X115659705Y-90352091D01*
X115668175Y-90385904D01*
X115673290Y-90420384D01*
X115675000Y-90455200D01*
X115675000Y-92144800D01*
X115673290Y-92179616D01*
X115668175Y-92214096D01*
X115659705Y-92247909D01*
X115647962Y-92280729D01*
X115633058Y-92312240D01*
X115615138Y-92342139D01*
X115594373Y-92370136D01*
X115570964Y-92395964D01*
X115545136Y-92419373D01*
X115517139Y-92440138D01*
X115487240Y-92458058D01*
X115455729Y-92472962D01*
X115422909Y-92484705D01*
X115389096Y-92493175D01*
X115354616Y-92498290D01*
X115319800Y-92500000D01*
X114430200Y-92500000D01*
X114395384Y-92498290D01*
X114360904Y-92493175D01*
X114327091Y-92484705D01*
X114294271Y-92472962D01*
X114262760Y-92458058D01*
X114232861Y-92440138D01*
X114204864Y-92419373D01*
X114179036Y-92395964D01*
X114155627Y-92370136D01*
X114134862Y-92342139D01*
X114116942Y-92312240D01*
X114102038Y-92280729D01*
X114090295Y-92247909D01*
X114081825Y-92214096D01*
X114076710Y-92179616D01*
X114075000Y-92144800D01*
X114075000Y-90455200D01*
X114076710Y-90420384D01*
X114081825Y-90385904D01*
X114090295Y-90352091D01*
X114102038Y-90319271D01*
X114116942Y-90287760D01*
X114134862Y-90257861D01*
X114155627Y-90229864D01*
X114179036Y-90204036D01*
X114204864Y-90180627D01*
X114232861Y-90159862D01*
X114262760Y-90141942D01*
X114294271Y-90127038D01*
X114327091Y-90115295D01*
X114360904Y-90106825D01*
X114395384Y-90101710D01*
X114430200Y-90100000D01*
X115319800Y-90100000D01*
X115354616Y-90101710D01*
X115354616Y-90101710D01*
G37*
D11*
G04 #@! TD*
G04 #@! TO.P,D4,1*
G04 #@! TO.N,Net-(D4-Pad1)*
X114875000Y-91300000D03*
D10*
G04 #@! TO.N,+5V*
G04 #@! TO.C,D4*
G36*
X118204616Y-90101710D02*
X118239096Y-90106825D01*
X118272909Y-90115295D01*
X118305729Y-90127038D01*
X118337240Y-90141942D01*
X118367139Y-90159862D01*
X118395136Y-90180627D01*
X118420964Y-90204036D01*
X118444373Y-90229864D01*
X118465138Y-90257861D01*
X118483058Y-90287760D01*
X118497962Y-90319271D01*
X118509705Y-90352091D01*
X118518175Y-90385904D01*
X118523290Y-90420384D01*
X118525000Y-90455200D01*
X118525000Y-92144800D01*
X118523290Y-92179616D01*
X118518175Y-92214096D01*
X118509705Y-92247909D01*
X118497962Y-92280729D01*
X118483058Y-92312240D01*
X118465138Y-92342139D01*
X118444373Y-92370136D01*
X118420964Y-92395964D01*
X118395136Y-92419373D01*
X118367139Y-92440138D01*
X118337240Y-92458058D01*
X118305729Y-92472962D01*
X118272909Y-92484705D01*
X118239096Y-92493175D01*
X118204616Y-92498290D01*
X118169800Y-92500000D01*
X117280200Y-92500000D01*
X117245384Y-92498290D01*
X117210904Y-92493175D01*
X117177091Y-92484705D01*
X117144271Y-92472962D01*
X117112760Y-92458058D01*
X117082861Y-92440138D01*
X117054864Y-92419373D01*
X117029036Y-92395964D01*
X117005627Y-92370136D01*
X116984862Y-92342139D01*
X116966942Y-92312240D01*
X116952038Y-92280729D01*
X116940295Y-92247909D01*
X116931825Y-92214096D01*
X116926710Y-92179616D01*
X116925000Y-92144800D01*
X116925000Y-90455200D01*
X116926710Y-90420384D01*
X116931825Y-90385904D01*
X116940295Y-90352091D01*
X116952038Y-90319271D01*
X116966942Y-90287760D01*
X116984862Y-90257861D01*
X117005627Y-90229864D01*
X117029036Y-90204036D01*
X117054864Y-90180627D01*
X117082861Y-90159862D01*
X117112760Y-90141942D01*
X117144271Y-90127038D01*
X117177091Y-90115295D01*
X117210904Y-90106825D01*
X117245384Y-90101710D01*
X117280200Y-90100000D01*
X118169800Y-90100000D01*
X118204616Y-90101710D01*
X118204616Y-90101710D01*
G37*
D11*
G04 #@! TD*
G04 #@! TO.P,D4,2*
G04 #@! TO.N,+5V*
X117725000Y-91300000D03*
D10*
G04 #@! TO.N,+5V*
G04 #@! TO.C,D3*
G36*
X122704616Y-82301710D02*
X122739096Y-82306825D01*
X122772909Y-82315295D01*
X122805729Y-82327038D01*
X122837240Y-82341942D01*
X122867139Y-82359862D01*
X122895136Y-82380627D01*
X122920964Y-82404036D01*
X122944373Y-82429864D01*
X122965138Y-82457861D01*
X122983058Y-82487760D01*
X122997962Y-82519271D01*
X123009705Y-82552091D01*
X123018175Y-82585904D01*
X123023290Y-82620384D01*
X123025000Y-82655200D01*
X123025000Y-84344800D01*
X123023290Y-84379616D01*
X123018175Y-84414096D01*
X123009705Y-84447909D01*
X122997962Y-84480729D01*
X122983058Y-84512240D01*
X122965138Y-84542139D01*
X122944373Y-84570136D01*
X122920964Y-84595964D01*
X122895136Y-84619373D01*
X122867139Y-84640138D01*
X122837240Y-84658058D01*
X122805729Y-84672962D01*
X122772909Y-84684705D01*
X122739096Y-84693175D01*
X122704616Y-84698290D01*
X122669800Y-84700000D01*
X121780200Y-84700000D01*
X121745384Y-84698290D01*
X121710904Y-84693175D01*
X121677091Y-84684705D01*
X121644271Y-84672962D01*
X121612760Y-84658058D01*
X121582861Y-84640138D01*
X121554864Y-84619373D01*
X121529036Y-84595964D01*
X121505627Y-84570136D01*
X121484862Y-84542139D01*
X121466942Y-84512240D01*
X121452038Y-84480729D01*
X121440295Y-84447909D01*
X121431825Y-84414096D01*
X121426710Y-84379616D01*
X121425000Y-84344800D01*
X121425000Y-82655200D01*
X121426710Y-82620384D01*
X121431825Y-82585904D01*
X121440295Y-82552091D01*
X121452038Y-82519271D01*
X121466942Y-82487760D01*
X121484862Y-82457861D01*
X121505627Y-82429864D01*
X121529036Y-82404036D01*
X121554864Y-82380627D01*
X121582861Y-82359862D01*
X121612760Y-82341942D01*
X121644271Y-82327038D01*
X121677091Y-82315295D01*
X121710904Y-82306825D01*
X121745384Y-82301710D01*
X121780200Y-82300000D01*
X122669800Y-82300000D01*
X122704616Y-82301710D01*
X122704616Y-82301710D01*
G37*
D11*
G04 #@! TD*
G04 #@! TO.P,D3,2*
G04 #@! TO.N,+5V*
X122225000Y-83500000D03*
D10*
G04 #@! TO.N,Net-(D3-Pad1)*
G04 #@! TO.C,D3*
G36*
X119854616Y-82301710D02*
X119889096Y-82306825D01*
X119922909Y-82315295D01*
X119955729Y-82327038D01*
X119987240Y-82341942D01*
X120017139Y-82359862D01*
X120045136Y-82380627D01*
X120070964Y-82404036D01*
X120094373Y-82429864D01*
X120115138Y-82457861D01*
X120133058Y-82487760D01*
X120147962Y-82519271D01*
X120159705Y-82552091D01*
X120168175Y-82585904D01*
X120173290Y-82620384D01*
X120175000Y-82655200D01*
X120175000Y-84344800D01*
X120173290Y-84379616D01*
X120168175Y-84414096D01*
X120159705Y-84447909D01*
X120147962Y-84480729D01*
X120133058Y-84512240D01*
X120115138Y-84542139D01*
X120094373Y-84570136D01*
X120070964Y-84595964D01*
X120045136Y-84619373D01*
X120017139Y-84640138D01*
X119987240Y-84658058D01*
X119955729Y-84672962D01*
X119922909Y-84684705D01*
X119889096Y-84693175D01*
X119854616Y-84698290D01*
X119819800Y-84700000D01*
X118930200Y-84700000D01*
X118895384Y-84698290D01*
X118860904Y-84693175D01*
X118827091Y-84684705D01*
X118794271Y-84672962D01*
X118762760Y-84658058D01*
X118732861Y-84640138D01*
X118704864Y-84619373D01*
X118679036Y-84595964D01*
X118655627Y-84570136D01*
X118634862Y-84542139D01*
X118616942Y-84512240D01*
X118602038Y-84480729D01*
X118590295Y-84447909D01*
X118581825Y-84414096D01*
X118576710Y-84379616D01*
X118575000Y-84344800D01*
X118575000Y-82655200D01*
X118576710Y-82620384D01*
X118581825Y-82585904D01*
X118590295Y-82552091D01*
X118602038Y-82519271D01*
X118616942Y-82487760D01*
X118634862Y-82457861D01*
X118655627Y-82429864D01*
X118679036Y-82404036D01*
X118704864Y-82380627D01*
X118732861Y-82359862D01*
X118762760Y-82341942D01*
X118794271Y-82327038D01*
X118827091Y-82315295D01*
X118860904Y-82306825D01*
X118895384Y-82301710D01*
X118930200Y-82300000D01*
X119819800Y-82300000D01*
X119854616Y-82301710D01*
X119854616Y-82301710D01*
G37*
D11*
G04 #@! TD*
G04 #@! TO.P,D3,1*
G04 #@! TO.N,Net-(D3-Pad1)*
X119375000Y-83500000D03*
D10*
G04 #@! TO.N,Net-(D7-Pad1)*
G04 #@! TO.C,D7*
G36*
X106354616Y-74501710D02*
X106389096Y-74506825D01*
X106422909Y-74515295D01*
X106455729Y-74527038D01*
X106487240Y-74541942D01*
X106517139Y-74559862D01*
X106545136Y-74580627D01*
X106570964Y-74604036D01*
X106594373Y-74629864D01*
X106615138Y-74657861D01*
X106633058Y-74687760D01*
X106647962Y-74719271D01*
X106659705Y-74752091D01*
X106668175Y-74785904D01*
X106673290Y-74820384D01*
X106675000Y-74855200D01*
X106675000Y-76544800D01*
X106673290Y-76579616D01*
X106668175Y-76614096D01*
X106659705Y-76647909D01*
X106647962Y-76680729D01*
X106633058Y-76712240D01*
X106615138Y-76742139D01*
X106594373Y-76770136D01*
X106570964Y-76795964D01*
X106545136Y-76819373D01*
X106517139Y-76840138D01*
X106487240Y-76858058D01*
X106455729Y-76872962D01*
X106422909Y-76884705D01*
X106389096Y-76893175D01*
X106354616Y-76898290D01*
X106319800Y-76900000D01*
X105430200Y-76900000D01*
X105395384Y-76898290D01*
X105360904Y-76893175D01*
X105327091Y-76884705D01*
X105294271Y-76872962D01*
X105262760Y-76858058D01*
X105232861Y-76840138D01*
X105204864Y-76819373D01*
X105179036Y-76795964D01*
X105155627Y-76770136D01*
X105134862Y-76742139D01*
X105116942Y-76712240D01*
X105102038Y-76680729D01*
X105090295Y-76647909D01*
X105081825Y-76614096D01*
X105076710Y-76579616D01*
X105075000Y-76544800D01*
X105075000Y-74855200D01*
X105076710Y-74820384D01*
X105081825Y-74785904D01*
X105090295Y-74752091D01*
X105102038Y-74719271D01*
X105116942Y-74687760D01*
X105134862Y-74657861D01*
X105155627Y-74629864D01*
X105179036Y-74604036D01*
X105204864Y-74580627D01*
X105232861Y-74559862D01*
X105262760Y-74541942D01*
X105294271Y-74527038D01*
X105327091Y-74515295D01*
X105360904Y-74506825D01*
X105395384Y-74501710D01*
X105430200Y-74500000D01*
X106319800Y-74500000D01*
X106354616Y-74501710D01*
X106354616Y-74501710D01*
G37*
D11*
G04 #@! TD*
G04 #@! TO.P,D7,1*
G04 #@! TO.N,Net-(D7-Pad1)*
X105875000Y-75700000D03*
D10*
G04 #@! TO.N,+5V*
G04 #@! TO.C,D7*
G36*
X109204616Y-74501710D02*
X109239096Y-74506825D01*
X109272909Y-74515295D01*
X109305729Y-74527038D01*
X109337240Y-74541942D01*
X109367139Y-74559862D01*
X109395136Y-74580627D01*
X109420964Y-74604036D01*
X109444373Y-74629864D01*
X109465138Y-74657861D01*
X109483058Y-74687760D01*
X109497962Y-74719271D01*
X109509705Y-74752091D01*
X109518175Y-74785904D01*
X109523290Y-74820384D01*
X109525000Y-74855200D01*
X109525000Y-76544800D01*
X109523290Y-76579616D01*
X109518175Y-76614096D01*
X109509705Y-76647909D01*
X109497962Y-76680729D01*
X109483058Y-76712240D01*
X109465138Y-76742139D01*
X109444373Y-76770136D01*
X109420964Y-76795964D01*
X109395136Y-76819373D01*
X109367139Y-76840138D01*
X109337240Y-76858058D01*
X109305729Y-76872962D01*
X109272909Y-76884705D01*
X109239096Y-76893175D01*
X109204616Y-76898290D01*
X109169800Y-76900000D01*
X108280200Y-76900000D01*
X108245384Y-76898290D01*
X108210904Y-76893175D01*
X108177091Y-76884705D01*
X108144271Y-76872962D01*
X108112760Y-76858058D01*
X108082861Y-76840138D01*
X108054864Y-76819373D01*
X108029036Y-76795964D01*
X108005627Y-76770136D01*
X107984862Y-76742139D01*
X107966942Y-76712240D01*
X107952038Y-76680729D01*
X107940295Y-76647909D01*
X107931825Y-76614096D01*
X107926710Y-76579616D01*
X107925000Y-76544800D01*
X107925000Y-74855200D01*
X107926710Y-74820384D01*
X107931825Y-74785904D01*
X107940295Y-74752091D01*
X107952038Y-74719271D01*
X107966942Y-74687760D01*
X107984862Y-74657861D01*
X108005627Y-74629864D01*
X108029036Y-74604036D01*
X108054864Y-74580627D01*
X108082861Y-74559862D01*
X108112760Y-74541942D01*
X108144271Y-74527038D01*
X108177091Y-74515295D01*
X108210904Y-74506825D01*
X108245384Y-74501710D01*
X108280200Y-74500000D01*
X109169800Y-74500000D01*
X109204616Y-74501710D01*
X109204616Y-74501710D01*
G37*
D11*
G04 #@! TD*
G04 #@! TO.P,D7,2*
G04 #@! TO.N,+5V*
X108725000Y-75700000D03*
D10*
G04 #@! TO.N,+3V3*
G04 #@! TO.C,C4*
G36*
X113330142Y-61101174D02*
X113353803Y-61104684D01*
X113377007Y-61110496D01*
X113399529Y-61118554D01*
X113421153Y-61128782D01*
X113441670Y-61141079D01*
X113460883Y-61155329D01*
X113478607Y-61171393D01*
X113494671Y-61189117D01*
X113508921Y-61208330D01*
X113521218Y-61228847D01*
X113531446Y-61250471D01*
X113539504Y-61272993D01*
X113545316Y-61296197D01*
X113548826Y-61319858D01*
X113550000Y-61343750D01*
X113550000Y-62256250D01*
X113548826Y-62280142D01*
X113545316Y-62303803D01*
X113539504Y-62327007D01*
X113531446Y-62349529D01*
X113521218Y-62371153D01*
X113508921Y-62391670D01*
X113494671Y-62410883D01*
X113478607Y-62428607D01*
X113460883Y-62444671D01*
X113441670Y-62458921D01*
X113421153Y-62471218D01*
X113399529Y-62481446D01*
X113377007Y-62489504D01*
X113353803Y-62495316D01*
X113330142Y-62498826D01*
X113306250Y-62500000D01*
X112818750Y-62500000D01*
X112794858Y-62498826D01*
X112771197Y-62495316D01*
X112747993Y-62489504D01*
X112725471Y-62481446D01*
X112703847Y-62471218D01*
X112683330Y-62458921D01*
X112664117Y-62444671D01*
X112646393Y-62428607D01*
X112630329Y-62410883D01*
X112616079Y-62391670D01*
X112603782Y-62371153D01*
X112593554Y-62349529D01*
X112585496Y-62327007D01*
X112579684Y-62303803D01*
X112576174Y-62280142D01*
X112575000Y-62256250D01*
X112575000Y-61343750D01*
X112576174Y-61319858D01*
X112579684Y-61296197D01*
X112585496Y-61272993D01*
X112593554Y-61250471D01*
X112603782Y-61228847D01*
X112616079Y-61208330D01*
X112630329Y-61189117D01*
X112646393Y-61171393D01*
X112664117Y-61155329D01*
X112683330Y-61141079D01*
X112703847Y-61128782D01*
X112725471Y-61118554D01*
X112747993Y-61110496D01*
X112771197Y-61104684D01*
X112794858Y-61101174D01*
X112818750Y-61100000D01*
X113306250Y-61100000D01*
X113330142Y-61101174D01*
X113330142Y-61101174D01*
G37*
D12*
G04 #@! TD*
G04 #@! TO.P,C4,1*
G04 #@! TO.N,+3V3*
X113062500Y-61800000D03*
D10*
G04 #@! TO.N,GND*
G04 #@! TO.C,C4*
G36*
X115205142Y-61101174D02*
X115228803Y-61104684D01*
X115252007Y-61110496D01*
X115274529Y-61118554D01*
X115296153Y-61128782D01*
X115316670Y-61141079D01*
X115335883Y-61155329D01*
X115353607Y-61171393D01*
X115369671Y-61189117D01*
X115383921Y-61208330D01*
X115396218Y-61228847D01*
X115406446Y-61250471D01*
X115414504Y-61272993D01*
X115420316Y-61296197D01*
X115423826Y-61319858D01*
X115425000Y-61343750D01*
X115425000Y-62256250D01*
X115423826Y-62280142D01*
X115420316Y-62303803D01*
X115414504Y-62327007D01*
X115406446Y-62349529D01*
X115396218Y-62371153D01*
X115383921Y-62391670D01*
X115369671Y-62410883D01*
X115353607Y-62428607D01*
X115335883Y-62444671D01*
X115316670Y-62458921D01*
X115296153Y-62471218D01*
X115274529Y-62481446D01*
X115252007Y-62489504D01*
X115228803Y-62495316D01*
X115205142Y-62498826D01*
X115181250Y-62500000D01*
X114693750Y-62500000D01*
X114669858Y-62498826D01*
X114646197Y-62495316D01*
X114622993Y-62489504D01*
X114600471Y-62481446D01*
X114578847Y-62471218D01*
X114558330Y-62458921D01*
X114539117Y-62444671D01*
X114521393Y-62428607D01*
X114505329Y-62410883D01*
X114491079Y-62391670D01*
X114478782Y-62371153D01*
X114468554Y-62349529D01*
X114460496Y-62327007D01*
X114454684Y-62303803D01*
X114451174Y-62280142D01*
X114450000Y-62256250D01*
X114450000Y-61343750D01*
X114451174Y-61319858D01*
X114454684Y-61296197D01*
X114460496Y-61272993D01*
X114468554Y-61250471D01*
X114478782Y-61228847D01*
X114491079Y-61208330D01*
X114505329Y-61189117D01*
X114521393Y-61171393D01*
X114539117Y-61155329D01*
X114558330Y-61141079D01*
X114578847Y-61128782D01*
X114600471Y-61118554D01*
X114622993Y-61110496D01*
X114646197Y-61104684D01*
X114669858Y-61101174D01*
X114693750Y-61100000D01*
X115181250Y-61100000D01*
X115205142Y-61101174D01*
X115205142Y-61101174D01*
G37*
D12*
G04 #@! TD*
G04 #@! TO.P,C4,2*
G04 #@! TO.N,GND*
X114937500Y-61800000D03*
D13*
G04 #@! TO.P,J1,S1*
G04 #@! TO.N,N/C*
X107250000Y-57100000D03*
G04 #@! TO.P,J1,S2*
X116150000Y-57100000D03*
D14*
G04 #@! TO.P,J1,1*
G04 #@! TO.N,GND*
X108950000Y-58300000D03*
G04 #@! TO.P,J1,2*
G04 #@! TO.N,LEDC*
X109450000Y-55900000D03*
G04 #@! TO.P,J1,3*
G04 #@! TO.N,LEDA*
X109950000Y-58300000D03*
G04 #@! TO.P,J1,4*
G04 #@! TO.N,Net-(J1-Pad4)*
X110450000Y-55900000D03*
G04 #@! TO.P,J1,5*
G04 #@! TO.N,MOSI*
X110950000Y-58300000D03*
G04 #@! TO.P,J1,6*
G04 #@! TO.N,CLK*
X111450000Y-55900000D03*
G04 #@! TO.P,J1,7*
G04 #@! TO.N,DC*
X111950000Y-58300000D03*
G04 #@! TO.P,J1,8*
G04 #@! TO.N,CS*
X112450000Y-55900000D03*
G04 #@! TO.P,J1,9*
G04 #@! TO.N,+3V3*
X112950000Y-58300000D03*
G04 #@! TO.P,J1,10*
X113450000Y-55900000D03*
G04 #@! TO.P,J1,11*
G04 #@! TO.N,GND*
X113950000Y-58300000D03*
G04 #@! TO.P,J1,12*
X114450000Y-55900000D03*
G04 #@! TD*
D15*
G04 #@! TO.P,Q1,3*
G04 #@! TO.N,Net-(Q1-Pad3)*
X115700000Y-101700000D03*
G04 #@! TO.P,Q1,2*
G04 #@! TO.N,GND*
X114750000Y-99700000D03*
G04 #@! TO.P,Q1,1*
G04 #@! TO.N,SW1*
X116650000Y-99700000D03*
G04 #@! TD*
G04 #@! TO.P,Q2,1*
G04 #@! TO.N,SW2*
X108450000Y-99600000D03*
G04 #@! TO.P,Q2,2*
G04 #@! TO.N,GND*
X106550000Y-99600000D03*
G04 #@! TO.P,Q2,3*
G04 #@! TO.N,Net-(Q2-Pad3)*
X107500000Y-101600000D03*
G04 #@! TD*
D10*
G04 #@! TO.N,Net-(Q1-Pad3)*
G04 #@! TO.C,R1*
G36*
X113005142Y-85501174D02*
X113028803Y-85504684D01*
X113052007Y-85510496D01*
X113074529Y-85518554D01*
X113096153Y-85528782D01*
X113116670Y-85541079D01*
X113135883Y-85555329D01*
X113153607Y-85571393D01*
X113169671Y-85589117D01*
X113183921Y-85608330D01*
X113196218Y-85628847D01*
X113206446Y-85650471D01*
X113214504Y-85672993D01*
X113220316Y-85696197D01*
X113223826Y-85719858D01*
X113225000Y-85743750D01*
X113225000Y-86656250D01*
X113223826Y-86680142D01*
X113220316Y-86703803D01*
X113214504Y-86727007D01*
X113206446Y-86749529D01*
X113196218Y-86771153D01*
X113183921Y-86791670D01*
X113169671Y-86810883D01*
X113153607Y-86828607D01*
X113135883Y-86844671D01*
X113116670Y-86858921D01*
X113096153Y-86871218D01*
X113074529Y-86881446D01*
X113052007Y-86889504D01*
X113028803Y-86895316D01*
X113005142Y-86898826D01*
X112981250Y-86900000D01*
X112493750Y-86900000D01*
X112469858Y-86898826D01*
X112446197Y-86895316D01*
X112422993Y-86889504D01*
X112400471Y-86881446D01*
X112378847Y-86871218D01*
X112358330Y-86858921D01*
X112339117Y-86844671D01*
X112321393Y-86828607D01*
X112305329Y-86810883D01*
X112291079Y-86791670D01*
X112278782Y-86771153D01*
X112268554Y-86749529D01*
X112260496Y-86727007D01*
X112254684Y-86703803D01*
X112251174Y-86680142D01*
X112250000Y-86656250D01*
X112250000Y-85743750D01*
X112251174Y-85719858D01*
X112254684Y-85696197D01*
X112260496Y-85672993D01*
X112268554Y-85650471D01*
X112278782Y-85628847D01*
X112291079Y-85608330D01*
X112305329Y-85589117D01*
X112321393Y-85571393D01*
X112339117Y-85555329D01*
X112358330Y-85541079D01*
X112378847Y-85528782D01*
X112400471Y-85518554D01*
X112422993Y-85510496D01*
X112446197Y-85504684D01*
X112469858Y-85501174D01*
X112493750Y-85500000D01*
X112981250Y-85500000D01*
X113005142Y-85501174D01*
X113005142Y-85501174D01*
G37*
D12*
G04 #@! TD*
G04 #@! TO.P,R1,1*
G04 #@! TO.N,Net-(Q1-Pad3)*
X112737500Y-86200000D03*
D10*
G04 #@! TO.N,Net-(D1-Pad1)*
G04 #@! TO.C,R1*
G36*
X111130142Y-85501174D02*
X111153803Y-85504684D01*
X111177007Y-85510496D01*
X111199529Y-85518554D01*
X111221153Y-85528782D01*
X111241670Y-85541079D01*
X111260883Y-85555329D01*
X111278607Y-85571393D01*
X111294671Y-85589117D01*
X111308921Y-85608330D01*
X111321218Y-85628847D01*
X111331446Y-85650471D01*
X111339504Y-85672993D01*
X111345316Y-85696197D01*
X111348826Y-85719858D01*
X111350000Y-85743750D01*
X111350000Y-86656250D01*
X111348826Y-86680142D01*
X111345316Y-86703803D01*
X111339504Y-86727007D01*
X111331446Y-86749529D01*
X111321218Y-86771153D01*
X111308921Y-86791670D01*
X111294671Y-86810883D01*
X111278607Y-86828607D01*
X111260883Y-86844671D01*
X111241670Y-86858921D01*
X111221153Y-86871218D01*
X111199529Y-86881446D01*
X111177007Y-86889504D01*
X111153803Y-86895316D01*
X111130142Y-86898826D01*
X111106250Y-86900000D01*
X110618750Y-86900000D01*
X110594858Y-86898826D01*
X110571197Y-86895316D01*
X110547993Y-86889504D01*
X110525471Y-86881446D01*
X110503847Y-86871218D01*
X110483330Y-86858921D01*
X110464117Y-86844671D01*
X110446393Y-86828607D01*
X110430329Y-86810883D01*
X110416079Y-86791670D01*
X110403782Y-86771153D01*
X110393554Y-86749529D01*
X110385496Y-86727007D01*
X110379684Y-86703803D01*
X110376174Y-86680142D01*
X110375000Y-86656250D01*
X110375000Y-85743750D01*
X110376174Y-85719858D01*
X110379684Y-85696197D01*
X110385496Y-85672993D01*
X110393554Y-85650471D01*
X110403782Y-85628847D01*
X110416079Y-85608330D01*
X110430329Y-85589117D01*
X110446393Y-85571393D01*
X110464117Y-85555329D01*
X110483330Y-85541079D01*
X110503847Y-85528782D01*
X110525471Y-85518554D01*
X110547993Y-85510496D01*
X110571197Y-85504684D01*
X110594858Y-85501174D01*
X110618750Y-85500000D01*
X111106250Y-85500000D01*
X111130142Y-85501174D01*
X111130142Y-85501174D01*
G37*
D12*
G04 #@! TD*
G04 #@! TO.P,R1,2*
G04 #@! TO.N,Net-(D1-Pad1)*
X110862500Y-86200000D03*
D10*
G04 #@! TO.N,Net-(Q1-Pad3)*
G04 #@! TO.C,R2*
G36*
X117505142Y-77851174D02*
X117528803Y-77854684D01*
X117552007Y-77860496D01*
X117574529Y-77868554D01*
X117596153Y-77878782D01*
X117616670Y-77891079D01*
X117635883Y-77905329D01*
X117653607Y-77921393D01*
X117669671Y-77939117D01*
X117683921Y-77958330D01*
X117696218Y-77978847D01*
X117706446Y-78000471D01*
X117714504Y-78022993D01*
X117720316Y-78046197D01*
X117723826Y-78069858D01*
X117725000Y-78093750D01*
X117725000Y-79006250D01*
X117723826Y-79030142D01*
X117720316Y-79053803D01*
X117714504Y-79077007D01*
X117706446Y-79099529D01*
X117696218Y-79121153D01*
X117683921Y-79141670D01*
X117669671Y-79160883D01*
X117653607Y-79178607D01*
X117635883Y-79194671D01*
X117616670Y-79208921D01*
X117596153Y-79221218D01*
X117574529Y-79231446D01*
X117552007Y-79239504D01*
X117528803Y-79245316D01*
X117505142Y-79248826D01*
X117481250Y-79250000D01*
X116993750Y-79250000D01*
X116969858Y-79248826D01*
X116946197Y-79245316D01*
X116922993Y-79239504D01*
X116900471Y-79231446D01*
X116878847Y-79221218D01*
X116858330Y-79208921D01*
X116839117Y-79194671D01*
X116821393Y-79178607D01*
X116805329Y-79160883D01*
X116791079Y-79141670D01*
X116778782Y-79121153D01*
X116768554Y-79099529D01*
X116760496Y-79077007D01*
X116754684Y-79053803D01*
X116751174Y-79030142D01*
X116750000Y-79006250D01*
X116750000Y-78093750D01*
X116751174Y-78069858D01*
X116754684Y-78046197D01*
X116760496Y-78022993D01*
X116768554Y-78000471D01*
X116778782Y-77978847D01*
X116791079Y-77958330D01*
X116805329Y-77939117D01*
X116821393Y-77921393D01*
X116839117Y-77905329D01*
X116858330Y-77891079D01*
X116878847Y-77878782D01*
X116900471Y-77868554D01*
X116922993Y-77860496D01*
X116946197Y-77854684D01*
X116969858Y-77851174D01*
X116993750Y-77850000D01*
X117481250Y-77850000D01*
X117505142Y-77851174D01*
X117505142Y-77851174D01*
G37*
D12*
G04 #@! TD*
G04 #@! TO.P,R2,1*
G04 #@! TO.N,Net-(Q1-Pad3)*
X117237500Y-78550000D03*
D10*
G04 #@! TO.N,Net-(D2-Pad1)*
G04 #@! TO.C,R2*
G36*
X115630142Y-77851174D02*
X115653803Y-77854684D01*
X115677007Y-77860496D01*
X115699529Y-77868554D01*
X115721153Y-77878782D01*
X115741670Y-77891079D01*
X115760883Y-77905329D01*
X115778607Y-77921393D01*
X115794671Y-77939117D01*
X115808921Y-77958330D01*
X115821218Y-77978847D01*
X115831446Y-78000471D01*
X115839504Y-78022993D01*
X115845316Y-78046197D01*
X115848826Y-78069858D01*
X115850000Y-78093750D01*
X115850000Y-79006250D01*
X115848826Y-79030142D01*
X115845316Y-79053803D01*
X115839504Y-79077007D01*
X115831446Y-79099529D01*
X115821218Y-79121153D01*
X115808921Y-79141670D01*
X115794671Y-79160883D01*
X115778607Y-79178607D01*
X115760883Y-79194671D01*
X115741670Y-79208921D01*
X115721153Y-79221218D01*
X115699529Y-79231446D01*
X115677007Y-79239504D01*
X115653803Y-79245316D01*
X115630142Y-79248826D01*
X115606250Y-79250000D01*
X115118750Y-79250000D01*
X115094858Y-79248826D01*
X115071197Y-79245316D01*
X115047993Y-79239504D01*
X115025471Y-79231446D01*
X115003847Y-79221218D01*
X114983330Y-79208921D01*
X114964117Y-79194671D01*
X114946393Y-79178607D01*
X114930329Y-79160883D01*
X114916079Y-79141670D01*
X114903782Y-79121153D01*
X114893554Y-79099529D01*
X114885496Y-79077007D01*
X114879684Y-79053803D01*
X114876174Y-79030142D01*
X114875000Y-79006250D01*
X114875000Y-78093750D01*
X114876174Y-78069858D01*
X114879684Y-78046197D01*
X114885496Y-78022993D01*
X114893554Y-78000471D01*
X114903782Y-77978847D01*
X114916079Y-77958330D01*
X114930329Y-77939117D01*
X114946393Y-77921393D01*
X114964117Y-77905329D01*
X114983330Y-77891079D01*
X115003847Y-77878782D01*
X115025471Y-77868554D01*
X115047993Y-77860496D01*
X115071197Y-77854684D01*
X115094858Y-77851174D01*
X115118750Y-77850000D01*
X115606250Y-77850000D01*
X115630142Y-77851174D01*
X115630142Y-77851174D01*
G37*
D12*
G04 #@! TD*
G04 #@! TO.P,R2,2*
G04 #@! TO.N,Net-(D2-Pad1)*
X115362500Y-78550000D03*
D10*
G04 #@! TO.N,Net-(D3-Pad1)*
G04 #@! TO.C,R3*
G36*
X120130142Y-85551174D02*
X120153803Y-85554684D01*
X120177007Y-85560496D01*
X120199529Y-85568554D01*
X120221153Y-85578782D01*
X120241670Y-85591079D01*
X120260883Y-85605329D01*
X120278607Y-85621393D01*
X120294671Y-85639117D01*
X120308921Y-85658330D01*
X120321218Y-85678847D01*
X120331446Y-85700471D01*
X120339504Y-85722993D01*
X120345316Y-85746197D01*
X120348826Y-85769858D01*
X120350000Y-85793750D01*
X120350000Y-86706250D01*
X120348826Y-86730142D01*
X120345316Y-86753803D01*
X120339504Y-86777007D01*
X120331446Y-86799529D01*
X120321218Y-86821153D01*
X120308921Y-86841670D01*
X120294671Y-86860883D01*
X120278607Y-86878607D01*
X120260883Y-86894671D01*
X120241670Y-86908921D01*
X120221153Y-86921218D01*
X120199529Y-86931446D01*
X120177007Y-86939504D01*
X120153803Y-86945316D01*
X120130142Y-86948826D01*
X120106250Y-86950000D01*
X119618750Y-86950000D01*
X119594858Y-86948826D01*
X119571197Y-86945316D01*
X119547993Y-86939504D01*
X119525471Y-86931446D01*
X119503847Y-86921218D01*
X119483330Y-86908921D01*
X119464117Y-86894671D01*
X119446393Y-86878607D01*
X119430329Y-86860883D01*
X119416079Y-86841670D01*
X119403782Y-86821153D01*
X119393554Y-86799529D01*
X119385496Y-86777007D01*
X119379684Y-86753803D01*
X119376174Y-86730142D01*
X119375000Y-86706250D01*
X119375000Y-85793750D01*
X119376174Y-85769858D01*
X119379684Y-85746197D01*
X119385496Y-85722993D01*
X119393554Y-85700471D01*
X119403782Y-85678847D01*
X119416079Y-85658330D01*
X119430329Y-85639117D01*
X119446393Y-85621393D01*
X119464117Y-85605329D01*
X119483330Y-85591079D01*
X119503847Y-85578782D01*
X119525471Y-85568554D01*
X119547993Y-85560496D01*
X119571197Y-85554684D01*
X119594858Y-85551174D01*
X119618750Y-85550000D01*
X120106250Y-85550000D01*
X120130142Y-85551174D01*
X120130142Y-85551174D01*
G37*
D12*
G04 #@! TD*
G04 #@! TO.P,R3,2*
G04 #@! TO.N,Net-(D3-Pad1)*
X119862500Y-86250000D03*
D10*
G04 #@! TO.N,Net-(Q1-Pad3)*
G04 #@! TO.C,R3*
G36*
X122005142Y-85551174D02*
X122028803Y-85554684D01*
X122052007Y-85560496D01*
X122074529Y-85568554D01*
X122096153Y-85578782D01*
X122116670Y-85591079D01*
X122135883Y-85605329D01*
X122153607Y-85621393D01*
X122169671Y-85639117D01*
X122183921Y-85658330D01*
X122196218Y-85678847D01*
X122206446Y-85700471D01*
X122214504Y-85722993D01*
X122220316Y-85746197D01*
X122223826Y-85769858D01*
X122225000Y-85793750D01*
X122225000Y-86706250D01*
X122223826Y-86730142D01*
X122220316Y-86753803D01*
X122214504Y-86777007D01*
X122206446Y-86799529D01*
X122196218Y-86821153D01*
X122183921Y-86841670D01*
X122169671Y-86860883D01*
X122153607Y-86878607D01*
X122135883Y-86894671D01*
X122116670Y-86908921D01*
X122096153Y-86921218D01*
X122074529Y-86931446D01*
X122052007Y-86939504D01*
X122028803Y-86945316D01*
X122005142Y-86948826D01*
X121981250Y-86950000D01*
X121493750Y-86950000D01*
X121469858Y-86948826D01*
X121446197Y-86945316D01*
X121422993Y-86939504D01*
X121400471Y-86931446D01*
X121378847Y-86921218D01*
X121358330Y-86908921D01*
X121339117Y-86894671D01*
X121321393Y-86878607D01*
X121305329Y-86860883D01*
X121291079Y-86841670D01*
X121278782Y-86821153D01*
X121268554Y-86799529D01*
X121260496Y-86777007D01*
X121254684Y-86753803D01*
X121251174Y-86730142D01*
X121250000Y-86706250D01*
X121250000Y-85793750D01*
X121251174Y-85769858D01*
X121254684Y-85746197D01*
X121260496Y-85722993D01*
X121268554Y-85700471D01*
X121278782Y-85678847D01*
X121291079Y-85658330D01*
X121305329Y-85639117D01*
X121321393Y-85621393D01*
X121339117Y-85605329D01*
X121358330Y-85591079D01*
X121378847Y-85578782D01*
X121400471Y-85568554D01*
X121422993Y-85560496D01*
X121446197Y-85554684D01*
X121469858Y-85551174D01*
X121493750Y-85550000D01*
X121981250Y-85550000D01*
X122005142Y-85551174D01*
X122005142Y-85551174D01*
G37*
D12*
G04 #@! TD*
G04 #@! TO.P,R3,1*
G04 #@! TO.N,Net-(Q1-Pad3)*
X121737500Y-86250000D03*
D10*
G04 #@! TO.N,Net-(Q2-Pad3)*
G04 #@! TO.C,R4*
G36*
X115530142Y-93251174D02*
X115553803Y-93254684D01*
X115577007Y-93260496D01*
X115599529Y-93268554D01*
X115621153Y-93278782D01*
X115641670Y-93291079D01*
X115660883Y-93305329D01*
X115678607Y-93321393D01*
X115694671Y-93339117D01*
X115708921Y-93358330D01*
X115721218Y-93378847D01*
X115731446Y-93400471D01*
X115739504Y-93422993D01*
X115745316Y-93446197D01*
X115748826Y-93469858D01*
X115750000Y-93493750D01*
X115750000Y-94406250D01*
X115748826Y-94430142D01*
X115745316Y-94453803D01*
X115739504Y-94477007D01*
X115731446Y-94499529D01*
X115721218Y-94521153D01*
X115708921Y-94541670D01*
X115694671Y-94560883D01*
X115678607Y-94578607D01*
X115660883Y-94594671D01*
X115641670Y-94608921D01*
X115621153Y-94621218D01*
X115599529Y-94631446D01*
X115577007Y-94639504D01*
X115553803Y-94645316D01*
X115530142Y-94648826D01*
X115506250Y-94650000D01*
X115018750Y-94650000D01*
X114994858Y-94648826D01*
X114971197Y-94645316D01*
X114947993Y-94639504D01*
X114925471Y-94631446D01*
X114903847Y-94621218D01*
X114883330Y-94608921D01*
X114864117Y-94594671D01*
X114846393Y-94578607D01*
X114830329Y-94560883D01*
X114816079Y-94541670D01*
X114803782Y-94521153D01*
X114793554Y-94499529D01*
X114785496Y-94477007D01*
X114779684Y-94453803D01*
X114776174Y-94430142D01*
X114775000Y-94406250D01*
X114775000Y-93493750D01*
X114776174Y-93469858D01*
X114779684Y-93446197D01*
X114785496Y-93422993D01*
X114793554Y-93400471D01*
X114803782Y-93378847D01*
X114816079Y-93358330D01*
X114830329Y-93339117D01*
X114846393Y-93321393D01*
X114864117Y-93305329D01*
X114883330Y-93291079D01*
X114903847Y-93278782D01*
X114925471Y-93268554D01*
X114947993Y-93260496D01*
X114971197Y-93254684D01*
X114994858Y-93251174D01*
X115018750Y-93250000D01*
X115506250Y-93250000D01*
X115530142Y-93251174D01*
X115530142Y-93251174D01*
G37*
D12*
G04 #@! TD*
G04 #@! TO.P,R4,1*
G04 #@! TO.N,Net-(Q2-Pad3)*
X115262500Y-93950000D03*
D10*
G04 #@! TO.N,Net-(D4-Pad1)*
G04 #@! TO.C,R4*
G36*
X117405142Y-93251174D02*
X117428803Y-93254684D01*
X117452007Y-93260496D01*
X117474529Y-93268554D01*
X117496153Y-93278782D01*
X117516670Y-93291079D01*
X117535883Y-93305329D01*
X117553607Y-93321393D01*
X117569671Y-93339117D01*
X117583921Y-93358330D01*
X117596218Y-93378847D01*
X117606446Y-93400471D01*
X117614504Y-93422993D01*
X117620316Y-93446197D01*
X117623826Y-93469858D01*
X117625000Y-93493750D01*
X117625000Y-94406250D01*
X117623826Y-94430142D01*
X117620316Y-94453803D01*
X117614504Y-94477007D01*
X117606446Y-94499529D01*
X117596218Y-94521153D01*
X117583921Y-94541670D01*
X117569671Y-94560883D01*
X117553607Y-94578607D01*
X117535883Y-94594671D01*
X117516670Y-94608921D01*
X117496153Y-94621218D01*
X117474529Y-94631446D01*
X117452007Y-94639504D01*
X117428803Y-94645316D01*
X117405142Y-94648826D01*
X117381250Y-94650000D01*
X116893750Y-94650000D01*
X116869858Y-94648826D01*
X116846197Y-94645316D01*
X116822993Y-94639504D01*
X116800471Y-94631446D01*
X116778847Y-94621218D01*
X116758330Y-94608921D01*
X116739117Y-94594671D01*
X116721393Y-94578607D01*
X116705329Y-94560883D01*
X116691079Y-94541670D01*
X116678782Y-94521153D01*
X116668554Y-94499529D01*
X116660496Y-94477007D01*
X116654684Y-94453803D01*
X116651174Y-94430142D01*
X116650000Y-94406250D01*
X116650000Y-93493750D01*
X116651174Y-93469858D01*
X116654684Y-93446197D01*
X116660496Y-93422993D01*
X116668554Y-93400471D01*
X116678782Y-93378847D01*
X116691079Y-93358330D01*
X116705329Y-93339117D01*
X116721393Y-93321393D01*
X116739117Y-93305329D01*
X116758330Y-93291079D01*
X116778847Y-93278782D01*
X116800471Y-93268554D01*
X116822993Y-93260496D01*
X116846197Y-93254684D01*
X116869858Y-93251174D01*
X116893750Y-93250000D01*
X117381250Y-93250000D01*
X117405142Y-93251174D01*
X117405142Y-93251174D01*
G37*
D12*
G04 #@! TD*
G04 #@! TO.P,R4,2*
G04 #@! TO.N,Net-(D4-Pad1)*
X117137500Y-93950000D03*
D10*
G04 #@! TO.N,Net-(D5-Pad1)*
G04 #@! TO.C,R5*
G36*
X108405142Y-93301174D02*
X108428803Y-93304684D01*
X108452007Y-93310496D01*
X108474529Y-93318554D01*
X108496153Y-93328782D01*
X108516670Y-93341079D01*
X108535883Y-93355329D01*
X108553607Y-93371393D01*
X108569671Y-93389117D01*
X108583921Y-93408330D01*
X108596218Y-93428847D01*
X108606446Y-93450471D01*
X108614504Y-93472993D01*
X108620316Y-93496197D01*
X108623826Y-93519858D01*
X108625000Y-93543750D01*
X108625000Y-94456250D01*
X108623826Y-94480142D01*
X108620316Y-94503803D01*
X108614504Y-94527007D01*
X108606446Y-94549529D01*
X108596218Y-94571153D01*
X108583921Y-94591670D01*
X108569671Y-94610883D01*
X108553607Y-94628607D01*
X108535883Y-94644671D01*
X108516670Y-94658921D01*
X108496153Y-94671218D01*
X108474529Y-94681446D01*
X108452007Y-94689504D01*
X108428803Y-94695316D01*
X108405142Y-94698826D01*
X108381250Y-94700000D01*
X107893750Y-94700000D01*
X107869858Y-94698826D01*
X107846197Y-94695316D01*
X107822993Y-94689504D01*
X107800471Y-94681446D01*
X107778847Y-94671218D01*
X107758330Y-94658921D01*
X107739117Y-94644671D01*
X107721393Y-94628607D01*
X107705329Y-94610883D01*
X107691079Y-94591670D01*
X107678782Y-94571153D01*
X107668554Y-94549529D01*
X107660496Y-94527007D01*
X107654684Y-94503803D01*
X107651174Y-94480142D01*
X107650000Y-94456250D01*
X107650000Y-93543750D01*
X107651174Y-93519858D01*
X107654684Y-93496197D01*
X107660496Y-93472993D01*
X107668554Y-93450471D01*
X107678782Y-93428847D01*
X107691079Y-93408330D01*
X107705329Y-93389117D01*
X107721393Y-93371393D01*
X107739117Y-93355329D01*
X107758330Y-93341079D01*
X107778847Y-93328782D01*
X107800471Y-93318554D01*
X107822993Y-93310496D01*
X107846197Y-93304684D01*
X107869858Y-93301174D01*
X107893750Y-93300000D01*
X108381250Y-93300000D01*
X108405142Y-93301174D01*
X108405142Y-93301174D01*
G37*
D12*
G04 #@! TD*
G04 #@! TO.P,R5,2*
G04 #@! TO.N,Net-(D5-Pad1)*
X108137500Y-94000000D03*
D10*
G04 #@! TO.N,Net-(Q2-Pad3)*
G04 #@! TO.C,R5*
G36*
X106530142Y-93301174D02*
X106553803Y-93304684D01*
X106577007Y-93310496D01*
X106599529Y-93318554D01*
X106621153Y-93328782D01*
X106641670Y-93341079D01*
X106660883Y-93355329D01*
X106678607Y-93371393D01*
X106694671Y-93389117D01*
X106708921Y-93408330D01*
X106721218Y-93428847D01*
X106731446Y-93450471D01*
X106739504Y-93472993D01*
X106745316Y-93496197D01*
X106748826Y-93519858D01*
X106750000Y-93543750D01*
X106750000Y-94456250D01*
X106748826Y-94480142D01*
X106745316Y-94503803D01*
X106739504Y-94527007D01*
X106731446Y-94549529D01*
X106721218Y-94571153D01*
X106708921Y-94591670D01*
X106694671Y-94610883D01*
X106678607Y-94628607D01*
X106660883Y-94644671D01*
X106641670Y-94658921D01*
X106621153Y-94671218D01*
X106599529Y-94681446D01*
X106577007Y-94689504D01*
X106553803Y-94695316D01*
X106530142Y-94698826D01*
X106506250Y-94700000D01*
X106018750Y-94700000D01*
X105994858Y-94698826D01*
X105971197Y-94695316D01*
X105947993Y-94689504D01*
X105925471Y-94681446D01*
X105903847Y-94671218D01*
X105883330Y-94658921D01*
X105864117Y-94644671D01*
X105846393Y-94628607D01*
X105830329Y-94610883D01*
X105816079Y-94591670D01*
X105803782Y-94571153D01*
X105793554Y-94549529D01*
X105785496Y-94527007D01*
X105779684Y-94503803D01*
X105776174Y-94480142D01*
X105775000Y-94456250D01*
X105775000Y-93543750D01*
X105776174Y-93519858D01*
X105779684Y-93496197D01*
X105785496Y-93472993D01*
X105793554Y-93450471D01*
X105803782Y-93428847D01*
X105816079Y-93408330D01*
X105830329Y-93389117D01*
X105846393Y-93371393D01*
X105864117Y-93355329D01*
X105883330Y-93341079D01*
X105903847Y-93328782D01*
X105925471Y-93318554D01*
X105947993Y-93310496D01*
X105971197Y-93304684D01*
X105994858Y-93301174D01*
X106018750Y-93300000D01*
X106506250Y-93300000D01*
X106530142Y-93301174D01*
X106530142Y-93301174D01*
G37*
D12*
G04 #@! TD*
G04 #@! TO.P,R5,1*
G04 #@! TO.N,Net-(Q2-Pad3)*
X106262500Y-94000000D03*
D10*
G04 #@! TO.N,Net-(Q2-Pad3)*
G04 #@! TO.C,R6*
G36*
X102030142Y-85301174D02*
X102053803Y-85304684D01*
X102077007Y-85310496D01*
X102099529Y-85318554D01*
X102121153Y-85328782D01*
X102141670Y-85341079D01*
X102160883Y-85355329D01*
X102178607Y-85371393D01*
X102194671Y-85389117D01*
X102208921Y-85408330D01*
X102221218Y-85428847D01*
X102231446Y-85450471D01*
X102239504Y-85472993D01*
X102245316Y-85496197D01*
X102248826Y-85519858D01*
X102250000Y-85543750D01*
X102250000Y-86456250D01*
X102248826Y-86480142D01*
X102245316Y-86503803D01*
X102239504Y-86527007D01*
X102231446Y-86549529D01*
X102221218Y-86571153D01*
X102208921Y-86591670D01*
X102194671Y-86610883D01*
X102178607Y-86628607D01*
X102160883Y-86644671D01*
X102141670Y-86658921D01*
X102121153Y-86671218D01*
X102099529Y-86681446D01*
X102077007Y-86689504D01*
X102053803Y-86695316D01*
X102030142Y-86698826D01*
X102006250Y-86700000D01*
X101518750Y-86700000D01*
X101494858Y-86698826D01*
X101471197Y-86695316D01*
X101447993Y-86689504D01*
X101425471Y-86681446D01*
X101403847Y-86671218D01*
X101383330Y-86658921D01*
X101364117Y-86644671D01*
X101346393Y-86628607D01*
X101330329Y-86610883D01*
X101316079Y-86591670D01*
X101303782Y-86571153D01*
X101293554Y-86549529D01*
X101285496Y-86527007D01*
X101279684Y-86503803D01*
X101276174Y-86480142D01*
X101275000Y-86456250D01*
X101275000Y-85543750D01*
X101276174Y-85519858D01*
X101279684Y-85496197D01*
X101285496Y-85472993D01*
X101293554Y-85450471D01*
X101303782Y-85428847D01*
X101316079Y-85408330D01*
X101330329Y-85389117D01*
X101346393Y-85371393D01*
X101364117Y-85355329D01*
X101383330Y-85341079D01*
X101403847Y-85328782D01*
X101425471Y-85318554D01*
X101447993Y-85310496D01*
X101471197Y-85304684D01*
X101494858Y-85301174D01*
X101518750Y-85300000D01*
X102006250Y-85300000D01*
X102030142Y-85301174D01*
X102030142Y-85301174D01*
G37*
D12*
G04 #@! TD*
G04 #@! TO.P,R6,1*
G04 #@! TO.N,Net-(Q2-Pad3)*
X101762500Y-86000000D03*
D10*
G04 #@! TO.N,Net-(D6-Pad1)*
G04 #@! TO.C,R6*
G36*
X103905142Y-85301174D02*
X103928803Y-85304684D01*
X103952007Y-85310496D01*
X103974529Y-85318554D01*
X103996153Y-85328782D01*
X104016670Y-85341079D01*
X104035883Y-85355329D01*
X104053607Y-85371393D01*
X104069671Y-85389117D01*
X104083921Y-85408330D01*
X104096218Y-85428847D01*
X104106446Y-85450471D01*
X104114504Y-85472993D01*
X104120316Y-85496197D01*
X104123826Y-85519858D01*
X104125000Y-85543750D01*
X104125000Y-86456250D01*
X104123826Y-86480142D01*
X104120316Y-86503803D01*
X104114504Y-86527007D01*
X104106446Y-86549529D01*
X104096218Y-86571153D01*
X104083921Y-86591670D01*
X104069671Y-86610883D01*
X104053607Y-86628607D01*
X104035883Y-86644671D01*
X104016670Y-86658921D01*
X103996153Y-86671218D01*
X103974529Y-86681446D01*
X103952007Y-86689504D01*
X103928803Y-86695316D01*
X103905142Y-86698826D01*
X103881250Y-86700000D01*
X103393750Y-86700000D01*
X103369858Y-86698826D01*
X103346197Y-86695316D01*
X103322993Y-86689504D01*
X103300471Y-86681446D01*
X103278847Y-86671218D01*
X103258330Y-86658921D01*
X103239117Y-86644671D01*
X103221393Y-86628607D01*
X103205329Y-86610883D01*
X103191079Y-86591670D01*
X103178782Y-86571153D01*
X103168554Y-86549529D01*
X103160496Y-86527007D01*
X103154684Y-86503803D01*
X103151174Y-86480142D01*
X103150000Y-86456250D01*
X103150000Y-85543750D01*
X103151174Y-85519858D01*
X103154684Y-85496197D01*
X103160496Y-85472993D01*
X103168554Y-85450471D01*
X103178782Y-85428847D01*
X103191079Y-85408330D01*
X103205329Y-85389117D01*
X103221393Y-85371393D01*
X103239117Y-85355329D01*
X103258330Y-85341079D01*
X103278847Y-85328782D01*
X103300471Y-85318554D01*
X103322993Y-85310496D01*
X103346197Y-85304684D01*
X103369858Y-85301174D01*
X103393750Y-85300000D01*
X103881250Y-85300000D01*
X103905142Y-85301174D01*
X103905142Y-85301174D01*
G37*
D12*
G04 #@! TD*
G04 #@! TO.P,R6,2*
G04 #@! TO.N,Net-(D6-Pad1)*
X103637500Y-86000000D03*
D10*
G04 #@! TO.N,Net-(D7-Pad1)*
G04 #@! TO.C,R7*
G36*
X108305142Y-77601174D02*
X108328803Y-77604684D01*
X108352007Y-77610496D01*
X108374529Y-77618554D01*
X108396153Y-77628782D01*
X108416670Y-77641079D01*
X108435883Y-77655329D01*
X108453607Y-77671393D01*
X108469671Y-77689117D01*
X108483921Y-77708330D01*
X108496218Y-77728847D01*
X108506446Y-77750471D01*
X108514504Y-77772993D01*
X108520316Y-77796197D01*
X108523826Y-77819858D01*
X108525000Y-77843750D01*
X108525000Y-78756250D01*
X108523826Y-78780142D01*
X108520316Y-78803803D01*
X108514504Y-78827007D01*
X108506446Y-78849529D01*
X108496218Y-78871153D01*
X108483921Y-78891670D01*
X108469671Y-78910883D01*
X108453607Y-78928607D01*
X108435883Y-78944671D01*
X108416670Y-78958921D01*
X108396153Y-78971218D01*
X108374529Y-78981446D01*
X108352007Y-78989504D01*
X108328803Y-78995316D01*
X108305142Y-78998826D01*
X108281250Y-79000000D01*
X107793750Y-79000000D01*
X107769858Y-78998826D01*
X107746197Y-78995316D01*
X107722993Y-78989504D01*
X107700471Y-78981446D01*
X107678847Y-78971218D01*
X107658330Y-78958921D01*
X107639117Y-78944671D01*
X107621393Y-78928607D01*
X107605329Y-78910883D01*
X107591079Y-78891670D01*
X107578782Y-78871153D01*
X107568554Y-78849529D01*
X107560496Y-78827007D01*
X107554684Y-78803803D01*
X107551174Y-78780142D01*
X107550000Y-78756250D01*
X107550000Y-77843750D01*
X107551174Y-77819858D01*
X107554684Y-77796197D01*
X107560496Y-77772993D01*
X107568554Y-77750471D01*
X107578782Y-77728847D01*
X107591079Y-77708330D01*
X107605329Y-77689117D01*
X107621393Y-77671393D01*
X107639117Y-77655329D01*
X107658330Y-77641079D01*
X107678847Y-77628782D01*
X107700471Y-77618554D01*
X107722993Y-77610496D01*
X107746197Y-77604684D01*
X107769858Y-77601174D01*
X107793750Y-77600000D01*
X108281250Y-77600000D01*
X108305142Y-77601174D01*
X108305142Y-77601174D01*
G37*
D12*
G04 #@! TD*
G04 #@! TO.P,R7,2*
G04 #@! TO.N,Net-(D7-Pad1)*
X108037500Y-78300000D03*
D10*
G04 #@! TO.N,Net-(Q2-Pad3)*
G04 #@! TO.C,R7*
G36*
X106430142Y-77601174D02*
X106453803Y-77604684D01*
X106477007Y-77610496D01*
X106499529Y-77618554D01*
X106521153Y-77628782D01*
X106541670Y-77641079D01*
X106560883Y-77655329D01*
X106578607Y-77671393D01*
X106594671Y-77689117D01*
X106608921Y-77708330D01*
X106621218Y-77728847D01*
X106631446Y-77750471D01*
X106639504Y-77772993D01*
X106645316Y-77796197D01*
X106648826Y-77819858D01*
X106650000Y-77843750D01*
X106650000Y-78756250D01*
X106648826Y-78780142D01*
X106645316Y-78803803D01*
X106639504Y-78827007D01*
X106631446Y-78849529D01*
X106621218Y-78871153D01*
X106608921Y-78891670D01*
X106594671Y-78910883D01*
X106578607Y-78928607D01*
X106560883Y-78944671D01*
X106541670Y-78958921D01*
X106521153Y-78971218D01*
X106499529Y-78981446D01*
X106477007Y-78989504D01*
X106453803Y-78995316D01*
X106430142Y-78998826D01*
X106406250Y-79000000D01*
X105918750Y-79000000D01*
X105894858Y-78998826D01*
X105871197Y-78995316D01*
X105847993Y-78989504D01*
X105825471Y-78981446D01*
X105803847Y-78971218D01*
X105783330Y-78958921D01*
X105764117Y-78944671D01*
X105746393Y-78928607D01*
X105730329Y-78910883D01*
X105716079Y-78891670D01*
X105703782Y-78871153D01*
X105693554Y-78849529D01*
X105685496Y-78827007D01*
X105679684Y-78803803D01*
X105676174Y-78780142D01*
X105675000Y-78756250D01*
X105675000Y-77843750D01*
X105676174Y-77819858D01*
X105679684Y-77796197D01*
X105685496Y-77772993D01*
X105693554Y-77750471D01*
X105703782Y-77728847D01*
X105716079Y-77708330D01*
X105730329Y-77689117D01*
X105746393Y-77671393D01*
X105764117Y-77655329D01*
X105783330Y-77641079D01*
X105803847Y-77628782D01*
X105825471Y-77618554D01*
X105847993Y-77610496D01*
X105871197Y-77604684D01*
X105894858Y-77601174D01*
X105918750Y-77600000D01*
X106406250Y-77600000D01*
X106430142Y-77601174D01*
X106430142Y-77601174D01*
G37*
D12*
G04 #@! TD*
G04 #@! TO.P,R7,1*
G04 #@! TO.N,Net-(Q2-Pad3)*
X106162500Y-78300000D03*
D16*
G04 #@! TO.P,C1,1*
G04 #@! TO.N,+5V*
X122400000Y-90800000D03*
G04 #@! TO.P,C1,2*
G04 #@! TO.N,GND*
X122400000Y-95200000D03*
G04 #@! TD*
D10*
G04 #@! TO.N,+5V*
G04 #@! TO.C,C5*
G36*
X108405142Y-72301174D02*
X108428803Y-72304684D01*
X108452007Y-72310496D01*
X108474529Y-72318554D01*
X108496153Y-72328782D01*
X108516670Y-72341079D01*
X108535883Y-72355329D01*
X108553607Y-72371393D01*
X108569671Y-72389117D01*
X108583921Y-72408330D01*
X108596218Y-72428847D01*
X108606446Y-72450471D01*
X108614504Y-72472993D01*
X108620316Y-72496197D01*
X108623826Y-72519858D01*
X108625000Y-72543750D01*
X108625000Y-73456250D01*
X108623826Y-73480142D01*
X108620316Y-73503803D01*
X108614504Y-73527007D01*
X108606446Y-73549529D01*
X108596218Y-73571153D01*
X108583921Y-73591670D01*
X108569671Y-73610883D01*
X108553607Y-73628607D01*
X108535883Y-73644671D01*
X108516670Y-73658921D01*
X108496153Y-73671218D01*
X108474529Y-73681446D01*
X108452007Y-73689504D01*
X108428803Y-73695316D01*
X108405142Y-73698826D01*
X108381250Y-73700000D01*
X107893750Y-73700000D01*
X107869858Y-73698826D01*
X107846197Y-73695316D01*
X107822993Y-73689504D01*
X107800471Y-73681446D01*
X107778847Y-73671218D01*
X107758330Y-73658921D01*
X107739117Y-73644671D01*
X107721393Y-73628607D01*
X107705329Y-73610883D01*
X107691079Y-73591670D01*
X107678782Y-73571153D01*
X107668554Y-73549529D01*
X107660496Y-73527007D01*
X107654684Y-73503803D01*
X107651174Y-73480142D01*
X107650000Y-73456250D01*
X107650000Y-72543750D01*
X107651174Y-72519858D01*
X107654684Y-72496197D01*
X107660496Y-72472993D01*
X107668554Y-72450471D01*
X107678782Y-72428847D01*
X107691079Y-72408330D01*
X107705329Y-72389117D01*
X107721393Y-72371393D01*
X107739117Y-72355329D01*
X107758330Y-72341079D01*
X107778847Y-72328782D01*
X107800471Y-72318554D01*
X107822993Y-72310496D01*
X107846197Y-72304684D01*
X107869858Y-72301174D01*
X107893750Y-72300000D01*
X108381250Y-72300000D01*
X108405142Y-72301174D01*
X108405142Y-72301174D01*
G37*
D12*
G04 #@! TD*
G04 #@! TO.P,C5,1*
G04 #@! TO.N,+5V*
X108137500Y-73000000D03*
D10*
G04 #@! TO.N,GND*
G04 #@! TO.C,C5*
G36*
X106530142Y-72301174D02*
X106553803Y-72304684D01*
X106577007Y-72310496D01*
X106599529Y-72318554D01*
X106621153Y-72328782D01*
X106641670Y-72341079D01*
X106660883Y-72355329D01*
X106678607Y-72371393D01*
X106694671Y-72389117D01*
X106708921Y-72408330D01*
X106721218Y-72428847D01*
X106731446Y-72450471D01*
X106739504Y-72472993D01*
X106745316Y-72496197D01*
X106748826Y-72519858D01*
X106750000Y-72543750D01*
X106750000Y-73456250D01*
X106748826Y-73480142D01*
X106745316Y-73503803D01*
X106739504Y-73527007D01*
X106731446Y-73549529D01*
X106721218Y-73571153D01*
X106708921Y-73591670D01*
X106694671Y-73610883D01*
X106678607Y-73628607D01*
X106660883Y-73644671D01*
X106641670Y-73658921D01*
X106621153Y-73671218D01*
X106599529Y-73681446D01*
X106577007Y-73689504D01*
X106553803Y-73695316D01*
X106530142Y-73698826D01*
X106506250Y-73700000D01*
X106018750Y-73700000D01*
X105994858Y-73698826D01*
X105971197Y-73695316D01*
X105947993Y-73689504D01*
X105925471Y-73681446D01*
X105903847Y-73671218D01*
X105883330Y-73658921D01*
X105864117Y-73644671D01*
X105846393Y-73628607D01*
X105830329Y-73610883D01*
X105816079Y-73591670D01*
X105803782Y-73571153D01*
X105793554Y-73549529D01*
X105785496Y-73527007D01*
X105779684Y-73503803D01*
X105776174Y-73480142D01*
X105775000Y-73456250D01*
X105775000Y-72543750D01*
X105776174Y-72519858D01*
X105779684Y-72496197D01*
X105785496Y-72472993D01*
X105793554Y-72450471D01*
X105803782Y-72428847D01*
X105816079Y-72408330D01*
X105830329Y-72389117D01*
X105846393Y-72371393D01*
X105864117Y-72355329D01*
X105883330Y-72341079D01*
X105903847Y-72328782D01*
X105925471Y-72318554D01*
X105947993Y-72310496D01*
X105971197Y-72304684D01*
X105994858Y-72301174D01*
X106018750Y-72300000D01*
X106506250Y-72300000D01*
X106530142Y-72301174D01*
X106530142Y-72301174D01*
G37*
D12*
G04 #@! TD*
G04 #@! TO.P,C5,2*
G04 #@! TO.N,GND*
X106262500Y-73000000D03*
D10*
G04 #@! TO.N,GND*
G04 #@! TO.C,C6*
G36*
X115580142Y-87901174D02*
X115603803Y-87904684D01*
X115627007Y-87910496D01*
X115649529Y-87918554D01*
X115671153Y-87928782D01*
X115691670Y-87941079D01*
X115710883Y-87955329D01*
X115728607Y-87971393D01*
X115744671Y-87989117D01*
X115758921Y-88008330D01*
X115771218Y-88028847D01*
X115781446Y-88050471D01*
X115789504Y-88072993D01*
X115795316Y-88096197D01*
X115798826Y-88119858D01*
X115800000Y-88143750D01*
X115800000Y-89056250D01*
X115798826Y-89080142D01*
X115795316Y-89103803D01*
X115789504Y-89127007D01*
X115781446Y-89149529D01*
X115771218Y-89171153D01*
X115758921Y-89191670D01*
X115744671Y-89210883D01*
X115728607Y-89228607D01*
X115710883Y-89244671D01*
X115691670Y-89258921D01*
X115671153Y-89271218D01*
X115649529Y-89281446D01*
X115627007Y-89289504D01*
X115603803Y-89295316D01*
X115580142Y-89298826D01*
X115556250Y-89300000D01*
X115068750Y-89300000D01*
X115044858Y-89298826D01*
X115021197Y-89295316D01*
X114997993Y-89289504D01*
X114975471Y-89281446D01*
X114953847Y-89271218D01*
X114933330Y-89258921D01*
X114914117Y-89244671D01*
X114896393Y-89228607D01*
X114880329Y-89210883D01*
X114866079Y-89191670D01*
X114853782Y-89171153D01*
X114843554Y-89149529D01*
X114835496Y-89127007D01*
X114829684Y-89103803D01*
X114826174Y-89080142D01*
X114825000Y-89056250D01*
X114825000Y-88143750D01*
X114826174Y-88119858D01*
X114829684Y-88096197D01*
X114835496Y-88072993D01*
X114843554Y-88050471D01*
X114853782Y-88028847D01*
X114866079Y-88008330D01*
X114880329Y-87989117D01*
X114896393Y-87971393D01*
X114914117Y-87955329D01*
X114933330Y-87941079D01*
X114953847Y-87928782D01*
X114975471Y-87918554D01*
X114997993Y-87910496D01*
X115021197Y-87904684D01*
X115044858Y-87901174D01*
X115068750Y-87900000D01*
X115556250Y-87900000D01*
X115580142Y-87901174D01*
X115580142Y-87901174D01*
G37*
D12*
G04 #@! TD*
G04 #@! TO.P,C6,2*
G04 #@! TO.N,GND*
X115312500Y-88600000D03*
D10*
G04 #@! TO.N,+5V*
G04 #@! TO.C,C6*
G36*
X117455142Y-87901174D02*
X117478803Y-87904684D01*
X117502007Y-87910496D01*
X117524529Y-87918554D01*
X117546153Y-87928782D01*
X117566670Y-87941079D01*
X117585883Y-87955329D01*
X117603607Y-87971393D01*
X117619671Y-87989117D01*
X117633921Y-88008330D01*
X117646218Y-88028847D01*
X117656446Y-88050471D01*
X117664504Y-88072993D01*
X117670316Y-88096197D01*
X117673826Y-88119858D01*
X117675000Y-88143750D01*
X117675000Y-89056250D01*
X117673826Y-89080142D01*
X117670316Y-89103803D01*
X117664504Y-89127007D01*
X117656446Y-89149529D01*
X117646218Y-89171153D01*
X117633921Y-89191670D01*
X117619671Y-89210883D01*
X117603607Y-89228607D01*
X117585883Y-89244671D01*
X117566670Y-89258921D01*
X117546153Y-89271218D01*
X117524529Y-89281446D01*
X117502007Y-89289504D01*
X117478803Y-89295316D01*
X117455142Y-89298826D01*
X117431250Y-89300000D01*
X116943750Y-89300000D01*
X116919858Y-89298826D01*
X116896197Y-89295316D01*
X116872993Y-89289504D01*
X116850471Y-89281446D01*
X116828847Y-89271218D01*
X116808330Y-89258921D01*
X116789117Y-89244671D01*
X116771393Y-89228607D01*
X116755329Y-89210883D01*
X116741079Y-89191670D01*
X116728782Y-89171153D01*
X116718554Y-89149529D01*
X116710496Y-89127007D01*
X116704684Y-89103803D01*
X116701174Y-89080142D01*
X116700000Y-89056250D01*
X116700000Y-88143750D01*
X116701174Y-88119858D01*
X116704684Y-88096197D01*
X116710496Y-88072993D01*
X116718554Y-88050471D01*
X116728782Y-88028847D01*
X116741079Y-88008330D01*
X116755329Y-87989117D01*
X116771393Y-87971393D01*
X116789117Y-87955329D01*
X116808330Y-87941079D01*
X116828847Y-87928782D01*
X116850471Y-87918554D01*
X116872993Y-87910496D01*
X116896197Y-87904684D01*
X116919858Y-87901174D01*
X116943750Y-87900000D01*
X117431250Y-87900000D01*
X117455142Y-87901174D01*
X117455142Y-87901174D01*
G37*
D12*
G04 #@! TD*
G04 #@! TO.P,C6,1*
G04 #@! TO.N,+5V*
X117187500Y-88600000D03*
D10*
G04 #@! TO.N,+5V*
G04 #@! TO.C,C7*
G36*
X117555142Y-72251174D02*
X117578803Y-72254684D01*
X117602007Y-72260496D01*
X117624529Y-72268554D01*
X117646153Y-72278782D01*
X117666670Y-72291079D01*
X117685883Y-72305329D01*
X117703607Y-72321393D01*
X117719671Y-72339117D01*
X117733921Y-72358330D01*
X117746218Y-72378847D01*
X117756446Y-72400471D01*
X117764504Y-72422993D01*
X117770316Y-72446197D01*
X117773826Y-72469858D01*
X117775000Y-72493750D01*
X117775000Y-73406250D01*
X117773826Y-73430142D01*
X117770316Y-73453803D01*
X117764504Y-73477007D01*
X117756446Y-73499529D01*
X117746218Y-73521153D01*
X117733921Y-73541670D01*
X117719671Y-73560883D01*
X117703607Y-73578607D01*
X117685883Y-73594671D01*
X117666670Y-73608921D01*
X117646153Y-73621218D01*
X117624529Y-73631446D01*
X117602007Y-73639504D01*
X117578803Y-73645316D01*
X117555142Y-73648826D01*
X117531250Y-73650000D01*
X117043750Y-73650000D01*
X117019858Y-73648826D01*
X116996197Y-73645316D01*
X116972993Y-73639504D01*
X116950471Y-73631446D01*
X116928847Y-73621218D01*
X116908330Y-73608921D01*
X116889117Y-73594671D01*
X116871393Y-73578607D01*
X116855329Y-73560883D01*
X116841079Y-73541670D01*
X116828782Y-73521153D01*
X116818554Y-73499529D01*
X116810496Y-73477007D01*
X116804684Y-73453803D01*
X116801174Y-73430142D01*
X116800000Y-73406250D01*
X116800000Y-72493750D01*
X116801174Y-72469858D01*
X116804684Y-72446197D01*
X116810496Y-72422993D01*
X116818554Y-72400471D01*
X116828782Y-72378847D01*
X116841079Y-72358330D01*
X116855329Y-72339117D01*
X116871393Y-72321393D01*
X116889117Y-72305329D01*
X116908330Y-72291079D01*
X116928847Y-72278782D01*
X116950471Y-72268554D01*
X116972993Y-72260496D01*
X116996197Y-72254684D01*
X117019858Y-72251174D01*
X117043750Y-72250000D01*
X117531250Y-72250000D01*
X117555142Y-72251174D01*
X117555142Y-72251174D01*
G37*
D12*
G04 #@! TD*
G04 #@! TO.P,C7,1*
G04 #@! TO.N,+5V*
X117287500Y-72950000D03*
D10*
G04 #@! TO.N,GND*
G04 #@! TO.C,C7*
G36*
X115680142Y-72251174D02*
X115703803Y-72254684D01*
X115727007Y-72260496D01*
X115749529Y-72268554D01*
X115771153Y-72278782D01*
X115791670Y-72291079D01*
X115810883Y-72305329D01*
X115828607Y-72321393D01*
X115844671Y-72339117D01*
X115858921Y-72358330D01*
X115871218Y-72378847D01*
X115881446Y-72400471D01*
X115889504Y-72422993D01*
X115895316Y-72446197D01*
X115898826Y-72469858D01*
X115900000Y-72493750D01*
X115900000Y-73406250D01*
X115898826Y-73430142D01*
X115895316Y-73453803D01*
X115889504Y-73477007D01*
X115881446Y-73499529D01*
X115871218Y-73521153D01*
X115858921Y-73541670D01*
X115844671Y-73560883D01*
X115828607Y-73578607D01*
X115810883Y-73594671D01*
X115791670Y-73608921D01*
X115771153Y-73621218D01*
X115749529Y-73631446D01*
X115727007Y-73639504D01*
X115703803Y-73645316D01*
X115680142Y-73648826D01*
X115656250Y-73650000D01*
X115168750Y-73650000D01*
X115144858Y-73648826D01*
X115121197Y-73645316D01*
X115097993Y-73639504D01*
X115075471Y-73631446D01*
X115053847Y-73621218D01*
X115033330Y-73608921D01*
X115014117Y-73594671D01*
X114996393Y-73578607D01*
X114980329Y-73560883D01*
X114966079Y-73541670D01*
X114953782Y-73521153D01*
X114943554Y-73499529D01*
X114935496Y-73477007D01*
X114929684Y-73453803D01*
X114926174Y-73430142D01*
X114925000Y-73406250D01*
X114925000Y-72493750D01*
X114926174Y-72469858D01*
X114929684Y-72446197D01*
X114935496Y-72422993D01*
X114943554Y-72400471D01*
X114953782Y-72378847D01*
X114966079Y-72358330D01*
X114980329Y-72339117D01*
X114996393Y-72321393D01*
X115014117Y-72305329D01*
X115033330Y-72291079D01*
X115053847Y-72278782D01*
X115075471Y-72268554D01*
X115097993Y-72260496D01*
X115121197Y-72254684D01*
X115144858Y-72251174D01*
X115168750Y-72250000D01*
X115656250Y-72250000D01*
X115680142Y-72251174D01*
X115680142Y-72251174D01*
G37*
D12*
G04 #@! TD*
G04 #@! TO.P,C7,2*
G04 #@! TO.N,GND*
X115412500Y-72950000D03*
D10*
G04 #@! TO.N,GND*
G04 #@! TO.C,C8*
G36*
X106580142Y-87801174D02*
X106603803Y-87804684D01*
X106627007Y-87810496D01*
X106649529Y-87818554D01*
X106671153Y-87828782D01*
X106691670Y-87841079D01*
X106710883Y-87855329D01*
X106728607Y-87871393D01*
X106744671Y-87889117D01*
X106758921Y-87908330D01*
X106771218Y-87928847D01*
X106781446Y-87950471D01*
X106789504Y-87972993D01*
X106795316Y-87996197D01*
X106798826Y-88019858D01*
X106800000Y-88043750D01*
X106800000Y-88956250D01*
X106798826Y-88980142D01*
X106795316Y-89003803D01*
X106789504Y-89027007D01*
X106781446Y-89049529D01*
X106771218Y-89071153D01*
X106758921Y-89091670D01*
X106744671Y-89110883D01*
X106728607Y-89128607D01*
X106710883Y-89144671D01*
X106691670Y-89158921D01*
X106671153Y-89171218D01*
X106649529Y-89181446D01*
X106627007Y-89189504D01*
X106603803Y-89195316D01*
X106580142Y-89198826D01*
X106556250Y-89200000D01*
X106068750Y-89200000D01*
X106044858Y-89198826D01*
X106021197Y-89195316D01*
X105997993Y-89189504D01*
X105975471Y-89181446D01*
X105953847Y-89171218D01*
X105933330Y-89158921D01*
X105914117Y-89144671D01*
X105896393Y-89128607D01*
X105880329Y-89110883D01*
X105866079Y-89091670D01*
X105853782Y-89071153D01*
X105843554Y-89049529D01*
X105835496Y-89027007D01*
X105829684Y-89003803D01*
X105826174Y-88980142D01*
X105825000Y-88956250D01*
X105825000Y-88043750D01*
X105826174Y-88019858D01*
X105829684Y-87996197D01*
X105835496Y-87972993D01*
X105843554Y-87950471D01*
X105853782Y-87928847D01*
X105866079Y-87908330D01*
X105880329Y-87889117D01*
X105896393Y-87871393D01*
X105914117Y-87855329D01*
X105933330Y-87841079D01*
X105953847Y-87828782D01*
X105975471Y-87818554D01*
X105997993Y-87810496D01*
X106021197Y-87804684D01*
X106044858Y-87801174D01*
X106068750Y-87800000D01*
X106556250Y-87800000D01*
X106580142Y-87801174D01*
X106580142Y-87801174D01*
G37*
D12*
G04 #@! TD*
G04 #@! TO.P,C8,2*
G04 #@! TO.N,GND*
X106312500Y-88500000D03*
D10*
G04 #@! TO.N,+5V*
G04 #@! TO.C,C8*
G36*
X108455142Y-87801174D02*
X108478803Y-87804684D01*
X108502007Y-87810496D01*
X108524529Y-87818554D01*
X108546153Y-87828782D01*
X108566670Y-87841079D01*
X108585883Y-87855329D01*
X108603607Y-87871393D01*
X108619671Y-87889117D01*
X108633921Y-87908330D01*
X108646218Y-87928847D01*
X108656446Y-87950471D01*
X108664504Y-87972993D01*
X108670316Y-87996197D01*
X108673826Y-88019858D01*
X108675000Y-88043750D01*
X108675000Y-88956250D01*
X108673826Y-88980142D01*
X108670316Y-89003803D01*
X108664504Y-89027007D01*
X108656446Y-89049529D01*
X108646218Y-89071153D01*
X108633921Y-89091670D01*
X108619671Y-89110883D01*
X108603607Y-89128607D01*
X108585883Y-89144671D01*
X108566670Y-89158921D01*
X108546153Y-89171218D01*
X108524529Y-89181446D01*
X108502007Y-89189504D01*
X108478803Y-89195316D01*
X108455142Y-89198826D01*
X108431250Y-89200000D01*
X107943750Y-89200000D01*
X107919858Y-89198826D01*
X107896197Y-89195316D01*
X107872993Y-89189504D01*
X107850471Y-89181446D01*
X107828847Y-89171218D01*
X107808330Y-89158921D01*
X107789117Y-89144671D01*
X107771393Y-89128607D01*
X107755329Y-89110883D01*
X107741079Y-89091670D01*
X107728782Y-89071153D01*
X107718554Y-89049529D01*
X107710496Y-89027007D01*
X107704684Y-89003803D01*
X107701174Y-88980142D01*
X107700000Y-88956250D01*
X107700000Y-88043750D01*
X107701174Y-88019858D01*
X107704684Y-87996197D01*
X107710496Y-87972993D01*
X107718554Y-87950471D01*
X107728782Y-87928847D01*
X107741079Y-87908330D01*
X107755329Y-87889117D01*
X107771393Y-87871393D01*
X107789117Y-87855329D01*
X107808330Y-87841079D01*
X107828847Y-87828782D01*
X107850471Y-87818554D01*
X107872993Y-87810496D01*
X107896197Y-87804684D01*
X107919858Y-87801174D01*
X107943750Y-87800000D01*
X108431250Y-87800000D01*
X108455142Y-87801174D01*
X108455142Y-87801174D01*
G37*
D12*
G04 #@! TD*
G04 #@! TO.P,C8,1*
G04 #@! TO.N,+5V*
X108187500Y-88500000D03*
D10*
G04 #@! TO.N,+5V*
G04 #@! TO.C,C9*
G36*
X121905142Y-80251174D02*
X121928803Y-80254684D01*
X121952007Y-80260496D01*
X121974529Y-80268554D01*
X121996153Y-80278782D01*
X122016670Y-80291079D01*
X122035883Y-80305329D01*
X122053607Y-80321393D01*
X122069671Y-80339117D01*
X122083921Y-80358330D01*
X122096218Y-80378847D01*
X122106446Y-80400471D01*
X122114504Y-80422993D01*
X122120316Y-80446197D01*
X122123826Y-80469858D01*
X122125000Y-80493750D01*
X122125000Y-81406250D01*
X122123826Y-81430142D01*
X122120316Y-81453803D01*
X122114504Y-81477007D01*
X122106446Y-81499529D01*
X122096218Y-81521153D01*
X122083921Y-81541670D01*
X122069671Y-81560883D01*
X122053607Y-81578607D01*
X122035883Y-81594671D01*
X122016670Y-81608921D01*
X121996153Y-81621218D01*
X121974529Y-81631446D01*
X121952007Y-81639504D01*
X121928803Y-81645316D01*
X121905142Y-81648826D01*
X121881250Y-81650000D01*
X121393750Y-81650000D01*
X121369858Y-81648826D01*
X121346197Y-81645316D01*
X121322993Y-81639504D01*
X121300471Y-81631446D01*
X121278847Y-81621218D01*
X121258330Y-81608921D01*
X121239117Y-81594671D01*
X121221393Y-81578607D01*
X121205329Y-81560883D01*
X121191079Y-81541670D01*
X121178782Y-81521153D01*
X121168554Y-81499529D01*
X121160496Y-81477007D01*
X121154684Y-81453803D01*
X121151174Y-81430142D01*
X121150000Y-81406250D01*
X121150000Y-80493750D01*
X121151174Y-80469858D01*
X121154684Y-80446197D01*
X121160496Y-80422993D01*
X121168554Y-80400471D01*
X121178782Y-80378847D01*
X121191079Y-80358330D01*
X121205329Y-80339117D01*
X121221393Y-80321393D01*
X121239117Y-80305329D01*
X121258330Y-80291079D01*
X121278847Y-80278782D01*
X121300471Y-80268554D01*
X121322993Y-80260496D01*
X121346197Y-80254684D01*
X121369858Y-80251174D01*
X121393750Y-80250000D01*
X121881250Y-80250000D01*
X121905142Y-80251174D01*
X121905142Y-80251174D01*
G37*
D12*
G04 #@! TD*
G04 #@! TO.P,C9,1*
G04 #@! TO.N,+5V*
X121637500Y-80950000D03*
D10*
G04 #@! TO.N,GND*
G04 #@! TO.C,C9*
G36*
X120030142Y-80251174D02*
X120053803Y-80254684D01*
X120077007Y-80260496D01*
X120099529Y-80268554D01*
X120121153Y-80278782D01*
X120141670Y-80291079D01*
X120160883Y-80305329D01*
X120178607Y-80321393D01*
X120194671Y-80339117D01*
X120208921Y-80358330D01*
X120221218Y-80378847D01*
X120231446Y-80400471D01*
X120239504Y-80422993D01*
X120245316Y-80446197D01*
X120248826Y-80469858D01*
X120250000Y-80493750D01*
X120250000Y-81406250D01*
X120248826Y-81430142D01*
X120245316Y-81453803D01*
X120239504Y-81477007D01*
X120231446Y-81499529D01*
X120221218Y-81521153D01*
X120208921Y-81541670D01*
X120194671Y-81560883D01*
X120178607Y-81578607D01*
X120160883Y-81594671D01*
X120141670Y-81608921D01*
X120121153Y-81621218D01*
X120099529Y-81631446D01*
X120077007Y-81639504D01*
X120053803Y-81645316D01*
X120030142Y-81648826D01*
X120006250Y-81650000D01*
X119518750Y-81650000D01*
X119494858Y-81648826D01*
X119471197Y-81645316D01*
X119447993Y-81639504D01*
X119425471Y-81631446D01*
X119403847Y-81621218D01*
X119383330Y-81608921D01*
X119364117Y-81594671D01*
X119346393Y-81578607D01*
X119330329Y-81560883D01*
X119316079Y-81541670D01*
X119303782Y-81521153D01*
X119293554Y-81499529D01*
X119285496Y-81477007D01*
X119279684Y-81453803D01*
X119276174Y-81430142D01*
X119275000Y-81406250D01*
X119275000Y-80493750D01*
X119276174Y-80469858D01*
X119279684Y-80446197D01*
X119285496Y-80422993D01*
X119293554Y-80400471D01*
X119303782Y-80378847D01*
X119316079Y-80358330D01*
X119330329Y-80339117D01*
X119346393Y-80321393D01*
X119364117Y-80305329D01*
X119383330Y-80291079D01*
X119403847Y-80278782D01*
X119425471Y-80268554D01*
X119447993Y-80260496D01*
X119471197Y-80254684D01*
X119494858Y-80251174D01*
X119518750Y-80250000D01*
X120006250Y-80250000D01*
X120030142Y-80251174D01*
X120030142Y-80251174D01*
G37*
D12*
G04 #@! TD*
G04 #@! TO.P,C9,2*
G04 #@! TO.N,GND*
X119762500Y-80950000D03*
D10*
G04 #@! TO.N,GND*
G04 #@! TO.C,C10*
G36*
X102080142Y-80201174D02*
X102103803Y-80204684D01*
X102127007Y-80210496D01*
X102149529Y-80218554D01*
X102171153Y-80228782D01*
X102191670Y-80241079D01*
X102210883Y-80255329D01*
X102228607Y-80271393D01*
X102244671Y-80289117D01*
X102258921Y-80308330D01*
X102271218Y-80328847D01*
X102281446Y-80350471D01*
X102289504Y-80372993D01*
X102295316Y-80396197D01*
X102298826Y-80419858D01*
X102300000Y-80443750D01*
X102300000Y-81356250D01*
X102298826Y-81380142D01*
X102295316Y-81403803D01*
X102289504Y-81427007D01*
X102281446Y-81449529D01*
X102271218Y-81471153D01*
X102258921Y-81491670D01*
X102244671Y-81510883D01*
X102228607Y-81528607D01*
X102210883Y-81544671D01*
X102191670Y-81558921D01*
X102171153Y-81571218D01*
X102149529Y-81581446D01*
X102127007Y-81589504D01*
X102103803Y-81595316D01*
X102080142Y-81598826D01*
X102056250Y-81600000D01*
X101568750Y-81600000D01*
X101544858Y-81598826D01*
X101521197Y-81595316D01*
X101497993Y-81589504D01*
X101475471Y-81581446D01*
X101453847Y-81571218D01*
X101433330Y-81558921D01*
X101414117Y-81544671D01*
X101396393Y-81528607D01*
X101380329Y-81510883D01*
X101366079Y-81491670D01*
X101353782Y-81471153D01*
X101343554Y-81449529D01*
X101335496Y-81427007D01*
X101329684Y-81403803D01*
X101326174Y-81380142D01*
X101325000Y-81356250D01*
X101325000Y-80443750D01*
X101326174Y-80419858D01*
X101329684Y-80396197D01*
X101335496Y-80372993D01*
X101343554Y-80350471D01*
X101353782Y-80328847D01*
X101366079Y-80308330D01*
X101380329Y-80289117D01*
X101396393Y-80271393D01*
X101414117Y-80255329D01*
X101433330Y-80241079D01*
X101453847Y-80228782D01*
X101475471Y-80218554D01*
X101497993Y-80210496D01*
X101521197Y-80204684D01*
X101544858Y-80201174D01*
X101568750Y-80200000D01*
X102056250Y-80200000D01*
X102080142Y-80201174D01*
X102080142Y-80201174D01*
G37*
D12*
G04 #@! TD*
G04 #@! TO.P,C10,2*
G04 #@! TO.N,GND*
X101812500Y-80900000D03*
D10*
G04 #@! TO.N,+5V*
G04 #@! TO.C,C10*
G36*
X103955142Y-80201174D02*
X103978803Y-80204684D01*
X104002007Y-80210496D01*
X104024529Y-80218554D01*
X104046153Y-80228782D01*
X104066670Y-80241079D01*
X104085883Y-80255329D01*
X104103607Y-80271393D01*
X104119671Y-80289117D01*
X104133921Y-80308330D01*
X104146218Y-80328847D01*
X104156446Y-80350471D01*
X104164504Y-80372993D01*
X104170316Y-80396197D01*
X104173826Y-80419858D01*
X104175000Y-80443750D01*
X104175000Y-81356250D01*
X104173826Y-81380142D01*
X104170316Y-81403803D01*
X104164504Y-81427007D01*
X104156446Y-81449529D01*
X104146218Y-81471153D01*
X104133921Y-81491670D01*
X104119671Y-81510883D01*
X104103607Y-81528607D01*
X104085883Y-81544671D01*
X104066670Y-81558921D01*
X104046153Y-81571218D01*
X104024529Y-81581446D01*
X104002007Y-81589504D01*
X103978803Y-81595316D01*
X103955142Y-81598826D01*
X103931250Y-81600000D01*
X103443750Y-81600000D01*
X103419858Y-81598826D01*
X103396197Y-81595316D01*
X103372993Y-81589504D01*
X103350471Y-81581446D01*
X103328847Y-81571218D01*
X103308330Y-81558921D01*
X103289117Y-81544671D01*
X103271393Y-81528607D01*
X103255329Y-81510883D01*
X103241079Y-81491670D01*
X103228782Y-81471153D01*
X103218554Y-81449529D01*
X103210496Y-81427007D01*
X103204684Y-81403803D01*
X103201174Y-81380142D01*
X103200000Y-81356250D01*
X103200000Y-80443750D01*
X103201174Y-80419858D01*
X103204684Y-80396197D01*
X103210496Y-80372993D01*
X103218554Y-80350471D01*
X103228782Y-80328847D01*
X103241079Y-80308330D01*
X103255329Y-80289117D01*
X103271393Y-80271393D01*
X103289117Y-80255329D01*
X103308330Y-80241079D01*
X103328847Y-80228782D01*
X103350471Y-80218554D01*
X103372993Y-80210496D01*
X103396197Y-80204684D01*
X103419858Y-80201174D01*
X103443750Y-80200000D01*
X103931250Y-80200000D01*
X103955142Y-80201174D01*
X103955142Y-80201174D01*
G37*
D12*
G04 #@! TD*
G04 #@! TO.P,C10,1*
G04 #@! TO.N,+5V*
X103687500Y-80900000D03*
D10*
G04 #@! TO.N,+5V*
G04 #@! TO.C,C11*
G36*
X113005142Y-80251174D02*
X113028803Y-80254684D01*
X113052007Y-80260496D01*
X113074529Y-80268554D01*
X113096153Y-80278782D01*
X113116670Y-80291079D01*
X113135883Y-80305329D01*
X113153607Y-80321393D01*
X113169671Y-80339117D01*
X113183921Y-80358330D01*
X113196218Y-80378847D01*
X113206446Y-80400471D01*
X113214504Y-80422993D01*
X113220316Y-80446197D01*
X113223826Y-80469858D01*
X113225000Y-80493750D01*
X113225000Y-81406250D01*
X113223826Y-81430142D01*
X113220316Y-81453803D01*
X113214504Y-81477007D01*
X113206446Y-81499529D01*
X113196218Y-81521153D01*
X113183921Y-81541670D01*
X113169671Y-81560883D01*
X113153607Y-81578607D01*
X113135883Y-81594671D01*
X113116670Y-81608921D01*
X113096153Y-81621218D01*
X113074529Y-81631446D01*
X113052007Y-81639504D01*
X113028803Y-81645316D01*
X113005142Y-81648826D01*
X112981250Y-81650000D01*
X112493750Y-81650000D01*
X112469858Y-81648826D01*
X112446197Y-81645316D01*
X112422993Y-81639504D01*
X112400471Y-81631446D01*
X112378847Y-81621218D01*
X112358330Y-81608921D01*
X112339117Y-81594671D01*
X112321393Y-81578607D01*
X112305329Y-81560883D01*
X112291079Y-81541670D01*
X112278782Y-81521153D01*
X112268554Y-81499529D01*
X112260496Y-81477007D01*
X112254684Y-81453803D01*
X112251174Y-81430142D01*
X112250000Y-81406250D01*
X112250000Y-80493750D01*
X112251174Y-80469858D01*
X112254684Y-80446197D01*
X112260496Y-80422993D01*
X112268554Y-80400471D01*
X112278782Y-80378847D01*
X112291079Y-80358330D01*
X112305329Y-80339117D01*
X112321393Y-80321393D01*
X112339117Y-80305329D01*
X112358330Y-80291079D01*
X112378847Y-80278782D01*
X112400471Y-80268554D01*
X112422993Y-80260496D01*
X112446197Y-80254684D01*
X112469858Y-80251174D01*
X112493750Y-80250000D01*
X112981250Y-80250000D01*
X113005142Y-80251174D01*
X113005142Y-80251174D01*
G37*
D12*
G04 #@! TD*
G04 #@! TO.P,C11,1*
G04 #@! TO.N,+5V*
X112737500Y-80950000D03*
D10*
G04 #@! TO.N,GND*
G04 #@! TO.C,C11*
G36*
X111130142Y-80251174D02*
X111153803Y-80254684D01*
X111177007Y-80260496D01*
X111199529Y-80268554D01*
X111221153Y-80278782D01*
X111241670Y-80291079D01*
X111260883Y-80305329D01*
X111278607Y-80321393D01*
X111294671Y-80339117D01*
X111308921Y-80358330D01*
X111321218Y-80378847D01*
X111331446Y-80400471D01*
X111339504Y-80422993D01*
X111345316Y-80446197D01*
X111348826Y-80469858D01*
X111350000Y-80493750D01*
X111350000Y-81406250D01*
X111348826Y-81430142D01*
X111345316Y-81453803D01*
X111339504Y-81477007D01*
X111331446Y-81499529D01*
X111321218Y-81521153D01*
X111308921Y-81541670D01*
X111294671Y-81560883D01*
X111278607Y-81578607D01*
X111260883Y-81594671D01*
X111241670Y-81608921D01*
X111221153Y-81621218D01*
X111199529Y-81631446D01*
X111177007Y-81639504D01*
X111153803Y-81645316D01*
X111130142Y-81648826D01*
X111106250Y-81650000D01*
X110618750Y-81650000D01*
X110594858Y-81648826D01*
X110571197Y-81645316D01*
X110547993Y-81639504D01*
X110525471Y-81631446D01*
X110503847Y-81621218D01*
X110483330Y-81608921D01*
X110464117Y-81594671D01*
X110446393Y-81578607D01*
X110430329Y-81560883D01*
X110416079Y-81541670D01*
X110403782Y-81521153D01*
X110393554Y-81499529D01*
X110385496Y-81477007D01*
X110379684Y-81453803D01*
X110376174Y-81430142D01*
X110375000Y-81406250D01*
X110375000Y-80493750D01*
X110376174Y-80469858D01*
X110379684Y-80446197D01*
X110385496Y-80422993D01*
X110393554Y-80400471D01*
X110403782Y-80378847D01*
X110416079Y-80358330D01*
X110430329Y-80339117D01*
X110446393Y-80321393D01*
X110464117Y-80305329D01*
X110483330Y-80291079D01*
X110503847Y-80278782D01*
X110525471Y-80268554D01*
X110547993Y-80260496D01*
X110571197Y-80254684D01*
X110594858Y-80251174D01*
X110618750Y-80250000D01*
X111106250Y-80250000D01*
X111130142Y-80251174D01*
X111130142Y-80251174D01*
G37*
D12*
G04 #@! TD*
G04 #@! TO.P,C11,2*
G04 #@! TO.N,GND*
X110862500Y-80950000D03*
D17*
G04 #@! TO.P,J2,1*
G04 #@! TO.N,+5V*
X118200000Y-69450000D03*
D18*
G04 #@! TO.P,J2,2*
G04 #@! TO.N,SW1*
X115660000Y-69450000D03*
G04 #@! TO.P,J2,3*
G04 #@! TO.N,SW2*
X113120000Y-69450000D03*
G04 #@! TO.P,J2,4*
G04 #@! TO.N,CS*
X110580000Y-69450000D03*
G04 #@! TO.P,J2,5*
G04 #@! TO.N,DC*
X108040000Y-69450000D03*
G04 #@! TO.P,J2,6*
G04 #@! TO.N,CLK*
X105500000Y-69450000D03*
G04 #@! TO.P,J2,7*
G04 #@! TO.N,MOSI*
X102960000Y-69450000D03*
G04 #@! TO.P,J2,8*
G04 #@! TO.N,GND*
X100420000Y-69450000D03*
G04 #@! TD*
D10*
G04 #@! TO.N,GND*
G04 #@! TO.C,R8*
G36*
X115080142Y-97251174D02*
X115103803Y-97254684D01*
X115127007Y-97260496D01*
X115149529Y-97268554D01*
X115171153Y-97278782D01*
X115191670Y-97291079D01*
X115210883Y-97305329D01*
X115228607Y-97321393D01*
X115244671Y-97339117D01*
X115258921Y-97358330D01*
X115271218Y-97378847D01*
X115281446Y-97400471D01*
X115289504Y-97422993D01*
X115295316Y-97446197D01*
X115298826Y-97469858D01*
X115300000Y-97493750D01*
X115300000Y-98406250D01*
X115298826Y-98430142D01*
X115295316Y-98453803D01*
X115289504Y-98477007D01*
X115281446Y-98499529D01*
X115271218Y-98521153D01*
X115258921Y-98541670D01*
X115244671Y-98560883D01*
X115228607Y-98578607D01*
X115210883Y-98594671D01*
X115191670Y-98608921D01*
X115171153Y-98621218D01*
X115149529Y-98631446D01*
X115127007Y-98639504D01*
X115103803Y-98645316D01*
X115080142Y-98648826D01*
X115056250Y-98650000D01*
X114568750Y-98650000D01*
X114544858Y-98648826D01*
X114521197Y-98645316D01*
X114497993Y-98639504D01*
X114475471Y-98631446D01*
X114453847Y-98621218D01*
X114433330Y-98608921D01*
X114414117Y-98594671D01*
X114396393Y-98578607D01*
X114380329Y-98560883D01*
X114366079Y-98541670D01*
X114353782Y-98521153D01*
X114343554Y-98499529D01*
X114335496Y-98477007D01*
X114329684Y-98453803D01*
X114326174Y-98430142D01*
X114325000Y-98406250D01*
X114325000Y-97493750D01*
X114326174Y-97469858D01*
X114329684Y-97446197D01*
X114335496Y-97422993D01*
X114343554Y-97400471D01*
X114353782Y-97378847D01*
X114366079Y-97358330D01*
X114380329Y-97339117D01*
X114396393Y-97321393D01*
X114414117Y-97305329D01*
X114433330Y-97291079D01*
X114453847Y-97278782D01*
X114475471Y-97268554D01*
X114497993Y-97260496D01*
X114521197Y-97254684D01*
X114544858Y-97251174D01*
X114568750Y-97250000D01*
X115056250Y-97250000D01*
X115080142Y-97251174D01*
X115080142Y-97251174D01*
G37*
D12*
G04 #@! TD*
G04 #@! TO.P,R8,1*
G04 #@! TO.N,GND*
X114812500Y-97950000D03*
D10*
G04 #@! TO.N,SW1*
G04 #@! TO.C,R8*
G36*
X116955142Y-97251174D02*
X116978803Y-97254684D01*
X117002007Y-97260496D01*
X117024529Y-97268554D01*
X117046153Y-97278782D01*
X117066670Y-97291079D01*
X117085883Y-97305329D01*
X117103607Y-97321393D01*
X117119671Y-97339117D01*
X117133921Y-97358330D01*
X117146218Y-97378847D01*
X117156446Y-97400471D01*
X117164504Y-97422993D01*
X117170316Y-97446197D01*
X117173826Y-97469858D01*
X117175000Y-97493750D01*
X117175000Y-98406250D01*
X117173826Y-98430142D01*
X117170316Y-98453803D01*
X117164504Y-98477007D01*
X117156446Y-98499529D01*
X117146218Y-98521153D01*
X117133921Y-98541670D01*
X117119671Y-98560883D01*
X117103607Y-98578607D01*
X117085883Y-98594671D01*
X117066670Y-98608921D01*
X117046153Y-98621218D01*
X117024529Y-98631446D01*
X117002007Y-98639504D01*
X116978803Y-98645316D01*
X116955142Y-98648826D01*
X116931250Y-98650000D01*
X116443750Y-98650000D01*
X116419858Y-98648826D01*
X116396197Y-98645316D01*
X116372993Y-98639504D01*
X116350471Y-98631446D01*
X116328847Y-98621218D01*
X116308330Y-98608921D01*
X116289117Y-98594671D01*
X116271393Y-98578607D01*
X116255329Y-98560883D01*
X116241079Y-98541670D01*
X116228782Y-98521153D01*
X116218554Y-98499529D01*
X116210496Y-98477007D01*
X116204684Y-98453803D01*
X116201174Y-98430142D01*
X116200000Y-98406250D01*
X116200000Y-97493750D01*
X116201174Y-97469858D01*
X116204684Y-97446197D01*
X116210496Y-97422993D01*
X116218554Y-97400471D01*
X116228782Y-97378847D01*
X116241079Y-97358330D01*
X116255329Y-97339117D01*
X116271393Y-97321393D01*
X116289117Y-97305329D01*
X116308330Y-97291079D01*
X116328847Y-97278782D01*
X116350471Y-97268554D01*
X116372993Y-97260496D01*
X116396197Y-97254684D01*
X116419858Y-97251174D01*
X116443750Y-97250000D01*
X116931250Y-97250000D01*
X116955142Y-97251174D01*
X116955142Y-97251174D01*
G37*
D12*
G04 #@! TD*
G04 #@! TO.P,R8,2*
G04 #@! TO.N,SW1*
X116687500Y-97950000D03*
D10*
G04 #@! TO.N,SW2*
G04 #@! TO.C,R9*
G36*
X108655142Y-97101174D02*
X108678803Y-97104684D01*
X108702007Y-97110496D01*
X108724529Y-97118554D01*
X108746153Y-97128782D01*
X108766670Y-97141079D01*
X108785883Y-97155329D01*
X108803607Y-97171393D01*
X108819671Y-97189117D01*
X108833921Y-97208330D01*
X108846218Y-97228847D01*
X108856446Y-97250471D01*
X108864504Y-97272993D01*
X108870316Y-97296197D01*
X108873826Y-97319858D01*
X108875000Y-97343750D01*
X108875000Y-98256250D01*
X108873826Y-98280142D01*
X108870316Y-98303803D01*
X108864504Y-98327007D01*
X108856446Y-98349529D01*
X108846218Y-98371153D01*
X108833921Y-98391670D01*
X108819671Y-98410883D01*
X108803607Y-98428607D01*
X108785883Y-98444671D01*
X108766670Y-98458921D01*
X108746153Y-98471218D01*
X108724529Y-98481446D01*
X108702007Y-98489504D01*
X108678803Y-98495316D01*
X108655142Y-98498826D01*
X108631250Y-98500000D01*
X108143750Y-98500000D01*
X108119858Y-98498826D01*
X108096197Y-98495316D01*
X108072993Y-98489504D01*
X108050471Y-98481446D01*
X108028847Y-98471218D01*
X108008330Y-98458921D01*
X107989117Y-98444671D01*
X107971393Y-98428607D01*
X107955329Y-98410883D01*
X107941079Y-98391670D01*
X107928782Y-98371153D01*
X107918554Y-98349529D01*
X107910496Y-98327007D01*
X107904684Y-98303803D01*
X107901174Y-98280142D01*
X107900000Y-98256250D01*
X107900000Y-97343750D01*
X107901174Y-97319858D01*
X107904684Y-97296197D01*
X107910496Y-97272993D01*
X107918554Y-97250471D01*
X107928782Y-97228847D01*
X107941079Y-97208330D01*
X107955329Y-97189117D01*
X107971393Y-97171393D01*
X107989117Y-97155329D01*
X108008330Y-97141079D01*
X108028847Y-97128782D01*
X108050471Y-97118554D01*
X108072993Y-97110496D01*
X108096197Y-97104684D01*
X108119858Y-97101174D01*
X108143750Y-97100000D01*
X108631250Y-97100000D01*
X108655142Y-97101174D01*
X108655142Y-97101174D01*
G37*
D12*
G04 #@! TD*
G04 #@! TO.P,R9,2*
G04 #@! TO.N,SW2*
X108387500Y-97800000D03*
D10*
G04 #@! TO.N,GND*
G04 #@! TO.C,R9*
G36*
X106780142Y-97101174D02*
X106803803Y-97104684D01*
X106827007Y-97110496D01*
X106849529Y-97118554D01*
X106871153Y-97128782D01*
X106891670Y-97141079D01*
X106910883Y-97155329D01*
X106928607Y-97171393D01*
X106944671Y-97189117D01*
X106958921Y-97208330D01*
X106971218Y-97228847D01*
X106981446Y-97250471D01*
X106989504Y-97272993D01*
X106995316Y-97296197D01*
X106998826Y-97319858D01*
X107000000Y-97343750D01*
X107000000Y-98256250D01*
X106998826Y-98280142D01*
X106995316Y-98303803D01*
X106989504Y-98327007D01*
X106981446Y-98349529D01*
X106971218Y-98371153D01*
X106958921Y-98391670D01*
X106944671Y-98410883D01*
X106928607Y-98428607D01*
X106910883Y-98444671D01*
X106891670Y-98458921D01*
X106871153Y-98471218D01*
X106849529Y-98481446D01*
X106827007Y-98489504D01*
X106803803Y-98495316D01*
X106780142Y-98498826D01*
X106756250Y-98500000D01*
X106268750Y-98500000D01*
X106244858Y-98498826D01*
X106221197Y-98495316D01*
X106197993Y-98489504D01*
X106175471Y-98481446D01*
X106153847Y-98471218D01*
X106133330Y-98458921D01*
X106114117Y-98444671D01*
X106096393Y-98428607D01*
X106080329Y-98410883D01*
X106066079Y-98391670D01*
X106053782Y-98371153D01*
X106043554Y-98349529D01*
X106035496Y-98327007D01*
X106029684Y-98303803D01*
X106026174Y-98280142D01*
X106025000Y-98256250D01*
X106025000Y-97343750D01*
X106026174Y-97319858D01*
X106029684Y-97296197D01*
X106035496Y-97272993D01*
X106043554Y-97250471D01*
X106053782Y-97228847D01*
X106066079Y-97208330D01*
X106080329Y-97189117D01*
X106096393Y-97171393D01*
X106114117Y-97155329D01*
X106133330Y-97141079D01*
X106153847Y-97128782D01*
X106175471Y-97118554D01*
X106197993Y-97110496D01*
X106221197Y-97104684D01*
X106244858Y-97101174D01*
X106268750Y-97100000D01*
X106756250Y-97100000D01*
X106780142Y-97101174D01*
X106780142Y-97101174D01*
G37*
D12*
G04 #@! TD*
G04 #@! TO.P,R9,1*
G04 #@! TO.N,GND*
X106512500Y-97800000D03*
D19*
G04 #@! TO.P,U1,1*
G04 #@! TO.N,+5V*
X107200000Y-65900000D03*
G04 #@! TO.P,U1,2*
G04 #@! TO.N,GND*
X108150000Y-65900000D03*
G04 #@! TO.P,U1,3*
G04 #@! TO.N,+5V*
X109100000Y-65900000D03*
G04 #@! TO.P,U1,4*
G04 #@! TO.N,N/C*
X109100000Y-63700000D03*
G04 #@! TO.P,U1,5*
G04 #@! TO.N,+3V3*
X107200000Y-63700000D03*
G04 #@! TD*
D10*
G04 #@! TO.N,+5V*
G04 #@! TO.C,C2*
G36*
X111480142Y-65301174D02*
X111503803Y-65304684D01*
X111527007Y-65310496D01*
X111549529Y-65318554D01*
X111571153Y-65328782D01*
X111591670Y-65341079D01*
X111610883Y-65355329D01*
X111628607Y-65371393D01*
X111644671Y-65389117D01*
X111658921Y-65408330D01*
X111671218Y-65428847D01*
X111681446Y-65450471D01*
X111689504Y-65472993D01*
X111695316Y-65496197D01*
X111698826Y-65519858D01*
X111700000Y-65543750D01*
X111700000Y-66031250D01*
X111698826Y-66055142D01*
X111695316Y-66078803D01*
X111689504Y-66102007D01*
X111681446Y-66124529D01*
X111671218Y-66146153D01*
X111658921Y-66166670D01*
X111644671Y-66185883D01*
X111628607Y-66203607D01*
X111610883Y-66219671D01*
X111591670Y-66233921D01*
X111571153Y-66246218D01*
X111549529Y-66256446D01*
X111527007Y-66264504D01*
X111503803Y-66270316D01*
X111480142Y-66273826D01*
X111456250Y-66275000D01*
X110543750Y-66275000D01*
X110519858Y-66273826D01*
X110496197Y-66270316D01*
X110472993Y-66264504D01*
X110450471Y-66256446D01*
X110428847Y-66246218D01*
X110408330Y-66233921D01*
X110389117Y-66219671D01*
X110371393Y-66203607D01*
X110355329Y-66185883D01*
X110341079Y-66166670D01*
X110328782Y-66146153D01*
X110318554Y-66124529D01*
X110310496Y-66102007D01*
X110304684Y-66078803D01*
X110301174Y-66055142D01*
X110300000Y-66031250D01*
X110300000Y-65543750D01*
X110301174Y-65519858D01*
X110304684Y-65496197D01*
X110310496Y-65472993D01*
X110318554Y-65450471D01*
X110328782Y-65428847D01*
X110341079Y-65408330D01*
X110355329Y-65389117D01*
X110371393Y-65371393D01*
X110389117Y-65355329D01*
X110408330Y-65341079D01*
X110428847Y-65328782D01*
X110450471Y-65318554D01*
X110472993Y-65310496D01*
X110496197Y-65304684D01*
X110519858Y-65301174D01*
X110543750Y-65300000D01*
X111456250Y-65300000D01*
X111480142Y-65301174D01*
X111480142Y-65301174D01*
G37*
D12*
G04 #@! TD*
G04 #@! TO.P,C2,1*
G04 #@! TO.N,+5V*
X111000000Y-65787500D03*
D10*
G04 #@! TO.N,GND*
G04 #@! TO.C,C2*
G36*
X111480142Y-63426174D02*
X111503803Y-63429684D01*
X111527007Y-63435496D01*
X111549529Y-63443554D01*
X111571153Y-63453782D01*
X111591670Y-63466079D01*
X111610883Y-63480329D01*
X111628607Y-63496393D01*
X111644671Y-63514117D01*
X111658921Y-63533330D01*
X111671218Y-63553847D01*
X111681446Y-63575471D01*
X111689504Y-63597993D01*
X111695316Y-63621197D01*
X111698826Y-63644858D01*
X111700000Y-63668750D01*
X111700000Y-64156250D01*
X111698826Y-64180142D01*
X111695316Y-64203803D01*
X111689504Y-64227007D01*
X111681446Y-64249529D01*
X111671218Y-64271153D01*
X111658921Y-64291670D01*
X111644671Y-64310883D01*
X111628607Y-64328607D01*
X111610883Y-64344671D01*
X111591670Y-64358921D01*
X111571153Y-64371218D01*
X111549529Y-64381446D01*
X111527007Y-64389504D01*
X111503803Y-64395316D01*
X111480142Y-64398826D01*
X111456250Y-64400000D01*
X110543750Y-64400000D01*
X110519858Y-64398826D01*
X110496197Y-64395316D01*
X110472993Y-64389504D01*
X110450471Y-64381446D01*
X110428847Y-64371218D01*
X110408330Y-64358921D01*
X110389117Y-64344671D01*
X110371393Y-64328607D01*
X110355329Y-64310883D01*
X110341079Y-64291670D01*
X110328782Y-64271153D01*
X110318554Y-64249529D01*
X110310496Y-64227007D01*
X110304684Y-64203803D01*
X110301174Y-64180142D01*
X110300000Y-64156250D01*
X110300000Y-63668750D01*
X110301174Y-63644858D01*
X110304684Y-63621197D01*
X110310496Y-63597993D01*
X110318554Y-63575471D01*
X110328782Y-63553847D01*
X110341079Y-63533330D01*
X110355329Y-63514117D01*
X110371393Y-63496393D01*
X110389117Y-63480329D01*
X110408330Y-63466079D01*
X110428847Y-63453782D01*
X110450471Y-63443554D01*
X110472993Y-63435496D01*
X110496197Y-63429684D01*
X110519858Y-63426174D01*
X110543750Y-63425000D01*
X111456250Y-63425000D01*
X111480142Y-63426174D01*
X111480142Y-63426174D01*
G37*
D12*
G04 #@! TD*
G04 #@! TO.P,C2,2*
G04 #@! TO.N,GND*
X111000000Y-63912500D03*
D10*
G04 #@! TO.N,GND*
G04 #@! TO.C,C3*
G36*
X105730142Y-65251174D02*
X105753803Y-65254684D01*
X105777007Y-65260496D01*
X105799529Y-65268554D01*
X105821153Y-65278782D01*
X105841670Y-65291079D01*
X105860883Y-65305329D01*
X105878607Y-65321393D01*
X105894671Y-65339117D01*
X105908921Y-65358330D01*
X105921218Y-65378847D01*
X105931446Y-65400471D01*
X105939504Y-65422993D01*
X105945316Y-65446197D01*
X105948826Y-65469858D01*
X105950000Y-65493750D01*
X105950000Y-65981250D01*
X105948826Y-66005142D01*
X105945316Y-66028803D01*
X105939504Y-66052007D01*
X105931446Y-66074529D01*
X105921218Y-66096153D01*
X105908921Y-66116670D01*
X105894671Y-66135883D01*
X105878607Y-66153607D01*
X105860883Y-66169671D01*
X105841670Y-66183921D01*
X105821153Y-66196218D01*
X105799529Y-66206446D01*
X105777007Y-66214504D01*
X105753803Y-66220316D01*
X105730142Y-66223826D01*
X105706250Y-66225000D01*
X104793750Y-66225000D01*
X104769858Y-66223826D01*
X104746197Y-66220316D01*
X104722993Y-66214504D01*
X104700471Y-66206446D01*
X104678847Y-66196218D01*
X104658330Y-66183921D01*
X104639117Y-66169671D01*
X104621393Y-66153607D01*
X104605329Y-66135883D01*
X104591079Y-66116670D01*
X104578782Y-66096153D01*
X104568554Y-66074529D01*
X104560496Y-66052007D01*
X104554684Y-66028803D01*
X104551174Y-66005142D01*
X104550000Y-65981250D01*
X104550000Y-65493750D01*
X104551174Y-65469858D01*
X104554684Y-65446197D01*
X104560496Y-65422993D01*
X104568554Y-65400471D01*
X104578782Y-65378847D01*
X104591079Y-65358330D01*
X104605329Y-65339117D01*
X104621393Y-65321393D01*
X104639117Y-65305329D01*
X104658330Y-65291079D01*
X104678847Y-65278782D01*
X104700471Y-65268554D01*
X104722993Y-65260496D01*
X104746197Y-65254684D01*
X104769858Y-65251174D01*
X104793750Y-65250000D01*
X105706250Y-65250000D01*
X105730142Y-65251174D01*
X105730142Y-65251174D01*
G37*
D12*
G04 #@! TD*
G04 #@! TO.P,C3,2*
G04 #@! TO.N,GND*
X105250000Y-65737500D03*
D10*
G04 #@! TO.N,+3V3*
G04 #@! TO.C,C3*
G36*
X105730142Y-63376174D02*
X105753803Y-63379684D01*
X105777007Y-63385496D01*
X105799529Y-63393554D01*
X105821153Y-63403782D01*
X105841670Y-63416079D01*
X105860883Y-63430329D01*
X105878607Y-63446393D01*
X105894671Y-63464117D01*
X105908921Y-63483330D01*
X105921218Y-63503847D01*
X105931446Y-63525471D01*
X105939504Y-63547993D01*
X105945316Y-63571197D01*
X105948826Y-63594858D01*
X105950000Y-63618750D01*
X105950000Y-64106250D01*
X105948826Y-64130142D01*
X105945316Y-64153803D01*
X105939504Y-64177007D01*
X105931446Y-64199529D01*
X105921218Y-64221153D01*
X105908921Y-64241670D01*
X105894671Y-64260883D01*
X105878607Y-64278607D01*
X105860883Y-64294671D01*
X105841670Y-64308921D01*
X105821153Y-64321218D01*
X105799529Y-64331446D01*
X105777007Y-64339504D01*
X105753803Y-64345316D01*
X105730142Y-64348826D01*
X105706250Y-64350000D01*
X104793750Y-64350000D01*
X104769858Y-64348826D01*
X104746197Y-64345316D01*
X104722993Y-64339504D01*
X104700471Y-64331446D01*
X104678847Y-64321218D01*
X104658330Y-64308921D01*
X104639117Y-64294671D01*
X104621393Y-64278607D01*
X104605329Y-64260883D01*
X104591079Y-64241670D01*
X104578782Y-64221153D01*
X104568554Y-64199529D01*
X104560496Y-64177007D01*
X104554684Y-64153803D01*
X104551174Y-64130142D01*
X104550000Y-64106250D01*
X104550000Y-63618750D01*
X104551174Y-63594858D01*
X104554684Y-63571197D01*
X104560496Y-63547993D01*
X104568554Y-63525471D01*
X104578782Y-63503847D01*
X104591079Y-63483330D01*
X104605329Y-63464117D01*
X104621393Y-63446393D01*
X104639117Y-63430329D01*
X104658330Y-63416079D01*
X104678847Y-63403782D01*
X104700471Y-63393554D01*
X104722993Y-63385496D01*
X104746197Y-63379684D01*
X104769858Y-63376174D01*
X104793750Y-63375000D01*
X105706250Y-63375000D01*
X105730142Y-63376174D01*
X105730142Y-63376174D01*
G37*
D12*
G04 #@! TD*
G04 #@! TO.P,C3,1*
G04 #@! TO.N,+3V3*
X105250000Y-63862500D03*
D20*
G04 #@! TO.N,GND*
X113950000Y-60050000D03*
X116600000Y-61850000D03*
X108893038Y-59959378D03*
X114400000Y-54050000D03*
X104850000Y-97850000D03*
X106450000Y-96200000D03*
X109250000Y-81050000D03*
X104800000Y-88500000D03*
X115350000Y-96200000D03*
X122400000Y-98000000D03*
X118200000Y-80950000D03*
X113800000Y-72850000D03*
X104600000Y-73000000D03*
X102791728Y-79441728D03*
X105200000Y-67150000D03*
D21*
X108150000Y-64850000D03*
X114150000Y-63900000D03*
D20*
G04 #@! TO.N,MOSI*
X110150000Y-60750000D03*
G04 #@! TO.N,CLK*
X111450000Y-53950000D03*
G04 #@! TO.N,DC*
X112000000Y-60300000D03*
G04 #@! TO.N,CS*
X112374680Y-53569250D03*
G04 #@! TO.N,Net-(Q1-Pad3)*
X112850000Y-101650000D03*
X112700000Y-88650000D03*
X116950000Y-80950000D03*
G04 #@! TO.N,SW1*
X116750000Y-96300000D03*
G04 #@! TO.N,SW2*
X110050000Y-97700000D03*
G04 #@! TD*
D22*
G04 #@! TO.N,GND*
X113950000Y-58300000D02*
X113950000Y-60050000D01*
X114937500Y-61800000D02*
X116550000Y-61800000D01*
X116550000Y-61800000D02*
X116600000Y-61850000D01*
X108950000Y-58300000D02*
X108950000Y-59902416D01*
X108950000Y-59902416D02*
X108893038Y-59959378D01*
X114450000Y-55900000D02*
X114450000Y-54100000D01*
X114450000Y-54100000D02*
X114400000Y-54050000D01*
D23*
X106550000Y-97837500D02*
X106512500Y-97800000D01*
X106550000Y-99600000D02*
X106550000Y-97837500D01*
X106512500Y-97800000D02*
X104900000Y-97800000D01*
X104900000Y-97800000D02*
X104850000Y-97850000D01*
X106512500Y-97800000D02*
X106512500Y-96262500D01*
X106512500Y-96262500D02*
X106450000Y-96200000D01*
X114812500Y-99637500D02*
X114750000Y-99700000D01*
X114812500Y-97950000D02*
X114812500Y-99637500D01*
X110862500Y-80950000D02*
X109350000Y-80950000D01*
X109350000Y-80950000D02*
X109250000Y-81050000D01*
X106312500Y-88500000D02*
X104800000Y-88500000D01*
X114812500Y-97950000D02*
X114812500Y-96737500D01*
X114812500Y-96737500D02*
X115350000Y-96200000D01*
X122400000Y-95200000D02*
X122400000Y-98000000D01*
X119762500Y-80950000D02*
X118200000Y-80950000D01*
X115412500Y-72950000D02*
X113900000Y-72950000D01*
X113900000Y-72950000D02*
X113800000Y-72850000D01*
X106262500Y-73000000D02*
X104600000Y-73000000D01*
X101812500Y-80900000D02*
X101812500Y-80420956D01*
X101812500Y-80420956D02*
X102791728Y-79441728D01*
X105250000Y-65737500D02*
X105250000Y-67100000D01*
X105250000Y-67100000D02*
X105200000Y-67150000D01*
X108150000Y-65900000D02*
X108150000Y-64850000D01*
X111000000Y-63912500D02*
X114137500Y-63912500D01*
X114137500Y-63912500D02*
X114150000Y-63900000D01*
X114937500Y-63112500D02*
X114150000Y-63900000D01*
X114937500Y-61800000D02*
X114937500Y-63112500D01*
D24*
G04 #@! TO.N,+3V3*
X107037500Y-63862500D02*
X107200000Y-63700000D01*
X105250000Y-63862500D02*
X107037500Y-63862500D01*
X112475000Y-61800000D02*
X113062500Y-61800000D01*
X108895000Y-61800000D02*
X112475000Y-61800000D01*
X107200000Y-63495000D02*
X108895000Y-61800000D01*
X107200000Y-63700000D02*
X107200000Y-63495000D01*
D22*
X112950000Y-61687500D02*
X113062500Y-61800000D01*
X112950000Y-58300000D02*
X112950000Y-61687500D01*
X112950000Y-57700000D02*
X112950000Y-58300000D01*
X113450000Y-57200000D02*
X112950000Y-57700000D01*
X113450000Y-55900000D02*
X113450000Y-57200000D01*
D23*
G04 #@! TO.N,Net-(D1-Pad1)*
X110375000Y-85712500D02*
X110862500Y-86200000D01*
X110375000Y-83600000D02*
X110375000Y-85712500D01*
G04 #@! TO.N,Net-(D2-Pad1)*
X114875000Y-78062500D02*
X115362500Y-78550000D01*
X114875000Y-75700000D02*
X114875000Y-78062500D01*
G04 #@! TO.N,Net-(D3-Pad1)*
X119375000Y-85762500D02*
X119862500Y-86250000D01*
X119375000Y-83500000D02*
X119375000Y-85762500D01*
G04 #@! TO.N,Net-(D4-Pad1)*
X114875000Y-91687500D02*
X117137500Y-93950000D01*
X114875000Y-91300000D02*
X114875000Y-91687500D01*
G04 #@! TO.N,Net-(D5-Pad1)*
X105875000Y-91737500D02*
X108137500Y-94000000D01*
X105875000Y-91300000D02*
X105875000Y-91737500D01*
G04 #@! TO.N,Net-(D6-Pad1)*
X101375000Y-83737500D02*
X103637500Y-86000000D01*
X101375000Y-83400000D02*
X101375000Y-83737500D01*
G04 #@! TO.N,Net-(D7-Pad1)*
X105875000Y-76137500D02*
X108037500Y-78300000D01*
X105875000Y-75700000D02*
X105875000Y-76137500D01*
D22*
G04 #@! TO.N,MOSI*
X110549999Y-60350001D02*
X110150000Y-60750000D01*
X110950000Y-59950000D02*
X110549999Y-60350001D01*
X110950000Y-58300000D02*
X110950000Y-59950000D01*
G04 #@! TO.N,CLK*
X111450000Y-53950000D02*
X111450000Y-55900000D01*
G04 #@! TO.N,DC*
X112000000Y-58350000D02*
X111950000Y-58300000D01*
X112000000Y-60300000D02*
X112000000Y-58350000D01*
G04 #@! TO.N,CS*
X112374680Y-55824680D02*
X112450000Y-55900000D01*
X112374680Y-53569250D02*
X112374680Y-55824680D01*
D23*
G04 #@! TO.N,+5V*
X118200000Y-72037500D02*
X117287500Y-72950000D01*
X118200000Y-69450000D02*
X118200000Y-72037500D01*
X117287500Y-75262500D02*
X117725000Y-75700000D01*
X117287500Y-72950000D02*
X117287500Y-75262500D01*
X121637500Y-79612500D02*
X121637500Y-80950000D01*
X117725000Y-75700000D02*
X121637500Y-79612500D01*
X121637500Y-82912500D02*
X122225000Y-83500000D01*
X121637500Y-80950000D02*
X121637500Y-82912500D01*
X122400000Y-88700000D02*
X122400000Y-90800000D01*
X123095710Y-88004290D02*
X122400000Y-88700000D01*
X123095710Y-84370710D02*
X123095710Y-88004290D01*
X122225000Y-83500000D02*
X123095710Y-84370710D01*
X118225000Y-90800000D02*
X117725000Y-91300000D01*
X122400000Y-90800000D02*
X118225000Y-90800000D01*
X117725000Y-89137500D02*
X117187500Y-88600000D01*
X117725000Y-91300000D02*
X117725000Y-89137500D01*
X113225000Y-84637500D02*
X113225000Y-83600000D01*
X117187500Y-88600000D02*
X113225000Y-84637500D01*
X113225000Y-81437500D02*
X112737500Y-80950000D01*
X113225000Y-83600000D02*
X113225000Y-81437500D01*
X108137500Y-75112500D02*
X108725000Y-75700000D01*
X108137500Y-73000000D02*
X108137500Y-75112500D01*
X112737500Y-79712500D02*
X112737500Y-80950000D01*
X108725000Y-75700000D02*
X112737500Y-79712500D01*
X104275000Y-80900000D02*
X103687500Y-80900000D01*
X107489338Y-80900000D02*
X104275000Y-80900000D01*
X109595710Y-78793628D02*
X107489338Y-80900000D01*
X109595710Y-76570710D02*
X109595710Y-78793628D01*
X108725000Y-75700000D02*
X109595710Y-76570710D01*
X103687500Y-82862500D02*
X104225000Y-83400000D01*
X103687500Y-80900000D02*
X103687500Y-82862500D01*
X108187500Y-87362500D02*
X108187500Y-88500000D01*
X104225000Y-83400000D02*
X108187500Y-87362500D01*
X108187500Y-90762500D02*
X108725000Y-91300000D01*
X108187500Y-88500000D02*
X108187500Y-90762500D01*
X111800000Y-65787500D02*
X111000000Y-65787500D01*
X115987500Y-65787500D02*
X111800000Y-65787500D01*
X118200000Y-68000000D02*
X115987500Y-65787500D01*
X118200000Y-69450000D02*
X118200000Y-68000000D01*
D24*
X107200000Y-66830000D02*
X108120000Y-67750000D01*
X107200000Y-65900000D02*
X107200000Y-66830000D01*
X108120000Y-67750000D02*
X108600000Y-67750000D01*
X109100000Y-67250000D02*
X109100000Y-65900000D01*
X108600000Y-67750000D02*
X109100000Y-67250000D01*
X110887500Y-65900000D02*
X111000000Y-65787500D01*
X109100000Y-65900000D02*
X110887500Y-65900000D01*
D23*
G04 #@! TO.N,Net-(Q1-Pad3)*
X115700000Y-101700000D02*
X112900000Y-101700000D01*
X112900000Y-101700000D02*
X112850000Y-101650000D01*
X112700000Y-86237500D02*
X112737500Y-86200000D01*
X112700000Y-88650000D02*
X112700000Y-86237500D01*
X116950000Y-78837500D02*
X117237500Y-78550000D01*
X116950000Y-80950000D02*
X116950000Y-78837500D01*
X121181263Y-86806237D02*
X121737500Y-86250000D01*
X120537490Y-87450010D02*
X121181263Y-86806237D01*
X119310672Y-87450010D02*
X120537490Y-87450010D01*
X116950000Y-85089338D02*
X119310672Y-87450010D01*
X116950000Y-80950000D02*
X116950000Y-85089338D01*
D24*
G04 #@! TO.N,SW1*
X116750000Y-97887500D02*
X116687500Y-97950000D01*
X116750000Y-96300000D02*
X116750000Y-97887500D01*
X116650000Y-97987500D02*
X116687500Y-97950000D01*
X116650000Y-99700000D02*
X116650000Y-97987500D01*
G04 #@! TO.N,SW2*
X108487500Y-97700000D02*
X108387500Y-97800000D01*
X110050000Y-97700000D02*
X108487500Y-97700000D01*
X108450000Y-97862500D02*
X108387500Y-97800000D01*
X108450000Y-99600000D02*
X108450000Y-97862500D01*
D23*
G04 #@! TO.N,Net-(Q2-Pad3)*
X105675000Y-94000000D02*
X106262500Y-94000000D01*
X101762500Y-90087500D02*
X105675000Y-94000000D01*
X101762500Y-86000000D02*
X101762500Y-90087500D01*
X106500000Y-101600000D02*
X103550000Y-98650000D01*
X107500000Y-101600000D02*
X106500000Y-101600000D01*
X103550000Y-96712500D02*
X106262500Y-94000000D01*
X103550000Y-98650000D02*
X103550000Y-96712500D01*
X108500000Y-101600000D02*
X107500000Y-101600000D01*
X113824990Y-96275010D02*
X108500000Y-101600000D01*
X113824990Y-95387510D02*
X113824990Y-96275010D01*
X115262500Y-93950000D02*
X113824990Y-95387510D01*
X105575000Y-78300000D02*
X106162500Y-78300000D01*
X102660662Y-78300000D02*
X105575000Y-78300000D01*
X100074990Y-80885672D02*
X102660662Y-78300000D01*
X100074990Y-84899990D02*
X100074990Y-80885672D01*
X101175000Y-86000000D02*
X100074990Y-84899990D01*
X101762500Y-86000000D02*
X101175000Y-86000000D01*
G04 #@! TD*
D25*
G04 #@! TO.N,GND*
G36*
X114802560Y-58550000D02*
X114851843Y-58797765D01*
X114992191Y-59007809D01*
X115202235Y-59148157D01*
X115450000Y-59197440D01*
X116850000Y-59197440D01*
X117097765Y-59148157D01*
X117145276Y-59116411D01*
X117145276Y-60572387D01*
X117150628Y-60599293D01*
X117169265Y-60850088D01*
X117185367Y-60923323D01*
X117195541Y-60997597D01*
X117198061Y-61006215D01*
X117360537Y-61549500D01*
X117402386Y-61640068D01*
X117443111Y-61731111D01*
X117447949Y-61738676D01*
X117756377Y-62214521D01*
X117821967Y-62289708D01*
X117886604Y-62365657D01*
X117893370Y-62371560D01*
X118322955Y-62741715D01*
X118407018Y-62795476D01*
X118490367Y-62850226D01*
X118498514Y-62853990D01*
X118498517Y-62853992D01*
X118498520Y-62853993D01*
X119014727Y-63088698D01*
X119110507Y-63116706D01*
X119205866Y-63145860D01*
X119214744Y-63147188D01*
X119214746Y-63147188D01*
X119756407Y-63224760D01*
X119807888Y-63235000D01*
X122757298Y-63235000D01*
X123319918Y-63300594D01*
X123811944Y-63479191D01*
X123957123Y-63574375D01*
X123326419Y-63307306D01*
X122587786Y-63255008D01*
X121872035Y-63444786D01*
X121256346Y-63856176D01*
X120807109Y-64444818D01*
X120572763Y-65147240D01*
X120578578Y-65887700D01*
X120823928Y-66586355D01*
X121282357Y-67167868D01*
X121904432Y-67569537D01*
X122623075Y-67748049D01*
X123360796Y-67684155D01*
X124038046Y-67384746D01*
X124581800Y-66882105D01*
X124933422Y-66230434D01*
X125055000Y-65500000D01*
X125054722Y-65464580D01*
X124933106Y-64798675D01*
X125027220Y-65109416D01*
X125065001Y-65532743D01*
X125065000Y-101457298D01*
X124999405Y-102019918D01*
X124942255Y-102177364D01*
X125055000Y-101500000D01*
X125054722Y-101464580D01*
X124921686Y-100736146D01*
X124559871Y-100090078D01*
X124008289Y-99596041D01*
X123326419Y-99307306D01*
X122587786Y-99255008D01*
X121872035Y-99444786D01*
X121256346Y-99856176D01*
X120807109Y-100444818D01*
X120572763Y-101147240D01*
X120578578Y-101887700D01*
X120823928Y-102586355D01*
X121282357Y-103167868D01*
X121904432Y-103569537D01*
X122623075Y-103748049D01*
X123321552Y-103687554D01*
X123190584Y-103727220D01*
X122767269Y-103765000D01*
X100842702Y-103765000D01*
X100665668Y-103744360D01*
X101360796Y-103684155D01*
X102038046Y-103384746D01*
X102581800Y-102882105D01*
X102933422Y-102230434D01*
X103055000Y-101500000D01*
X103054722Y-101464580D01*
X102921686Y-100736146D01*
X102559871Y-100090078D01*
X102008289Y-99596041D01*
X101326419Y-99307306D01*
X100587786Y-99255008D01*
X99872035Y-99444786D01*
X99256346Y-99856176D01*
X98807109Y-100444818D01*
X98572763Y-101147240D01*
X98578578Y-101887700D01*
X98807026Y-102538224D01*
X98727424Y-102401180D01*
X98572780Y-101890584D01*
X98535000Y-101467269D01*
X98535000Y-72173690D01*
X105140000Y-72173690D01*
X105140000Y-72714250D01*
X105298750Y-72873000D01*
X106135500Y-72873000D01*
X106135500Y-71823750D01*
X105976750Y-71665000D01*
X105648691Y-71665000D01*
X105415302Y-71761673D01*
X105236673Y-71940301D01*
X105140000Y-72173690D01*
X98535000Y-72173690D01*
X98535000Y-69806892D01*
X98978514Y-69806892D01*
X99224817Y-70331358D01*
X99653076Y-70721645D01*
X100063110Y-70891476D01*
X100293000Y-70770155D01*
X100293000Y-69577000D01*
X99099181Y-69577000D01*
X98978514Y-69806892D01*
X98535000Y-69806892D01*
X98535000Y-69093108D01*
X98978514Y-69093108D01*
X99099181Y-69323000D01*
X100293000Y-69323000D01*
X100293000Y-68129845D01*
X100063110Y-68008524D01*
X99653076Y-68178355D01*
X99224817Y-68568642D01*
X98978514Y-69093108D01*
X98535000Y-69093108D01*
X98535000Y-66023250D01*
X103915000Y-66023250D01*
X103915000Y-66351309D01*
X104011673Y-66584698D01*
X104190301Y-66763327D01*
X104423690Y-66860000D01*
X104964250Y-66860000D01*
X105123000Y-66701250D01*
X105123000Y-65864500D01*
X104073750Y-65864500D01*
X103915000Y-66023250D01*
X98535000Y-66023250D01*
X98535000Y-65542702D01*
X98600594Y-64980082D01*
X98779191Y-64488056D01*
X99066192Y-64050308D01*
X99446190Y-63690332D01*
X99898821Y-63427424D01*
X100409416Y-63272780D01*
X100832732Y-63235000D01*
X103792096Y-63235000D01*
X103819003Y-63229648D01*
X104012097Y-63215299D01*
X103970398Y-63277706D01*
X103902560Y-63618750D01*
X103902560Y-64106250D01*
X103970398Y-64447294D01*
X104163584Y-64736416D01*
X104164767Y-64737207D01*
X104011673Y-64890302D01*
X103915000Y-65123691D01*
X103915000Y-65451750D01*
X104073750Y-65610500D01*
X105123000Y-65610500D01*
X105123000Y-65590500D01*
X105377000Y-65590500D01*
X105377000Y-65610500D01*
X105397000Y-65610500D01*
X105397000Y-65864500D01*
X105377000Y-65864500D01*
X105377000Y-66701250D01*
X105535750Y-66860000D01*
X106076310Y-66860000D01*
X106309699Y-66763327D01*
X106324275Y-66748751D01*
X106355507Y-66795493D01*
X106348643Y-66830000D01*
X106413448Y-67155800D01*
X106454820Y-67217717D01*
X106598000Y-67432001D01*
X106667718Y-67478585D01*
X107328528Y-68139397D01*
X106969375Y-68379375D01*
X106770000Y-68677761D01*
X106570625Y-68379375D01*
X106079418Y-68051161D01*
X105646256Y-67965000D01*
X105353744Y-67965000D01*
X104920582Y-68051161D01*
X104429375Y-68379375D01*
X104230000Y-68677761D01*
X104030625Y-68379375D01*
X103539418Y-68051161D01*
X103106256Y-67965000D01*
X102813744Y-67965000D01*
X102380582Y-68051161D01*
X101889375Y-68379375D01*
X101676157Y-68698478D01*
X101615183Y-68568642D01*
X101186924Y-68178355D01*
X100776890Y-68008524D01*
X100547000Y-68129845D01*
X100547000Y-69323000D01*
X100567000Y-69323000D01*
X100567000Y-69577000D01*
X100547000Y-69577000D01*
X100547000Y-70770155D01*
X100776890Y-70891476D01*
X101186924Y-70721645D01*
X101615183Y-70331358D01*
X101676157Y-70201522D01*
X101889375Y-70520625D01*
X102380582Y-70848839D01*
X102813744Y-70935000D01*
X103106256Y-70935000D01*
X103539418Y-70848839D01*
X104030625Y-70520625D01*
X104230000Y-70222239D01*
X104429375Y-70520625D01*
X104920582Y-70848839D01*
X105353744Y-70935000D01*
X105646256Y-70935000D01*
X106079418Y-70848839D01*
X106570625Y-70520625D01*
X106770000Y-70222239D01*
X106969375Y-70520625D01*
X107460582Y-70848839D01*
X107893744Y-70935000D01*
X108186256Y-70935000D01*
X108619418Y-70848839D01*
X109110625Y-70520625D01*
X109310000Y-70222239D01*
X109509375Y-70520625D01*
X110000582Y-70848839D01*
X110433744Y-70935000D01*
X110726256Y-70935000D01*
X111159418Y-70848839D01*
X111650625Y-70520625D01*
X111850000Y-70222239D01*
X112049375Y-70520625D01*
X112540582Y-70848839D01*
X112973744Y-70935000D01*
X113266256Y-70935000D01*
X113699418Y-70848839D01*
X114190625Y-70520625D01*
X114390000Y-70222239D01*
X114589375Y-70520625D01*
X115080582Y-70848839D01*
X115513744Y-70935000D01*
X115806256Y-70935000D01*
X116239418Y-70848839D01*
X116730625Y-70520625D01*
X116742816Y-70502381D01*
X116751843Y-70547765D01*
X116892191Y-70757809D01*
X117102235Y-70898157D01*
X117265001Y-70930533D01*
X117265001Y-71602560D01*
X117043750Y-71602560D01*
X116702706Y-71670398D01*
X116413584Y-71863584D01*
X116412793Y-71864767D01*
X116259698Y-71711673D01*
X116026309Y-71615000D01*
X115698250Y-71615000D01*
X115539500Y-71773750D01*
X115539500Y-72823000D01*
X115559500Y-72823000D01*
X115559500Y-73077000D01*
X115539500Y-73077000D01*
X115539500Y-73097000D01*
X115285500Y-73097000D01*
X115285500Y-73077000D01*
X114448750Y-73077000D01*
X114290000Y-73235750D01*
X114290000Y-73776310D01*
X114329852Y-73872520D01*
X114046506Y-73928881D01*
X113721226Y-74146226D01*
X113503881Y-74471506D01*
X113427560Y-74855200D01*
X113427560Y-76544800D01*
X113503881Y-76928494D01*
X113721226Y-77253774D01*
X113940001Y-77399954D01*
X113940001Y-77970410D01*
X113921683Y-78062500D01*
X113994250Y-78427318D01*
X114148741Y-78658530D01*
X114200904Y-78736597D01*
X114227560Y-78754408D01*
X114227560Y-79006250D01*
X114295398Y-79347294D01*
X114488584Y-79636416D01*
X114777706Y-79829602D01*
X115118750Y-79897440D01*
X115606250Y-79897440D01*
X115947294Y-79829602D01*
X116015001Y-79784362D01*
X116015000Y-80502704D01*
X115915000Y-80744126D01*
X115915000Y-81155874D01*
X116015000Y-81397296D01*
X116015001Y-84997248D01*
X115996683Y-85089338D01*
X116069250Y-85454156D01*
X116202762Y-85653970D01*
X116275904Y-85763435D01*
X116353970Y-85815597D01*
X118032907Y-87494535D01*
X117772294Y-87320398D01*
X117431250Y-87252560D01*
X117162350Y-87252560D01*
X114619705Y-84709916D01*
X114672440Y-84444800D01*
X114672440Y-82755200D01*
X114596119Y-82371506D01*
X114378774Y-82046226D01*
X114160000Y-81900046D01*
X114160000Y-81529585D01*
X114178317Y-81437499D01*
X114105750Y-81072681D01*
X113990368Y-80900000D01*
X113899097Y-80763403D01*
X113872440Y-80745591D01*
X113872440Y-80493750D01*
X113804602Y-80152706D01*
X113672500Y-79955002D01*
X113672500Y-79804586D01*
X113690817Y-79712500D01*
X113618250Y-79347681D01*
X113535673Y-79224096D01*
X113411597Y-79038403D01*
X113333531Y-78986241D01*
X110321971Y-75974681D01*
X110269807Y-75896613D01*
X110191741Y-75844451D01*
X110172440Y-75825150D01*
X110172440Y-74855200D01*
X110096119Y-74471506D01*
X109878774Y-74146226D01*
X109553494Y-73928881D01*
X109169800Y-73852560D01*
X109167674Y-73852560D01*
X109204602Y-73797294D01*
X109272440Y-73456250D01*
X109272440Y-72543750D01*
X109204602Y-72202706D01*
X109151805Y-72123690D01*
X114290000Y-72123690D01*
X114290000Y-72664250D01*
X114448750Y-72823000D01*
X115285500Y-72823000D01*
X115285500Y-71773750D01*
X115126750Y-71615000D01*
X114798691Y-71615000D01*
X114565302Y-71711673D01*
X114386673Y-71890301D01*
X114290000Y-72123690D01*
X109151805Y-72123690D01*
X109011416Y-71913584D01*
X108722294Y-71720398D01*
X108381250Y-71652560D01*
X107893750Y-71652560D01*
X107552706Y-71720398D01*
X107263584Y-71913584D01*
X107262793Y-71914767D01*
X107109698Y-71761673D01*
X106876309Y-71665000D01*
X106548250Y-71665000D01*
X106389500Y-71823750D01*
X106389500Y-72873000D01*
X106409500Y-72873000D01*
X106409500Y-73127000D01*
X106389500Y-73127000D01*
X106389500Y-73147000D01*
X106135500Y-73147000D01*
X106135500Y-73127000D01*
X105298750Y-73127000D01*
X105140000Y-73285750D01*
X105140000Y-73826310D01*
X105172136Y-73903892D01*
X105046506Y-73928881D01*
X104721226Y-74146226D01*
X104503881Y-74471506D01*
X104427560Y-74855200D01*
X104427560Y-76544800D01*
X104503881Y-76928494D01*
X104721226Y-77253774D01*
X104887688Y-77365000D01*
X102752742Y-77365000D01*
X102660661Y-77346684D01*
X102568580Y-77365000D01*
X102568576Y-77365000D01*
X102295843Y-77419250D01*
X101986565Y-77625903D01*
X101934403Y-77703969D01*
X99478960Y-80159413D01*
X99400894Y-80211575D01*
X99348732Y-80289641D01*
X99348731Y-80289642D01*
X99194240Y-80520854D01*
X99121673Y-80885672D01*
X99139991Y-80977762D01*
X99139990Y-84807904D01*
X99121673Y-84899990D01*
X99139990Y-84992075D01*
X99194240Y-85264808D01*
X99400893Y-85574087D01*
X99478962Y-85626251D01*
X100448741Y-86596031D01*
X100500903Y-86674097D01*
X100578969Y-86726259D01*
X100703559Y-86809507D01*
X100827500Y-86994998D01*
X100827501Y-89995410D01*
X100809183Y-90087500D01*
X100881750Y-90452318D01*
X100881751Y-90452319D01*
X101088404Y-90761597D01*
X101166470Y-90813759D01*
X104646461Y-94293750D01*
X102953970Y-95986241D01*
X102875904Y-96038403D01*
X102823742Y-96116469D01*
X102823741Y-96116470D01*
X102669250Y-96347682D01*
X102596683Y-96712500D01*
X102615001Y-96804590D01*
X102615000Y-98557914D01*
X102596683Y-98650000D01*
X102621359Y-98774052D01*
X102669250Y-99014818D01*
X102875903Y-99324097D01*
X102953972Y-99376261D01*
X105773741Y-102196031D01*
X105825903Y-102274097D01*
X105903969Y-102326259D01*
X106135181Y-102480750D01*
X106499999Y-102553317D01*
X106592085Y-102535000D01*
X106682885Y-102535000D01*
X106852235Y-102648157D01*
X107100000Y-102697440D01*
X107900000Y-102697440D01*
X108147765Y-102648157D01*
X108317115Y-102535000D01*
X108407914Y-102535000D01*
X108500000Y-102553317D01*
X108592086Y-102535000D01*
X108864819Y-102480750D01*
X109174097Y-102274097D01*
X109226261Y-102196028D01*
X113186539Y-98235750D01*
X113690000Y-98235750D01*
X113690000Y-98776310D01*
X113774445Y-98980178D01*
X113715000Y-99123691D01*
X113715000Y-99414250D01*
X113873750Y-99573000D01*
X114623000Y-99573000D01*
X114623000Y-99188750D01*
X114685500Y-99126250D01*
X114685500Y-98077000D01*
X113848750Y-98077000D01*
X113690000Y-98235750D01*
X113186539Y-98235750D01*
X113724020Y-97698270D01*
X113848750Y-97823000D01*
X114685500Y-97823000D01*
X114685500Y-96773750D01*
X114643992Y-96732242D01*
X114705740Y-96639829D01*
X114759990Y-96367096D01*
X114778307Y-96275011D01*
X114759990Y-96182925D01*
X114759990Y-95774799D01*
X115237350Y-95297440D01*
X115506250Y-95297440D01*
X115847294Y-95229602D01*
X116136416Y-95036416D01*
X116200000Y-94941256D01*
X116263584Y-95036416D01*
X116552706Y-95229602D01*
X116730663Y-95265000D01*
X116544126Y-95265000D01*
X116163720Y-95422569D01*
X115872569Y-95713720D01*
X115715000Y-96094126D01*
X115715000Y-96505874D01*
X115852420Y-96837635D01*
X115813584Y-96863584D01*
X115812793Y-96864767D01*
X115659698Y-96711673D01*
X115426309Y-96615000D01*
X115098250Y-96615000D01*
X114939500Y-96773750D01*
X114939500Y-97823000D01*
X114959500Y-97823000D01*
X114959500Y-98077000D01*
X114939500Y-98077000D01*
X114939500Y-98711250D01*
X114877000Y-98773750D01*
X114877000Y-99573000D01*
X114897000Y-99573000D01*
X114897000Y-99827000D01*
X114877000Y-99827000D01*
X114877000Y-99847000D01*
X114623000Y-99847000D01*
X114623000Y-99827000D01*
X113873750Y-99827000D01*
X113715000Y-99985750D01*
X113715000Y-100276309D01*
X113811673Y-100509698D01*
X113990301Y-100688327D01*
X114175406Y-100765000D01*
X113418007Y-100765000D01*
X113055874Y-100615000D01*
X112644126Y-100615000D01*
X112263720Y-100772569D01*
X111972569Y-101063720D01*
X111815000Y-101444126D01*
X111815000Y-101855874D01*
X111972569Y-102236280D01*
X112263720Y-102527431D01*
X112644126Y-102685000D01*
X113055874Y-102685000D01*
X113176585Y-102635000D01*
X114882885Y-102635000D01*
X115052235Y-102748157D01*
X115300000Y-102797440D01*
X116100000Y-102797440D01*
X116347765Y-102748157D01*
X116557809Y-102607809D01*
X116698157Y-102397765D01*
X116747440Y-102150000D01*
X116747440Y-101250000D01*
X116698157Y-101002235D01*
X116561316Y-100797440D01*
X117050000Y-100797440D01*
X117297765Y-100748157D01*
X117507809Y-100607809D01*
X117648157Y-100397765D01*
X117697440Y-100150000D01*
X117697440Y-99250000D01*
X117648157Y-99002235D01*
X117616206Y-98954417D01*
X117754602Y-98747294D01*
X117822440Y-98406250D01*
X117822440Y-97493750D01*
X117754602Y-97152706D01*
X117596949Y-96916762D01*
X117627431Y-96886280D01*
X117785000Y-96505874D01*
X117785000Y-96094126D01*
X117627431Y-95713720D01*
X117399461Y-95485750D01*
X120965000Y-95485750D01*
X120965000Y-96826309D01*
X121061673Y-97059698D01*
X121240301Y-97238327D01*
X121473690Y-97335000D01*
X122114250Y-97335000D01*
X122273000Y-97176250D01*
X122273000Y-95327000D01*
X122527000Y-95327000D01*
X122527000Y-97176250D01*
X122685750Y-97335000D01*
X123326310Y-97335000D01*
X123559699Y-97238327D01*
X123738327Y-97059698D01*
X123835000Y-96826309D01*
X123835000Y-95485750D01*
X123676250Y-95327000D01*
X122527000Y-95327000D01*
X122273000Y-95327000D01*
X121123750Y-95327000D01*
X120965000Y-95485750D01*
X117399461Y-95485750D01*
X117336280Y-95422569D01*
X117034191Y-95297440D01*
X117381250Y-95297440D01*
X117722294Y-95229602D01*
X118011416Y-95036416D01*
X118204602Y-94747294D01*
X118272440Y-94406250D01*
X118272440Y-93573691D01*
X120965000Y-93573691D01*
X120965000Y-94914250D01*
X121123750Y-95073000D01*
X122273000Y-95073000D01*
X122273000Y-93223750D01*
X122527000Y-93223750D01*
X122527000Y-95073000D01*
X123676250Y-95073000D01*
X123835000Y-94914250D01*
X123835000Y-93573691D01*
X123738327Y-93340302D01*
X123559699Y-93161673D01*
X123326310Y-93065000D01*
X122685750Y-93065000D01*
X122527000Y-93223750D01*
X122273000Y-93223750D01*
X122114250Y-93065000D01*
X121473690Y-93065000D01*
X121240301Y-93161673D01*
X121061673Y-93340302D01*
X120965000Y-93573691D01*
X118272440Y-93573691D01*
X118272440Y-93493750D01*
X118204602Y-93152706D01*
X118197413Y-93141947D01*
X118553494Y-93071119D01*
X118878774Y-92853774D01*
X119096119Y-92528494D01*
X119172440Y-92144800D01*
X119172440Y-91735000D01*
X120952560Y-91735000D01*
X120952560Y-92300000D01*
X121001843Y-92547765D01*
X121142191Y-92757809D01*
X121352235Y-92898157D01*
X121600000Y-92947440D01*
X123200000Y-92947440D01*
X123447765Y-92898157D01*
X123657809Y-92757809D01*
X123798157Y-92547765D01*
X123847440Y-92300000D01*
X123847440Y-89300000D01*
X123798157Y-89052235D01*
X123657809Y-88842191D01*
X123611225Y-88811064D01*
X123691738Y-88730551D01*
X123769807Y-88678387D01*
X123976460Y-88369109D01*
X124030710Y-88096376D01*
X124049027Y-88004290D01*
X124030710Y-87912204D01*
X124030710Y-84462796D01*
X124049027Y-84370710D01*
X124029810Y-84274097D01*
X123976460Y-84005891D01*
X123769807Y-83696613D01*
X123691741Y-83644451D01*
X123672440Y-83625150D01*
X123672440Y-82655200D01*
X123596119Y-82271506D01*
X123378774Y-81946226D01*
X123053494Y-81728881D01*
X122721404Y-81662825D01*
X122772440Y-81406250D01*
X122772440Y-80493750D01*
X122704602Y-80152706D01*
X122572500Y-79955002D01*
X122572500Y-79704586D01*
X122590817Y-79612500D01*
X122538064Y-79347294D01*
X122518250Y-79247681D01*
X122311597Y-78938403D01*
X122233528Y-78886239D01*
X119172440Y-75825151D01*
X119172440Y-74855200D01*
X119096119Y-74471506D01*
X118878774Y-74146226D01*
X118553494Y-73928881D01*
X118270837Y-73872657D01*
X118354602Y-73747294D01*
X118422440Y-73406250D01*
X118422440Y-73137350D01*
X118796030Y-72763759D01*
X118874097Y-72711597D01*
X119080750Y-72402319D01*
X119135000Y-72129586D01*
X119153317Y-72037500D01*
X119135000Y-71945414D01*
X119135000Y-70930533D01*
X119297765Y-70898157D01*
X119507809Y-70757809D01*
X119648157Y-70547765D01*
X119697440Y-70300000D01*
X119697440Y-68600000D01*
X119648157Y-68352235D01*
X119507809Y-68142191D01*
X119297765Y-68001843D01*
X119147748Y-67972003D01*
X119103201Y-67748049D01*
X119080750Y-67635181D01*
X118874097Y-67325903D01*
X118796028Y-67273739D01*
X116713761Y-65191472D01*
X116661597Y-65113403D01*
X116352319Y-64906750D01*
X116079586Y-64852500D01*
X115987500Y-64834183D01*
X115895414Y-64852500D01*
X112145526Y-64852500D01*
X112238327Y-64759698D01*
X112335000Y-64526309D01*
X112335000Y-64198250D01*
X112176250Y-64039500D01*
X111127000Y-64039500D01*
X111127000Y-64059500D01*
X110873000Y-64059500D01*
X110873000Y-64039500D01*
X110853000Y-64039500D01*
X110853000Y-63785500D01*
X110873000Y-63785500D01*
X110873000Y-62948750D01*
X111127000Y-62948750D01*
X111127000Y-63785500D01*
X112176250Y-63785500D01*
X112335000Y-63626750D01*
X112335000Y-63298691D01*
X112238327Y-63065302D01*
X112059699Y-62886673D01*
X111826310Y-62790000D01*
X111285750Y-62790000D01*
X111127000Y-62948750D01*
X110873000Y-62948750D01*
X110714250Y-62790000D01*
X110173690Y-62790000D01*
X109986585Y-62867502D01*
X109882809Y-62712191D01*
X109767285Y-62635000D01*
X112020592Y-62635000D01*
X112188584Y-62886416D01*
X112477706Y-63079602D01*
X112818750Y-63147440D01*
X113306250Y-63147440D01*
X113647294Y-63079602D01*
X113936416Y-62886416D01*
X113937207Y-62885233D01*
X114090302Y-63038327D01*
X114323691Y-63135000D01*
X114651750Y-63135000D01*
X114810500Y-62976250D01*
X114810500Y-61927000D01*
X115064500Y-61927000D01*
X115064500Y-62976250D01*
X115223250Y-63135000D01*
X115551309Y-63135000D01*
X115784698Y-63038327D01*
X115963327Y-62859699D01*
X116060000Y-62626310D01*
X116060000Y-62085750D01*
X115901250Y-61927000D01*
X115064500Y-61927000D01*
X114810500Y-61927000D01*
X114790500Y-61927000D01*
X114790500Y-61673000D01*
X114810500Y-61673000D01*
X114810500Y-60623750D01*
X115064500Y-60623750D01*
X115064500Y-61673000D01*
X115901250Y-61673000D01*
X116060000Y-61514250D01*
X116060000Y-60973690D01*
X115963327Y-60740301D01*
X115784698Y-60561673D01*
X115551309Y-60465000D01*
X115223250Y-60465000D01*
X115064500Y-60623750D01*
X114810500Y-60623750D01*
X114651750Y-60465000D01*
X114323691Y-60465000D01*
X114090302Y-60561673D01*
X113937207Y-60714767D01*
X113936416Y-60713584D01*
X113685000Y-60545592D01*
X113685000Y-59735000D01*
X113691250Y-59735000D01*
X113850000Y-59576250D01*
X113850000Y-58427000D01*
X114050000Y-58427000D01*
X114050000Y-59576250D01*
X114208750Y-59735000D01*
X114276309Y-59735000D01*
X114509698Y-59638327D01*
X114688327Y-59459699D01*
X114785000Y-59226310D01*
X114785000Y-58585750D01*
X114626250Y-58427000D01*
X114050000Y-58427000D01*
X113850000Y-58427000D01*
X113803000Y-58427000D01*
X113803000Y-58173000D01*
X113850000Y-58173000D01*
X113850000Y-58153000D01*
X114050000Y-58153000D01*
X114050000Y-58173000D01*
X114626250Y-58173000D01*
X114785000Y-58014250D01*
X114785000Y-57373690D01*
X114768974Y-57335000D01*
X114776309Y-57335000D01*
X114802560Y-57324126D01*
X114802560Y-58550000D01*
X114802560Y-58550000D01*
G37*
X114802560Y-58550000D02*
X114851843Y-58797765D01*
X114992191Y-59007809D01*
X115202235Y-59148157D01*
X115450000Y-59197440D01*
X116850000Y-59197440D01*
X117097765Y-59148157D01*
X117145276Y-59116411D01*
X117145276Y-60572387D01*
X117150628Y-60599293D01*
X117169265Y-60850088D01*
X117185367Y-60923323D01*
X117195541Y-60997597D01*
X117198061Y-61006215D01*
X117360537Y-61549500D01*
X117402386Y-61640068D01*
X117443111Y-61731111D01*
X117447949Y-61738676D01*
X117756377Y-62214521D01*
X117821967Y-62289708D01*
X117886604Y-62365657D01*
X117893370Y-62371560D01*
X118322955Y-62741715D01*
X118407018Y-62795476D01*
X118490367Y-62850226D01*
X118498514Y-62853990D01*
X118498517Y-62853992D01*
X118498520Y-62853993D01*
X119014727Y-63088698D01*
X119110507Y-63116706D01*
X119205866Y-63145860D01*
X119214744Y-63147188D01*
X119214746Y-63147188D01*
X119756407Y-63224760D01*
X119807888Y-63235000D01*
X122757298Y-63235000D01*
X123319918Y-63300594D01*
X123811944Y-63479191D01*
X123957123Y-63574375D01*
X123326419Y-63307306D01*
X122587786Y-63255008D01*
X121872035Y-63444786D01*
X121256346Y-63856176D01*
X120807109Y-64444818D01*
X120572763Y-65147240D01*
X120578578Y-65887700D01*
X120823928Y-66586355D01*
X121282357Y-67167868D01*
X121904432Y-67569537D01*
X122623075Y-67748049D01*
X123360796Y-67684155D01*
X124038046Y-67384746D01*
X124581800Y-66882105D01*
X124933422Y-66230434D01*
X125055000Y-65500000D01*
X125054722Y-65464580D01*
X124933106Y-64798675D01*
X125027220Y-65109416D01*
X125065001Y-65532743D01*
X125065000Y-101457298D01*
X124999405Y-102019918D01*
X124942255Y-102177364D01*
X125055000Y-101500000D01*
X125054722Y-101464580D01*
X124921686Y-100736146D01*
X124559871Y-100090078D01*
X124008289Y-99596041D01*
X123326419Y-99307306D01*
X122587786Y-99255008D01*
X121872035Y-99444786D01*
X121256346Y-99856176D01*
X120807109Y-100444818D01*
X120572763Y-101147240D01*
X120578578Y-101887700D01*
X120823928Y-102586355D01*
X121282357Y-103167868D01*
X121904432Y-103569537D01*
X122623075Y-103748049D01*
X123321552Y-103687554D01*
X123190584Y-103727220D01*
X122767269Y-103765000D01*
X100842702Y-103765000D01*
X100665668Y-103744360D01*
X101360796Y-103684155D01*
X102038046Y-103384746D01*
X102581800Y-102882105D01*
X102933422Y-102230434D01*
X103055000Y-101500000D01*
X103054722Y-101464580D01*
X102921686Y-100736146D01*
X102559871Y-100090078D01*
X102008289Y-99596041D01*
X101326419Y-99307306D01*
X100587786Y-99255008D01*
X99872035Y-99444786D01*
X99256346Y-99856176D01*
X98807109Y-100444818D01*
X98572763Y-101147240D01*
X98578578Y-101887700D01*
X98807026Y-102538224D01*
X98727424Y-102401180D01*
X98572780Y-101890584D01*
X98535000Y-101467269D01*
X98535000Y-72173690D01*
X105140000Y-72173690D01*
X105140000Y-72714250D01*
X105298750Y-72873000D01*
X106135500Y-72873000D01*
X106135500Y-71823750D01*
X105976750Y-71665000D01*
X105648691Y-71665000D01*
X105415302Y-71761673D01*
X105236673Y-71940301D01*
X105140000Y-72173690D01*
X98535000Y-72173690D01*
X98535000Y-69806892D01*
X98978514Y-69806892D01*
X99224817Y-70331358D01*
X99653076Y-70721645D01*
X100063110Y-70891476D01*
X100293000Y-70770155D01*
X100293000Y-69577000D01*
X99099181Y-69577000D01*
X98978514Y-69806892D01*
X98535000Y-69806892D01*
X98535000Y-69093108D01*
X98978514Y-69093108D01*
X99099181Y-69323000D01*
X100293000Y-69323000D01*
X100293000Y-68129845D01*
X100063110Y-68008524D01*
X99653076Y-68178355D01*
X99224817Y-68568642D01*
X98978514Y-69093108D01*
X98535000Y-69093108D01*
X98535000Y-66023250D01*
X103915000Y-66023250D01*
X103915000Y-66351309D01*
X104011673Y-66584698D01*
X104190301Y-66763327D01*
X104423690Y-66860000D01*
X104964250Y-66860000D01*
X105123000Y-66701250D01*
X105123000Y-65864500D01*
X104073750Y-65864500D01*
X103915000Y-66023250D01*
X98535000Y-66023250D01*
X98535000Y-65542702D01*
X98600594Y-64980082D01*
X98779191Y-64488056D01*
X99066192Y-64050308D01*
X99446190Y-63690332D01*
X99898821Y-63427424D01*
X100409416Y-63272780D01*
X100832732Y-63235000D01*
X103792096Y-63235000D01*
X103819003Y-63229648D01*
X104012097Y-63215299D01*
X103970398Y-63277706D01*
X103902560Y-63618750D01*
X103902560Y-64106250D01*
X103970398Y-64447294D01*
X104163584Y-64736416D01*
X104164767Y-64737207D01*
X104011673Y-64890302D01*
X103915000Y-65123691D01*
X103915000Y-65451750D01*
X104073750Y-65610500D01*
X105123000Y-65610500D01*
X105123000Y-65590500D01*
X105377000Y-65590500D01*
X105377000Y-65610500D01*
X105397000Y-65610500D01*
X105397000Y-65864500D01*
X105377000Y-65864500D01*
X105377000Y-66701250D01*
X105535750Y-66860000D01*
X106076310Y-66860000D01*
X106309699Y-66763327D01*
X106324275Y-66748751D01*
X106355507Y-66795493D01*
X106348643Y-66830000D01*
X106413448Y-67155800D01*
X106454820Y-67217717D01*
X106598000Y-67432001D01*
X106667718Y-67478585D01*
X107328528Y-68139397D01*
X106969375Y-68379375D01*
X106770000Y-68677761D01*
X106570625Y-68379375D01*
X106079418Y-68051161D01*
X105646256Y-67965000D01*
X105353744Y-67965000D01*
X104920582Y-68051161D01*
X104429375Y-68379375D01*
X104230000Y-68677761D01*
X104030625Y-68379375D01*
X103539418Y-68051161D01*
X103106256Y-67965000D01*
X102813744Y-67965000D01*
X102380582Y-68051161D01*
X101889375Y-68379375D01*
X101676157Y-68698478D01*
X101615183Y-68568642D01*
X101186924Y-68178355D01*
X100776890Y-68008524D01*
X100547000Y-68129845D01*
X100547000Y-69323000D01*
X100567000Y-69323000D01*
X100567000Y-69577000D01*
X100547000Y-69577000D01*
X100547000Y-70770155D01*
X100776890Y-70891476D01*
X101186924Y-70721645D01*
X101615183Y-70331358D01*
X101676157Y-70201522D01*
X101889375Y-70520625D01*
X102380582Y-70848839D01*
X102813744Y-70935000D01*
X103106256Y-70935000D01*
X103539418Y-70848839D01*
X104030625Y-70520625D01*
X104230000Y-70222239D01*
X104429375Y-70520625D01*
X104920582Y-70848839D01*
X105353744Y-70935000D01*
X105646256Y-70935000D01*
X106079418Y-70848839D01*
X106570625Y-70520625D01*
X106770000Y-70222239D01*
X106969375Y-70520625D01*
X107460582Y-70848839D01*
X107893744Y-70935000D01*
X108186256Y-70935000D01*
X108619418Y-70848839D01*
X109110625Y-70520625D01*
X109310000Y-70222239D01*
X109509375Y-70520625D01*
X110000582Y-70848839D01*
X110433744Y-70935000D01*
X110726256Y-70935000D01*
X111159418Y-70848839D01*
X111650625Y-70520625D01*
X111850000Y-70222239D01*
X112049375Y-70520625D01*
X112540582Y-70848839D01*
X112973744Y-70935000D01*
X113266256Y-70935000D01*
X113699418Y-70848839D01*
X114190625Y-70520625D01*
X114390000Y-70222239D01*
X114589375Y-70520625D01*
X115080582Y-70848839D01*
X115513744Y-70935000D01*
X115806256Y-70935000D01*
X116239418Y-70848839D01*
X116730625Y-70520625D01*
X116742816Y-70502381D01*
X116751843Y-70547765D01*
X116892191Y-70757809D01*
X117102235Y-70898157D01*
X117265001Y-70930533D01*
X117265001Y-71602560D01*
X117043750Y-71602560D01*
X116702706Y-71670398D01*
X116413584Y-71863584D01*
X116412793Y-71864767D01*
X116259698Y-71711673D01*
X116026309Y-71615000D01*
X115698250Y-71615000D01*
X115539500Y-71773750D01*
X115539500Y-72823000D01*
X115559500Y-72823000D01*
X115559500Y-73077000D01*
X115539500Y-73077000D01*
X115539500Y-73097000D01*
X115285500Y-73097000D01*
X115285500Y-73077000D01*
X114448750Y-73077000D01*
X114290000Y-73235750D01*
X114290000Y-73776310D01*
X114329852Y-73872520D01*
X114046506Y-73928881D01*
X113721226Y-74146226D01*
X113503881Y-74471506D01*
X113427560Y-74855200D01*
X113427560Y-76544800D01*
X113503881Y-76928494D01*
X113721226Y-77253774D01*
X113940001Y-77399954D01*
X113940001Y-77970410D01*
X113921683Y-78062500D01*
X113994250Y-78427318D01*
X114148741Y-78658530D01*
X114200904Y-78736597D01*
X114227560Y-78754408D01*
X114227560Y-79006250D01*
X114295398Y-79347294D01*
X114488584Y-79636416D01*
X114777706Y-79829602D01*
X115118750Y-79897440D01*
X115606250Y-79897440D01*
X115947294Y-79829602D01*
X116015001Y-79784362D01*
X116015000Y-80502704D01*
X115915000Y-80744126D01*
X115915000Y-81155874D01*
X116015000Y-81397296D01*
X116015001Y-84997248D01*
X115996683Y-85089338D01*
X116069250Y-85454156D01*
X116202762Y-85653970D01*
X116275904Y-85763435D01*
X116353970Y-85815597D01*
X118032907Y-87494535D01*
X117772294Y-87320398D01*
X117431250Y-87252560D01*
X117162350Y-87252560D01*
X114619705Y-84709916D01*
X114672440Y-84444800D01*
X114672440Y-82755200D01*
X114596119Y-82371506D01*
X114378774Y-82046226D01*
X114160000Y-81900046D01*
X114160000Y-81529585D01*
X114178317Y-81437499D01*
X114105750Y-81072681D01*
X113990368Y-80900000D01*
X113899097Y-80763403D01*
X113872440Y-80745591D01*
X113872440Y-80493750D01*
X113804602Y-80152706D01*
X113672500Y-79955002D01*
X113672500Y-79804586D01*
X113690817Y-79712500D01*
X113618250Y-79347681D01*
X113535673Y-79224096D01*
X113411597Y-79038403D01*
X113333531Y-78986241D01*
X110321971Y-75974681D01*
X110269807Y-75896613D01*
X110191741Y-75844451D01*
X110172440Y-75825150D01*
X110172440Y-74855200D01*
X110096119Y-74471506D01*
X109878774Y-74146226D01*
X109553494Y-73928881D01*
X109169800Y-73852560D01*
X109167674Y-73852560D01*
X109204602Y-73797294D01*
X109272440Y-73456250D01*
X109272440Y-72543750D01*
X109204602Y-72202706D01*
X109151805Y-72123690D01*
X114290000Y-72123690D01*
X114290000Y-72664250D01*
X114448750Y-72823000D01*
X115285500Y-72823000D01*
X115285500Y-71773750D01*
X115126750Y-71615000D01*
X114798691Y-71615000D01*
X114565302Y-71711673D01*
X114386673Y-71890301D01*
X114290000Y-72123690D01*
X109151805Y-72123690D01*
X109011416Y-71913584D01*
X108722294Y-71720398D01*
X108381250Y-71652560D01*
X107893750Y-71652560D01*
X107552706Y-71720398D01*
X107263584Y-71913584D01*
X107262793Y-71914767D01*
X107109698Y-71761673D01*
X106876309Y-71665000D01*
X106548250Y-71665000D01*
X106389500Y-71823750D01*
X106389500Y-72873000D01*
X106409500Y-72873000D01*
X106409500Y-73127000D01*
X106389500Y-73127000D01*
X106389500Y-73147000D01*
X106135500Y-73147000D01*
X106135500Y-73127000D01*
X105298750Y-73127000D01*
X105140000Y-73285750D01*
X105140000Y-73826310D01*
X105172136Y-73903892D01*
X105046506Y-73928881D01*
X104721226Y-74146226D01*
X104503881Y-74471506D01*
X104427560Y-74855200D01*
X104427560Y-76544800D01*
X104503881Y-76928494D01*
X104721226Y-77253774D01*
X104887688Y-77365000D01*
X102752742Y-77365000D01*
X102660661Y-77346684D01*
X102568580Y-77365000D01*
X102568576Y-77365000D01*
X102295843Y-77419250D01*
X101986565Y-77625903D01*
X101934403Y-77703969D01*
X99478960Y-80159413D01*
X99400894Y-80211575D01*
X99348732Y-80289641D01*
X99348731Y-80289642D01*
X99194240Y-80520854D01*
X99121673Y-80885672D01*
X99139991Y-80977762D01*
X99139990Y-84807904D01*
X99121673Y-84899990D01*
X99139990Y-84992075D01*
X99194240Y-85264808D01*
X99400893Y-85574087D01*
X99478962Y-85626251D01*
X100448741Y-86596031D01*
X100500903Y-86674097D01*
X100578969Y-86726259D01*
X100703559Y-86809507D01*
X100827500Y-86994998D01*
X100827501Y-89995410D01*
X100809183Y-90087500D01*
X100881750Y-90452318D01*
X100881751Y-90452319D01*
X101088404Y-90761597D01*
X101166470Y-90813759D01*
X104646461Y-94293750D01*
X102953970Y-95986241D01*
X102875904Y-96038403D01*
X102823742Y-96116469D01*
X102823741Y-96116470D01*
X102669250Y-96347682D01*
X102596683Y-96712500D01*
X102615001Y-96804590D01*
X102615000Y-98557914D01*
X102596683Y-98650000D01*
X102621359Y-98774052D01*
X102669250Y-99014818D01*
X102875903Y-99324097D01*
X102953972Y-99376261D01*
X105773741Y-102196031D01*
X105825903Y-102274097D01*
X105903969Y-102326259D01*
X106135181Y-102480750D01*
X106499999Y-102553317D01*
X106592085Y-102535000D01*
X106682885Y-102535000D01*
X106852235Y-102648157D01*
X107100000Y-102697440D01*
X107900000Y-102697440D01*
X108147765Y-102648157D01*
X108317115Y-102535000D01*
X108407914Y-102535000D01*
X108500000Y-102553317D01*
X108592086Y-102535000D01*
X108864819Y-102480750D01*
X109174097Y-102274097D01*
X109226261Y-102196028D01*
X113186539Y-98235750D01*
X113690000Y-98235750D01*
X113690000Y-98776310D01*
X113774445Y-98980178D01*
X113715000Y-99123691D01*
X113715000Y-99414250D01*
X113873750Y-99573000D01*
X114623000Y-99573000D01*
X114623000Y-99188750D01*
X114685500Y-99126250D01*
X114685500Y-98077000D01*
X113848750Y-98077000D01*
X113690000Y-98235750D01*
X113186539Y-98235750D01*
X113724020Y-97698270D01*
X113848750Y-97823000D01*
X114685500Y-97823000D01*
X114685500Y-96773750D01*
X114643992Y-96732242D01*
X114705740Y-96639829D01*
X114759990Y-96367096D01*
X114778307Y-96275011D01*
X114759990Y-96182925D01*
X114759990Y-95774799D01*
X115237350Y-95297440D01*
X115506250Y-95297440D01*
X115847294Y-95229602D01*
X116136416Y-95036416D01*
X116200000Y-94941256D01*
X116263584Y-95036416D01*
X116552706Y-95229602D01*
X116730663Y-95265000D01*
X116544126Y-95265000D01*
X116163720Y-95422569D01*
X115872569Y-95713720D01*
X115715000Y-96094126D01*
X115715000Y-96505874D01*
X115852420Y-96837635D01*
X115813584Y-96863584D01*
X115812793Y-96864767D01*
X115659698Y-96711673D01*
X115426309Y-96615000D01*
X115098250Y-96615000D01*
X114939500Y-96773750D01*
X114939500Y-97823000D01*
X114959500Y-97823000D01*
X114959500Y-98077000D01*
X114939500Y-98077000D01*
X114939500Y-98711250D01*
X114877000Y-98773750D01*
X114877000Y-99573000D01*
X114897000Y-99573000D01*
X114897000Y-99827000D01*
X114877000Y-99827000D01*
X114877000Y-99847000D01*
X114623000Y-99847000D01*
X114623000Y-99827000D01*
X113873750Y-99827000D01*
X113715000Y-99985750D01*
X113715000Y-100276309D01*
X113811673Y-100509698D01*
X113990301Y-100688327D01*
X114175406Y-100765000D01*
X113418007Y-100765000D01*
X113055874Y-100615000D01*
X112644126Y-100615000D01*
X112263720Y-100772569D01*
X111972569Y-101063720D01*
X111815000Y-101444126D01*
X111815000Y-101855874D01*
X111972569Y-102236280D01*
X112263720Y-102527431D01*
X112644126Y-102685000D01*
X113055874Y-102685000D01*
X113176585Y-102635000D01*
X114882885Y-102635000D01*
X115052235Y-102748157D01*
X115300000Y-102797440D01*
X116100000Y-102797440D01*
X116347765Y-102748157D01*
X116557809Y-102607809D01*
X116698157Y-102397765D01*
X116747440Y-102150000D01*
X116747440Y-101250000D01*
X116698157Y-101002235D01*
X116561316Y-100797440D01*
X117050000Y-100797440D01*
X117297765Y-100748157D01*
X117507809Y-100607809D01*
X117648157Y-100397765D01*
X117697440Y-100150000D01*
X117697440Y-99250000D01*
X117648157Y-99002235D01*
X117616206Y-98954417D01*
X117754602Y-98747294D01*
X117822440Y-98406250D01*
X117822440Y-97493750D01*
X117754602Y-97152706D01*
X117596949Y-96916762D01*
X117627431Y-96886280D01*
X117785000Y-96505874D01*
X117785000Y-96094126D01*
X117627431Y-95713720D01*
X117399461Y-95485750D01*
X120965000Y-95485750D01*
X120965000Y-96826309D01*
X121061673Y-97059698D01*
X121240301Y-97238327D01*
X121473690Y-97335000D01*
X122114250Y-97335000D01*
X122273000Y-97176250D01*
X122273000Y-95327000D01*
X122527000Y-95327000D01*
X122527000Y-97176250D01*
X122685750Y-97335000D01*
X123326310Y-97335000D01*
X123559699Y-97238327D01*
X123738327Y-97059698D01*
X123835000Y-96826309D01*
X123835000Y-95485750D01*
X123676250Y-95327000D01*
X122527000Y-95327000D01*
X122273000Y-95327000D01*
X121123750Y-95327000D01*
X120965000Y-95485750D01*
X117399461Y-95485750D01*
X117336280Y-95422569D01*
X117034191Y-95297440D01*
X117381250Y-95297440D01*
X117722294Y-95229602D01*
X118011416Y-95036416D01*
X118204602Y-94747294D01*
X118272440Y-94406250D01*
X118272440Y-93573691D01*
X120965000Y-93573691D01*
X120965000Y-94914250D01*
X121123750Y-95073000D01*
X122273000Y-95073000D01*
X122273000Y-93223750D01*
X122527000Y-93223750D01*
X122527000Y-95073000D01*
X123676250Y-95073000D01*
X123835000Y-94914250D01*
X123835000Y-93573691D01*
X123738327Y-93340302D01*
X123559699Y-93161673D01*
X123326310Y-93065000D01*
X122685750Y-93065000D01*
X122527000Y-93223750D01*
X122273000Y-93223750D01*
X122114250Y-93065000D01*
X121473690Y-93065000D01*
X121240301Y-93161673D01*
X121061673Y-93340302D01*
X120965000Y-93573691D01*
X118272440Y-93573691D01*
X118272440Y-93493750D01*
X118204602Y-93152706D01*
X118197413Y-93141947D01*
X118553494Y-93071119D01*
X118878774Y-92853774D01*
X119096119Y-92528494D01*
X119172440Y-92144800D01*
X119172440Y-91735000D01*
X120952560Y-91735000D01*
X120952560Y-92300000D01*
X121001843Y-92547765D01*
X121142191Y-92757809D01*
X121352235Y-92898157D01*
X121600000Y-92947440D01*
X123200000Y-92947440D01*
X123447765Y-92898157D01*
X123657809Y-92757809D01*
X123798157Y-92547765D01*
X123847440Y-92300000D01*
X123847440Y-89300000D01*
X123798157Y-89052235D01*
X123657809Y-88842191D01*
X123611225Y-88811064D01*
X123691738Y-88730551D01*
X123769807Y-88678387D01*
X123976460Y-88369109D01*
X124030710Y-88096376D01*
X124049027Y-88004290D01*
X124030710Y-87912204D01*
X124030710Y-84462796D01*
X124049027Y-84370710D01*
X124029810Y-84274097D01*
X123976460Y-84005891D01*
X123769807Y-83696613D01*
X123691741Y-83644451D01*
X123672440Y-83625150D01*
X123672440Y-82655200D01*
X123596119Y-82271506D01*
X123378774Y-81946226D01*
X123053494Y-81728881D01*
X122721404Y-81662825D01*
X122772440Y-81406250D01*
X122772440Y-80493750D01*
X122704602Y-80152706D01*
X122572500Y-79955002D01*
X122572500Y-79704586D01*
X122590817Y-79612500D01*
X122538064Y-79347294D01*
X122518250Y-79247681D01*
X122311597Y-78938403D01*
X122233528Y-78886239D01*
X119172440Y-75825151D01*
X119172440Y-74855200D01*
X119096119Y-74471506D01*
X118878774Y-74146226D01*
X118553494Y-73928881D01*
X118270837Y-73872657D01*
X118354602Y-73747294D01*
X118422440Y-73406250D01*
X118422440Y-73137350D01*
X118796030Y-72763759D01*
X118874097Y-72711597D01*
X119080750Y-72402319D01*
X119135000Y-72129586D01*
X119153317Y-72037500D01*
X119135000Y-71945414D01*
X119135000Y-70930533D01*
X119297765Y-70898157D01*
X119507809Y-70757809D01*
X119648157Y-70547765D01*
X119697440Y-70300000D01*
X119697440Y-68600000D01*
X119648157Y-68352235D01*
X119507809Y-68142191D01*
X119297765Y-68001843D01*
X119147748Y-67972003D01*
X119103201Y-67748049D01*
X119080750Y-67635181D01*
X118874097Y-67325903D01*
X118796028Y-67273739D01*
X116713761Y-65191472D01*
X116661597Y-65113403D01*
X116352319Y-64906750D01*
X116079586Y-64852500D01*
X115987500Y-64834183D01*
X115895414Y-64852500D01*
X112145526Y-64852500D01*
X112238327Y-64759698D01*
X112335000Y-64526309D01*
X112335000Y-64198250D01*
X112176250Y-64039500D01*
X111127000Y-64039500D01*
X111127000Y-64059500D01*
X110873000Y-64059500D01*
X110873000Y-64039500D01*
X110853000Y-64039500D01*
X110853000Y-63785500D01*
X110873000Y-63785500D01*
X110873000Y-62948750D01*
X111127000Y-62948750D01*
X111127000Y-63785500D01*
X112176250Y-63785500D01*
X112335000Y-63626750D01*
X112335000Y-63298691D01*
X112238327Y-63065302D01*
X112059699Y-62886673D01*
X111826310Y-62790000D01*
X111285750Y-62790000D01*
X111127000Y-62948750D01*
X110873000Y-62948750D01*
X110714250Y-62790000D01*
X110173690Y-62790000D01*
X109986585Y-62867502D01*
X109882809Y-62712191D01*
X109767285Y-62635000D01*
X112020592Y-62635000D01*
X112188584Y-62886416D01*
X112477706Y-63079602D01*
X112818750Y-63147440D01*
X113306250Y-63147440D01*
X113647294Y-63079602D01*
X113936416Y-62886416D01*
X113937207Y-62885233D01*
X114090302Y-63038327D01*
X114323691Y-63135000D01*
X114651750Y-63135000D01*
X114810500Y-62976250D01*
X114810500Y-61927000D01*
X115064500Y-61927000D01*
X115064500Y-62976250D01*
X115223250Y-63135000D01*
X115551309Y-63135000D01*
X115784698Y-63038327D01*
X115963327Y-62859699D01*
X116060000Y-62626310D01*
X116060000Y-62085750D01*
X115901250Y-61927000D01*
X115064500Y-61927000D01*
X114810500Y-61927000D01*
X114790500Y-61927000D01*
X114790500Y-61673000D01*
X114810500Y-61673000D01*
X114810500Y-60623750D01*
X115064500Y-60623750D01*
X115064500Y-61673000D01*
X115901250Y-61673000D01*
X116060000Y-61514250D01*
X116060000Y-60973690D01*
X115963327Y-60740301D01*
X115784698Y-60561673D01*
X115551309Y-60465000D01*
X115223250Y-60465000D01*
X115064500Y-60623750D01*
X114810500Y-60623750D01*
X114651750Y-60465000D01*
X114323691Y-60465000D01*
X114090302Y-60561673D01*
X113937207Y-60714767D01*
X113936416Y-60713584D01*
X113685000Y-60545592D01*
X113685000Y-59735000D01*
X113691250Y-59735000D01*
X113850000Y-59576250D01*
X113850000Y-58427000D01*
X114050000Y-58427000D01*
X114050000Y-59576250D01*
X114208750Y-59735000D01*
X114276309Y-59735000D01*
X114509698Y-59638327D01*
X114688327Y-59459699D01*
X114785000Y-59226310D01*
X114785000Y-58585750D01*
X114626250Y-58427000D01*
X114050000Y-58427000D01*
X113850000Y-58427000D01*
X113803000Y-58427000D01*
X113803000Y-58173000D01*
X113850000Y-58173000D01*
X113850000Y-58153000D01*
X114050000Y-58153000D01*
X114050000Y-58173000D01*
X114626250Y-58173000D01*
X114785000Y-58014250D01*
X114785000Y-57373690D01*
X114768974Y-57335000D01*
X114776309Y-57335000D01*
X114802560Y-57324126D01*
X114802560Y-58550000D01*
G36*
X111317710Y-79615000D02*
X111148250Y-79615000D01*
X110989500Y-79773750D01*
X110989500Y-80823000D01*
X111009500Y-80823000D01*
X111009500Y-81077000D01*
X110989500Y-81077000D01*
X110989500Y-81097000D01*
X110735500Y-81097000D01*
X110735500Y-81077000D01*
X109898750Y-81077000D01*
X109740000Y-81235750D01*
X109740000Y-81776310D01*
X109745389Y-81789321D01*
X109546506Y-81828881D01*
X109221226Y-82046226D01*
X109003881Y-82371506D01*
X108927560Y-82755200D01*
X108927560Y-84444800D01*
X109003881Y-84828494D01*
X109221226Y-85153774D01*
X109440001Y-85299955D01*
X109440001Y-85620410D01*
X109421683Y-85712500D01*
X109494250Y-86077318D01*
X109648741Y-86308530D01*
X109700904Y-86386597D01*
X109727560Y-86404408D01*
X109727560Y-86656250D01*
X109795398Y-86997294D01*
X109988584Y-87286416D01*
X110277706Y-87479602D01*
X110618750Y-87547440D01*
X111106250Y-87547440D01*
X111447294Y-87479602D01*
X111736416Y-87286416D01*
X111765001Y-87243636D01*
X111765000Y-88202704D01*
X111665000Y-88444126D01*
X111665000Y-88855874D01*
X111822569Y-89236280D01*
X112113720Y-89527431D01*
X112494126Y-89685000D01*
X112905874Y-89685000D01*
X113286280Y-89527431D01*
X113577431Y-89236280D01*
X113735000Y-88855874D01*
X113735000Y-88444126D01*
X113635000Y-88202704D01*
X113635000Y-87251120D01*
X113804602Y-86997294D01*
X113872440Y-86656250D01*
X113872440Y-86607229D01*
X114579557Y-87314347D01*
X114465302Y-87361673D01*
X114286673Y-87540301D01*
X114190000Y-87773690D01*
X114190000Y-88314250D01*
X114348750Y-88473000D01*
X115185500Y-88473000D01*
X115185500Y-88453000D01*
X115439500Y-88453000D01*
X115439500Y-88473000D01*
X115459500Y-88473000D01*
X115459500Y-88727000D01*
X115439500Y-88727000D01*
X115439500Y-88747000D01*
X115185500Y-88747000D01*
X115185500Y-88727000D01*
X114348750Y-88727000D01*
X114190000Y-88885750D01*
X114190000Y-89426310D01*
X114218330Y-89494703D01*
X114046506Y-89528881D01*
X113721226Y-89746226D01*
X113503881Y-90071506D01*
X113427560Y-90455200D01*
X113427560Y-92144800D01*
X113503881Y-92528494D01*
X113721226Y-92853774D01*
X114046506Y-93071119D01*
X114226050Y-93106832D01*
X114195398Y-93152706D01*
X114127560Y-93493750D01*
X114127560Y-93762650D01*
X113228962Y-94661249D01*
X113150893Y-94713413D01*
X112990595Y-94953317D01*
X112944240Y-95022692D01*
X112871673Y-95387510D01*
X112889990Y-95479596D01*
X112889991Y-95887720D01*
X111085000Y-97692710D01*
X111085000Y-97494126D01*
X110927431Y-97113720D01*
X110636280Y-96822569D01*
X110255874Y-96665000D01*
X109844126Y-96665000D01*
X109463720Y-96822569D01*
X109421289Y-96865000D01*
X109362589Y-96865000D01*
X109261416Y-96713584D01*
X108972294Y-96520398D01*
X108631250Y-96452560D01*
X108143750Y-96452560D01*
X107802706Y-96520398D01*
X107513584Y-96713584D01*
X107512793Y-96714767D01*
X107359698Y-96561673D01*
X107126309Y-96465000D01*
X106798250Y-96465000D01*
X106639500Y-96623750D01*
X106639500Y-97673000D01*
X106659500Y-97673000D01*
X106659500Y-97927000D01*
X106639500Y-97927000D01*
X106639500Y-98976250D01*
X106677000Y-99013750D01*
X106677000Y-99473000D01*
X106697000Y-99473000D01*
X106697000Y-99727000D01*
X106677000Y-99727000D01*
X106677000Y-99747000D01*
X106423000Y-99747000D01*
X106423000Y-99727000D01*
X106403000Y-99727000D01*
X106403000Y-99473000D01*
X106423000Y-99473000D01*
X106423000Y-98673750D01*
X106385500Y-98636250D01*
X106385500Y-97927000D01*
X105548750Y-97927000D01*
X105390000Y-98085750D01*
X105390000Y-98626310D01*
X105486673Y-98859699D01*
X105554736Y-98927761D01*
X105515000Y-99023691D01*
X105515000Y-99292711D01*
X104485000Y-98262711D01*
X104485000Y-97099789D01*
X104611099Y-96973690D01*
X105390000Y-96973690D01*
X105390000Y-97514250D01*
X105548750Y-97673000D01*
X106385500Y-97673000D01*
X106385500Y-96623750D01*
X106226750Y-96465000D01*
X105898691Y-96465000D01*
X105665302Y-96561673D01*
X105486673Y-96740301D01*
X105390000Y-96973690D01*
X104611099Y-96973690D01*
X106237350Y-95347440D01*
X106506250Y-95347440D01*
X106847294Y-95279602D01*
X107136416Y-95086416D01*
X107200000Y-94991256D01*
X107263584Y-95086416D01*
X107552706Y-95279602D01*
X107893750Y-95347440D01*
X108381250Y-95347440D01*
X108722294Y-95279602D01*
X109011416Y-95086416D01*
X109204602Y-94797294D01*
X109272440Y-94456250D01*
X109272440Y-93543750D01*
X109204602Y-93202706D01*
X109167674Y-93147440D01*
X109169800Y-93147440D01*
X109553494Y-93071119D01*
X109878774Y-92853774D01*
X110096119Y-92528494D01*
X110172440Y-92144800D01*
X110172440Y-90455200D01*
X110096119Y-90071506D01*
X109878774Y-89746226D01*
X109553494Y-89528881D01*
X109169800Y-89452560D01*
X109150856Y-89452560D01*
X109254602Y-89297294D01*
X109322440Y-88956250D01*
X109322440Y-88043750D01*
X109254602Y-87702706D01*
X109122500Y-87505002D01*
X109122500Y-87454581D01*
X109140816Y-87362499D01*
X109122500Y-87270415D01*
X109122500Y-87270414D01*
X109068250Y-86997681D01*
X108861597Y-86688403D01*
X108783531Y-86636241D01*
X105672440Y-83525151D01*
X105672440Y-82555200D01*
X105596119Y-82171506D01*
X105378774Y-81846226D01*
X105361973Y-81835000D01*
X107397252Y-81835000D01*
X107489338Y-81853317D01*
X107581424Y-81835000D01*
X107854157Y-81780750D01*
X108163435Y-81574097D01*
X108215599Y-81496028D01*
X109587937Y-80123690D01*
X109740000Y-80123690D01*
X109740000Y-80664250D01*
X109898750Y-80823000D01*
X110735500Y-80823000D01*
X110735500Y-79773750D01*
X110576750Y-79615000D01*
X110248691Y-79615000D01*
X110015302Y-79711673D01*
X109836673Y-79890301D01*
X109740000Y-80123690D01*
X109587937Y-80123690D01*
X110191741Y-79519887D01*
X110269807Y-79467725D01*
X110476460Y-79158447D01*
X110530710Y-78885714D01*
X110540285Y-78837575D01*
X111317710Y-79615000D01*
X111317710Y-79615000D01*
G37*
X111317710Y-79615000D02*
X111148250Y-79615000D01*
X110989500Y-79773750D01*
X110989500Y-80823000D01*
X111009500Y-80823000D01*
X111009500Y-81077000D01*
X110989500Y-81077000D01*
X110989500Y-81097000D01*
X110735500Y-81097000D01*
X110735500Y-81077000D01*
X109898750Y-81077000D01*
X109740000Y-81235750D01*
X109740000Y-81776310D01*
X109745389Y-81789321D01*
X109546506Y-81828881D01*
X109221226Y-82046226D01*
X109003881Y-82371506D01*
X108927560Y-82755200D01*
X108927560Y-84444800D01*
X109003881Y-84828494D01*
X109221226Y-85153774D01*
X109440001Y-85299955D01*
X109440001Y-85620410D01*
X109421683Y-85712500D01*
X109494250Y-86077318D01*
X109648741Y-86308530D01*
X109700904Y-86386597D01*
X109727560Y-86404408D01*
X109727560Y-86656250D01*
X109795398Y-86997294D01*
X109988584Y-87286416D01*
X110277706Y-87479602D01*
X110618750Y-87547440D01*
X111106250Y-87547440D01*
X111447294Y-87479602D01*
X111736416Y-87286416D01*
X111765001Y-87243636D01*
X111765000Y-88202704D01*
X111665000Y-88444126D01*
X111665000Y-88855874D01*
X111822569Y-89236280D01*
X112113720Y-89527431D01*
X112494126Y-89685000D01*
X112905874Y-89685000D01*
X113286280Y-89527431D01*
X113577431Y-89236280D01*
X113735000Y-88855874D01*
X113735000Y-88444126D01*
X113635000Y-88202704D01*
X113635000Y-87251120D01*
X113804602Y-86997294D01*
X113872440Y-86656250D01*
X113872440Y-86607229D01*
X114579557Y-87314347D01*
X114465302Y-87361673D01*
X114286673Y-87540301D01*
X114190000Y-87773690D01*
X114190000Y-88314250D01*
X114348750Y-88473000D01*
X115185500Y-88473000D01*
X115185500Y-88453000D01*
X115439500Y-88453000D01*
X115439500Y-88473000D01*
X115459500Y-88473000D01*
X115459500Y-88727000D01*
X115439500Y-88727000D01*
X115439500Y-88747000D01*
X115185500Y-88747000D01*
X115185500Y-88727000D01*
X114348750Y-88727000D01*
X114190000Y-88885750D01*
X114190000Y-89426310D01*
X114218330Y-89494703D01*
X114046506Y-89528881D01*
X113721226Y-89746226D01*
X113503881Y-90071506D01*
X113427560Y-90455200D01*
X113427560Y-92144800D01*
X113503881Y-92528494D01*
X113721226Y-92853774D01*
X114046506Y-93071119D01*
X114226050Y-93106832D01*
X114195398Y-93152706D01*
X114127560Y-93493750D01*
X114127560Y-93762650D01*
X113228962Y-94661249D01*
X113150893Y-94713413D01*
X112990595Y-94953317D01*
X112944240Y-95022692D01*
X112871673Y-95387510D01*
X112889990Y-95479596D01*
X112889991Y-95887720D01*
X111085000Y-97692710D01*
X111085000Y-97494126D01*
X110927431Y-97113720D01*
X110636280Y-96822569D01*
X110255874Y-96665000D01*
X109844126Y-96665000D01*
X109463720Y-96822569D01*
X109421289Y-96865000D01*
X109362589Y-96865000D01*
X109261416Y-96713584D01*
X108972294Y-96520398D01*
X108631250Y-96452560D01*
X108143750Y-96452560D01*
X107802706Y-96520398D01*
X107513584Y-96713584D01*
X107512793Y-96714767D01*
X107359698Y-96561673D01*
X107126309Y-96465000D01*
X106798250Y-96465000D01*
X106639500Y-96623750D01*
X106639500Y-97673000D01*
X106659500Y-97673000D01*
X106659500Y-97927000D01*
X106639500Y-97927000D01*
X106639500Y-98976250D01*
X106677000Y-99013750D01*
X106677000Y-99473000D01*
X106697000Y-99473000D01*
X106697000Y-99727000D01*
X106677000Y-99727000D01*
X106677000Y-99747000D01*
X106423000Y-99747000D01*
X106423000Y-99727000D01*
X106403000Y-99727000D01*
X106403000Y-99473000D01*
X106423000Y-99473000D01*
X106423000Y-98673750D01*
X106385500Y-98636250D01*
X106385500Y-97927000D01*
X105548750Y-97927000D01*
X105390000Y-98085750D01*
X105390000Y-98626310D01*
X105486673Y-98859699D01*
X105554736Y-98927761D01*
X105515000Y-99023691D01*
X105515000Y-99292711D01*
X104485000Y-98262711D01*
X104485000Y-97099789D01*
X104611099Y-96973690D01*
X105390000Y-96973690D01*
X105390000Y-97514250D01*
X105548750Y-97673000D01*
X106385500Y-97673000D01*
X106385500Y-96623750D01*
X106226750Y-96465000D01*
X105898691Y-96465000D01*
X105665302Y-96561673D01*
X105486673Y-96740301D01*
X105390000Y-96973690D01*
X104611099Y-96973690D01*
X106237350Y-95347440D01*
X106506250Y-95347440D01*
X106847294Y-95279602D01*
X107136416Y-95086416D01*
X107200000Y-94991256D01*
X107263584Y-95086416D01*
X107552706Y-95279602D01*
X107893750Y-95347440D01*
X108381250Y-95347440D01*
X108722294Y-95279602D01*
X109011416Y-95086416D01*
X109204602Y-94797294D01*
X109272440Y-94456250D01*
X109272440Y-93543750D01*
X109204602Y-93202706D01*
X109167674Y-93147440D01*
X109169800Y-93147440D01*
X109553494Y-93071119D01*
X109878774Y-92853774D01*
X110096119Y-92528494D01*
X110172440Y-92144800D01*
X110172440Y-90455200D01*
X110096119Y-90071506D01*
X109878774Y-89746226D01*
X109553494Y-89528881D01*
X109169800Y-89452560D01*
X109150856Y-89452560D01*
X109254602Y-89297294D01*
X109322440Y-88956250D01*
X109322440Y-88043750D01*
X109254602Y-87702706D01*
X109122500Y-87505002D01*
X109122500Y-87454581D01*
X109140816Y-87362499D01*
X109122500Y-87270415D01*
X109122500Y-87270414D01*
X109068250Y-86997681D01*
X108861597Y-86688403D01*
X108783531Y-86636241D01*
X105672440Y-83525151D01*
X105672440Y-82555200D01*
X105596119Y-82171506D01*
X105378774Y-81846226D01*
X105361973Y-81835000D01*
X107397252Y-81835000D01*
X107489338Y-81853317D01*
X107581424Y-81835000D01*
X107854157Y-81780750D01*
X108163435Y-81574097D01*
X108215599Y-81496028D01*
X109587937Y-80123690D01*
X109740000Y-80123690D01*
X109740000Y-80664250D01*
X109898750Y-80823000D01*
X110735500Y-80823000D01*
X110735500Y-79773750D01*
X110576750Y-79615000D01*
X110248691Y-79615000D01*
X110015302Y-79711673D01*
X109836673Y-79890301D01*
X109740000Y-80123690D01*
X109587937Y-80123690D01*
X110191741Y-79519887D01*
X110269807Y-79467725D01*
X110476460Y-79158447D01*
X110530710Y-78885714D01*
X110540285Y-78837575D01*
X111317710Y-79615000D01*
G36*
X106667710Y-87165000D02*
X106598250Y-87165000D01*
X106439500Y-87323750D01*
X106439500Y-88373000D01*
X106459500Y-88373000D01*
X106459500Y-88627000D01*
X106439500Y-88627000D01*
X106439500Y-88647000D01*
X106185500Y-88647000D01*
X106185500Y-88627000D01*
X105348750Y-88627000D01*
X105190000Y-88785750D01*
X105190000Y-89326310D01*
X105256598Y-89487091D01*
X105046506Y-89528881D01*
X104721226Y-89746226D01*
X104503881Y-90071506D01*
X104427560Y-90455200D01*
X104427560Y-91430271D01*
X102697500Y-89700211D01*
X102697500Y-87673690D01*
X105190000Y-87673690D01*
X105190000Y-88214250D01*
X105348750Y-88373000D01*
X106185500Y-88373000D01*
X106185500Y-87323750D01*
X106026750Y-87165000D01*
X105698691Y-87165000D01*
X105465302Y-87261673D01*
X105286673Y-87440301D01*
X105190000Y-87673690D01*
X102697500Y-87673690D01*
X102697500Y-86994998D01*
X102700000Y-86991256D01*
X102763584Y-87086416D01*
X103052706Y-87279602D01*
X103393750Y-87347440D01*
X103881250Y-87347440D01*
X104222294Y-87279602D01*
X104511416Y-87086416D01*
X104704602Y-86797294D01*
X104772440Y-86456250D01*
X104772440Y-85543750D01*
X104711837Y-85239078D01*
X104736820Y-85234109D01*
X106667710Y-87165000D01*
X106667710Y-87165000D01*
G37*
X106667710Y-87165000D02*
X106598250Y-87165000D01*
X106439500Y-87323750D01*
X106439500Y-88373000D01*
X106459500Y-88373000D01*
X106459500Y-88627000D01*
X106439500Y-88627000D01*
X106439500Y-88647000D01*
X106185500Y-88647000D01*
X106185500Y-88627000D01*
X105348750Y-88627000D01*
X105190000Y-88785750D01*
X105190000Y-89326310D01*
X105256598Y-89487091D01*
X105046506Y-89528881D01*
X104721226Y-89746226D01*
X104503881Y-90071506D01*
X104427560Y-90455200D01*
X104427560Y-91430271D01*
X102697500Y-89700211D01*
X102697500Y-87673690D01*
X105190000Y-87673690D01*
X105190000Y-88214250D01*
X105348750Y-88373000D01*
X106185500Y-88373000D01*
X106185500Y-87323750D01*
X106026750Y-87165000D01*
X105698691Y-87165000D01*
X105465302Y-87261673D01*
X105286673Y-87440301D01*
X105190000Y-87673690D01*
X102697500Y-87673690D01*
X102697500Y-86994998D01*
X102700000Y-86991256D01*
X102763584Y-87086416D01*
X103052706Y-87279602D01*
X103393750Y-87347440D01*
X103881250Y-87347440D01*
X104222294Y-87279602D01*
X104511416Y-87086416D01*
X104704602Y-86797294D01*
X104772440Y-86456250D01*
X104772440Y-85543750D01*
X104711837Y-85239078D01*
X104736820Y-85234109D01*
X106667710Y-87165000D01*
G36*
X120317711Y-79615000D02*
X120048250Y-79615000D01*
X119889500Y-79773750D01*
X119889500Y-80823000D01*
X119909500Y-80823000D01*
X119909500Y-81077000D01*
X119889500Y-81077000D01*
X119889500Y-81097000D01*
X119635500Y-81097000D01*
X119635500Y-81077000D01*
X118798750Y-81077000D01*
X118640000Y-81235750D01*
X118640000Y-81710284D01*
X118546506Y-81728881D01*
X118221226Y-81946226D01*
X118003881Y-82271506D01*
X117927560Y-82655200D01*
X117927560Y-84344800D01*
X118003881Y-84728494D01*
X118190016Y-85007064D01*
X117885000Y-84702049D01*
X117885000Y-81397296D01*
X117985000Y-81155874D01*
X117985000Y-80744126D01*
X117885000Y-80502704D01*
X117885000Y-80123690D01*
X118640000Y-80123690D01*
X118640000Y-80664250D01*
X118798750Y-80823000D01*
X119635500Y-80823000D01*
X119635500Y-79773750D01*
X119476750Y-79615000D01*
X119148691Y-79615000D01*
X118915302Y-79711673D01*
X118736673Y-79890301D01*
X118640000Y-80123690D01*
X117885000Y-80123690D01*
X117885000Y-79787703D01*
X118111416Y-79636416D01*
X118304602Y-79347294D01*
X118372440Y-79006250D01*
X118372440Y-78093750D01*
X118304602Y-77752706D01*
X118167447Y-77547440D01*
X118169800Y-77547440D01*
X118236820Y-77534109D01*
X120317711Y-79615000D01*
X120317711Y-79615000D01*
G37*
X120317711Y-79615000D02*
X120048250Y-79615000D01*
X119889500Y-79773750D01*
X119889500Y-80823000D01*
X119909500Y-80823000D01*
X119909500Y-81077000D01*
X119889500Y-81077000D01*
X119889500Y-81097000D01*
X119635500Y-81097000D01*
X119635500Y-81077000D01*
X118798750Y-81077000D01*
X118640000Y-81235750D01*
X118640000Y-81710284D01*
X118546506Y-81728881D01*
X118221226Y-81946226D01*
X118003881Y-82271506D01*
X117927560Y-82655200D01*
X117927560Y-84344800D01*
X118003881Y-84728494D01*
X118190016Y-85007064D01*
X117885000Y-84702049D01*
X117885000Y-81397296D01*
X117985000Y-81155874D01*
X117985000Y-80744126D01*
X117885000Y-80502704D01*
X117885000Y-80123690D01*
X118640000Y-80123690D01*
X118640000Y-80664250D01*
X118798750Y-80823000D01*
X119635500Y-80823000D01*
X119635500Y-79773750D01*
X119476750Y-79615000D01*
X119148691Y-79615000D01*
X118915302Y-79711673D01*
X118736673Y-79890301D01*
X118640000Y-80123690D01*
X117885000Y-80123690D01*
X117885000Y-79787703D01*
X118111416Y-79636416D01*
X118304602Y-79347294D01*
X118372440Y-79006250D01*
X118372440Y-78093750D01*
X118304602Y-77752706D01*
X118167447Y-77547440D01*
X118169800Y-77547440D01*
X118236820Y-77534109D01*
X120317711Y-79615000D01*
G36*
X101939500Y-80773000D02*
X101959500Y-80773000D01*
X101959500Y-81027000D01*
X101939500Y-81027000D01*
X101939500Y-81047000D01*
X101685500Y-81047000D01*
X101685500Y-81027000D01*
X101665500Y-81027000D01*
X101665500Y-80773000D01*
X101685500Y-80773000D01*
X101685500Y-80753000D01*
X101939500Y-80753000D01*
X101939500Y-80773000D01*
X101939500Y-80773000D01*
G37*
X101939500Y-80773000D02*
X101959500Y-80773000D01*
X101959500Y-81027000D01*
X101939500Y-81027000D01*
X101939500Y-81047000D01*
X101685500Y-81047000D01*
X101685500Y-81027000D01*
X101665500Y-81027000D01*
X101665500Y-80773000D01*
X101685500Y-80773000D01*
X101685500Y-80753000D01*
X101939500Y-80753000D01*
X101939500Y-80773000D01*
G36*
X105288584Y-79386416D02*
X105577706Y-79579602D01*
X105918750Y-79647440D01*
X106406250Y-79647440D01*
X106747294Y-79579602D01*
X107036416Y-79386416D01*
X107100000Y-79291256D01*
X107163584Y-79386416D01*
X107452706Y-79579602D01*
X107481683Y-79585366D01*
X107102049Y-79965000D01*
X104662589Y-79965000D01*
X104561416Y-79813584D01*
X104272294Y-79620398D01*
X103931250Y-79552560D01*
X103443750Y-79552560D01*
X103102706Y-79620398D01*
X102813584Y-79813584D01*
X102812793Y-79814767D01*
X102659698Y-79661673D01*
X102632531Y-79650420D01*
X103047952Y-79235000D01*
X105187411Y-79235000D01*
X105288584Y-79386416D01*
X105288584Y-79386416D01*
G37*
X105288584Y-79386416D02*
X105577706Y-79579602D01*
X105918750Y-79647440D01*
X106406250Y-79647440D01*
X106747294Y-79579602D01*
X107036416Y-79386416D01*
X107100000Y-79291256D01*
X107163584Y-79386416D01*
X107452706Y-79579602D01*
X107481683Y-79585366D01*
X107102049Y-79965000D01*
X104662589Y-79965000D01*
X104561416Y-79813584D01*
X104272294Y-79620398D01*
X103931250Y-79552560D01*
X103443750Y-79552560D01*
X103102706Y-79620398D01*
X102813584Y-79813584D01*
X102812793Y-79814767D01*
X102659698Y-79661673D01*
X102632531Y-79650420D01*
X103047952Y-79235000D01*
X105187411Y-79235000D01*
X105288584Y-79386416D01*
G36*
X108176843Y-64477765D02*
X108317191Y-64687809D01*
X108416551Y-64754199D01*
X108277000Y-64893750D01*
X108277000Y-64972341D01*
X108176843Y-65122235D01*
X108150000Y-65257185D01*
X108123157Y-65122235D01*
X108023000Y-64972341D01*
X108023000Y-64893750D01*
X107883449Y-64754199D01*
X107982809Y-64687809D01*
X108123157Y-64477765D01*
X108150000Y-64342815D01*
X108176843Y-64477765D01*
X108176843Y-64477765D01*
G37*
X108176843Y-64477765D02*
X108317191Y-64687809D01*
X108416551Y-64754199D01*
X108277000Y-64893750D01*
X108277000Y-64972341D01*
X108176843Y-65122235D01*
X108150000Y-65257185D01*
X108123157Y-65122235D01*
X108023000Y-64972341D01*
X108023000Y-64893750D01*
X107883449Y-64754199D01*
X107982809Y-64687809D01*
X108123157Y-64477765D01*
X108150000Y-64342815D01*
X108176843Y-64477765D01*
G36*
X109050000Y-58173000D02*
X109097000Y-58173000D01*
X109097000Y-58427000D01*
X109050000Y-58427000D01*
X109050000Y-59576250D01*
X109208750Y-59735000D01*
X109276309Y-59735000D01*
X109449816Y-59663131D01*
X109502235Y-59698157D01*
X109750000Y-59747440D01*
X109865809Y-59747440D01*
X109563720Y-59872569D01*
X109272569Y-60163720D01*
X109115000Y-60544126D01*
X109115000Y-60955874D01*
X109118780Y-60965000D01*
X108977233Y-60965000D01*
X108895000Y-60948643D01*
X108812767Y-60965000D01*
X108812763Y-60965000D01*
X108569199Y-61013448D01*
X108292999Y-61197999D01*
X108246415Y-61267717D01*
X106991573Y-62522560D01*
X106875000Y-62522560D01*
X106627235Y-62571843D01*
X106417191Y-62712191D01*
X106276843Y-62922235D01*
X106272183Y-62945664D01*
X106047294Y-62795398D01*
X105706250Y-62727560D01*
X105274300Y-62727560D01*
X105434229Y-62623899D01*
X105509416Y-62558309D01*
X105585365Y-62493672D01*
X105591268Y-62486906D01*
X105961423Y-62057321D01*
X106015184Y-61973258D01*
X106069934Y-61889909D01*
X106073700Y-61881758D01*
X106308406Y-61365549D01*
X106336414Y-61269769D01*
X106365568Y-61174410D01*
X106366896Y-61165530D01*
X106444468Y-60623869D01*
X106454708Y-60572388D01*
X106454708Y-59178485D01*
X106550000Y-59197440D01*
X107950000Y-59197440D01*
X108115000Y-59164620D01*
X108115000Y-59226310D01*
X108211673Y-59459699D01*
X108390302Y-59638327D01*
X108623691Y-59735000D01*
X108691250Y-59735000D01*
X108850000Y-59576250D01*
X108850000Y-58427000D01*
X108803000Y-58427000D01*
X108803000Y-58173000D01*
X108850000Y-58173000D01*
X108850000Y-58153000D01*
X109050000Y-58153000D01*
X109050000Y-58173000D01*
X109050000Y-58173000D01*
G37*
X109050000Y-58173000D02*
X109097000Y-58173000D01*
X109097000Y-58427000D01*
X109050000Y-58427000D01*
X109050000Y-59576250D01*
X109208750Y-59735000D01*
X109276309Y-59735000D01*
X109449816Y-59663131D01*
X109502235Y-59698157D01*
X109750000Y-59747440D01*
X109865809Y-59747440D01*
X109563720Y-59872569D01*
X109272569Y-60163720D01*
X109115000Y-60544126D01*
X109115000Y-60955874D01*
X109118780Y-60965000D01*
X108977233Y-60965000D01*
X108895000Y-60948643D01*
X108812767Y-60965000D01*
X108812763Y-60965000D01*
X108569199Y-61013448D01*
X108292999Y-61197999D01*
X108246415Y-61267717D01*
X106991573Y-62522560D01*
X106875000Y-62522560D01*
X106627235Y-62571843D01*
X106417191Y-62712191D01*
X106276843Y-62922235D01*
X106272183Y-62945664D01*
X106047294Y-62795398D01*
X105706250Y-62727560D01*
X105274300Y-62727560D01*
X105434229Y-62623899D01*
X105509416Y-62558309D01*
X105585365Y-62493672D01*
X105591268Y-62486906D01*
X105961423Y-62057321D01*
X106015184Y-61973258D01*
X106069934Y-61889909D01*
X106073700Y-61881758D01*
X106308406Y-61365549D01*
X106336414Y-61269769D01*
X106365568Y-61174410D01*
X106366896Y-61165530D01*
X106444468Y-60623869D01*
X106454708Y-60572388D01*
X106454708Y-59178485D01*
X106550000Y-59197440D01*
X107950000Y-59197440D01*
X108115000Y-59164620D01*
X108115000Y-59226310D01*
X108211673Y-59459699D01*
X108390302Y-59638327D01*
X108623691Y-59735000D01*
X108691250Y-59735000D01*
X108850000Y-59576250D01*
X108850000Y-58427000D01*
X108803000Y-58427000D01*
X108803000Y-58173000D01*
X108850000Y-58173000D01*
X108850000Y-58153000D01*
X109050000Y-58153000D01*
X109050000Y-58173000D01*
G36*
X116233216Y-53423491D02*
X116557780Y-53571061D01*
X116827883Y-53803797D01*
X117021808Y-54102986D01*
X117131246Y-54468926D01*
X117145277Y-54657733D01*
X117145277Y-55083590D01*
X117097765Y-55051843D01*
X116850000Y-55002560D01*
X115450000Y-55002560D01*
X115285000Y-55035380D01*
X115285000Y-54973690D01*
X115188327Y-54740301D01*
X115009698Y-54561673D01*
X114776309Y-54465000D01*
X114708750Y-54465000D01*
X114550000Y-54623750D01*
X114550000Y-55773000D01*
X114597000Y-55773000D01*
X114597000Y-56027000D01*
X114550000Y-56027000D01*
X114550000Y-56047000D01*
X114350000Y-56047000D01*
X114350000Y-56027000D01*
X114303000Y-56027000D01*
X114303000Y-55773000D01*
X114350000Y-55773000D01*
X114350000Y-54623750D01*
X114191250Y-54465000D01*
X114123691Y-54465000D01*
X113950184Y-54536869D01*
X113897765Y-54501843D01*
X113650000Y-54452560D01*
X113250000Y-54452560D01*
X113109680Y-54480471D01*
X113109680Y-54297961D01*
X113252111Y-54155530D01*
X113409680Y-53775124D01*
X113409680Y-53365447D01*
X115827912Y-53365447D01*
X116233216Y-53423491D01*
X116233216Y-53423491D01*
G37*
X116233216Y-53423491D02*
X116557780Y-53571061D01*
X116827883Y-53803797D01*
X117021808Y-54102986D01*
X117131246Y-54468926D01*
X117145277Y-54657733D01*
X117145277Y-55083590D01*
X117097765Y-55051843D01*
X116850000Y-55002560D01*
X115450000Y-55002560D01*
X115285000Y-55035380D01*
X115285000Y-54973690D01*
X115188327Y-54740301D01*
X115009698Y-54561673D01*
X114776309Y-54465000D01*
X114708750Y-54465000D01*
X114550000Y-54623750D01*
X114550000Y-55773000D01*
X114597000Y-55773000D01*
X114597000Y-56027000D01*
X114550000Y-56027000D01*
X114550000Y-56047000D01*
X114350000Y-56047000D01*
X114350000Y-56027000D01*
X114303000Y-56027000D01*
X114303000Y-55773000D01*
X114350000Y-55773000D01*
X114350000Y-54623750D01*
X114191250Y-54465000D01*
X114123691Y-54465000D01*
X113950184Y-54536869D01*
X113897765Y-54501843D01*
X113650000Y-54452560D01*
X113250000Y-54452560D01*
X113109680Y-54480471D01*
X113109680Y-54297961D01*
X113252111Y-54155530D01*
X113409680Y-53775124D01*
X113409680Y-53365447D01*
X115827912Y-53365447D01*
X116233216Y-53423491D01*
G04 #@! TD*
M02*
